M48
;GenerationSoftware,Autodesk,EAGLE,9.6.2*%
;CreationDate,2021-05-27T08:17:02Z*%
FMAT,2
ICI,OFF
METRIC,TZ,000.000
T3C0.200
T2C0.400
T1C0.650
%
G90
M71
T1
X131160Y5667
X2444Y5667
X8224Y5667
X13620Y5667
X19400Y5667
X24796Y5667
X30576Y5667
X35972Y5667
X41752Y5667
X47148Y5667
X52928Y5667
X58324Y5667
X64104Y5667
X69500Y5667
X75280Y5667
X80676Y5667
X86456Y5667
X91852Y5667
X97632Y5667
X103028Y5667
X108808Y5667
X114204Y5667
X119984Y5667
X125380Y5667
X80676Y76121
X136556Y5667
X142336Y5667
X147732Y5667
X153512Y5667
X158908Y5667
X164688Y5667
X170084Y5667
X175864Y5667
X8224Y76121
X2444Y76121
X19400Y76121
X13620Y76121
X30576Y76121
X24796Y76121
X41752Y76121
X35972Y76121
X52928Y76121
X47148Y76121
X64104Y76121
X58324Y76121
X75280Y76121
X69500Y76121
X86456Y76121
X170084Y76121
X97632Y76121
X91852Y76121
X108808Y76121
X103028Y76121
X119984Y76121
X114204Y76121
X131160Y76121
X125380Y76121
X142336Y76121
X136556Y76121
X153512Y76121
X147732Y76121
X164688Y76121
X158908Y76121
X175864Y76121
T2
X177292Y75591
X1016Y2017
X9652Y2017
X9652Y6197
X1016Y6197
X12192Y2017
X20828Y2017
X20828Y6197
X12192Y6197
X23368Y2017
X32004Y2017
X32004Y6197
X23368Y6197
X34544Y2017
X43180Y2017
X43180Y6197
X34544Y6197
X45720Y2017
X54356Y2017
X54356Y6197
X45720Y6197
X56896Y2017
X65532Y2017
X65532Y6197
X56896Y6197
X68072Y2017
X76708Y2017
X76708Y6197
X68072Y6197
X79248Y2017
X87884Y2017
X87884Y6197
X79248Y6197
X90424Y2017
X99060Y2017
X99060Y6197
X90424Y6197
X101600Y2017
X110236Y2017
X110236Y6197
X101600Y6197
X112776Y2017
X121412Y2017
X121412Y6197
X112776Y6197
X123952Y2017
X132588Y2017
X132588Y6197
X123952Y6197
X135128Y2017
X143764Y2017
X143764Y6197
X135128Y6197
X146304Y2017
X154940Y2017
X154940Y6197
X146304Y6197
X157480Y2017
X166116Y2017
X166116Y6197
X157480Y6197
X168656Y2017
X177292Y2017
X177292Y6197
X168656Y6197
X9652Y79771
X1016Y79771
X1016Y75591
X9652Y75591
X20828Y79771
X12192Y79771
X12192Y75591
X20828Y75591
X32004Y79771
X23368Y79771
X23368Y75591
X32004Y75591
X43180Y79771
X34544Y79771
X34544Y75591
X43180Y75591
X54356Y79771
X45720Y79771
X45720Y75591
X54356Y75591
X65532Y79771
X56896Y79771
X56896Y75591
X65532Y75591
X76708Y79771
X68072Y79771
X68072Y75591
X76708Y75591
X87884Y79771
X79248Y79771
X79248Y75591
X87884Y75591
X99060Y79771
X90424Y79771
X90424Y75591
X99060Y75591
X110236Y79771
X101600Y79771
X101600Y75591
X110236Y75591
X121412Y79771
X112776Y79771
X112776Y75591
X121412Y75591
X132588Y79771
X123952Y79771
X123952Y75591
X132588Y75591
X143764Y79771
X135128Y79771
X135128Y75591
X143764Y75591
X154940Y79771
X146304Y79771
X146304Y75591
X154940Y75591
X166116Y79771
X157480Y79771
X157480Y75591
X166116Y75591
X177292Y79771
X168656Y79771
X168656Y75591
T3
X15238Y1460
X15237Y39180
X12419Y20860
X15743Y1460
X15748Y39180
X12913Y23717
X16247Y1460
X16253Y39180
X19541Y24733
X16752Y1460
X16758Y39180
X16669Y37168
X18776Y25202
X17257Y1460
X17239Y38947
X19939Y24384
X17762Y1460
X17720Y39180
X20372Y23951
X18225Y39180
X13257Y19433
X17082Y3175
X18729Y39180
X12717Y20447
X13537Y10795
X17082Y3746
X13283Y38672
X13283Y39180
X13228Y1397
X19749Y1397
X19749Y39180
X19752Y38672
X18193Y18479
X16510Y18161
X12698Y22098
X13257Y18928
X14115Y18572
X17653Y35751
X17653Y35243
X13271Y27114
X13271Y27686
X18733Y25908
X18733Y26416
X13228Y1968
X19749Y1968
X20257Y38683
X20257Y39180
X20892Y572
X21336Y572
X19876Y3238
X19876Y2731
X17653Y9779
X18987Y10414
X12763Y39180
X12128Y572
X17145Y38259
X19368Y34544
X19762Y20094
X20728Y21781
X20728Y22352
X19351Y19287
X18585Y18800
X18698Y18296
X14353Y25146
X13779Y26734
X13843Y14065
X15716Y15875
X14599Y18865
X13257Y18423
X16256Y7609
X17209Y7620
X18098Y10247
X18923Y11049
X18701Y15684
X17653Y26225
X17272Y16447
X17653Y5461
X13716Y9906
X20320Y27559
X15061Y9843
X19762Y19590
X18987Y14160
X18987Y12700
X20360Y32142
X24896Y1651
X30456Y1651
X30353Y2159
X30416Y38926
X30416Y38481
X24929Y38936
X24936Y38435
X25012Y2159
X28130Y8128
X25146Y11239
X32575Y7556
X22796Y7620
X27686Y12700
X27686Y22098
X29877Y16415
X29654Y14986
X28638Y16955
X25527Y33909
X30162Y35497
X29877Y17526
X27210Y9557
X24955Y15113
X26987Y17717
X24447Y26289
X31496Y26543
X31369Y24892
X23698Y38245
X24396Y34562
X24428Y29164
X30810Y30243
X30937Y32148
X32207Y39197
X31115Y4445
X24765Y4445
X22860Y4445
X29972Y3111
X24797Y13049
X29222Y29227
X25412Y29227
X27952Y31767
X25412Y31767
X26670Y37148
X23126Y39134
X29337Y26479
X30162Y36005
X27686Y2540
X32067Y23177
X32653Y10033
X25404Y1460
X25400Y39180
X22998Y23495
X25909Y1460
X25908Y39180
X23304Y23082
X26414Y1460
X26413Y39180
X23595Y20860
X26919Y1460
X26924Y39180
X24089Y23717
X27423Y1460
X27429Y39180
X30717Y24733
X27928Y1460
X27934Y39180
X27845Y37168
X29952Y25202
X28433Y1460
X28415Y38947
X31115Y24384
X28938Y1460
X28896Y39180
X31548Y23951
X29400Y39180
X24433Y19433
X28257Y3175
X29905Y39180
X23893Y20447
X24713Y10795
X28257Y3746
X24459Y38672
X24459Y39180
X24404Y1397
X30924Y1397
X30924Y39180
X30928Y38672
X29369Y18479
X27686Y18161
X23874Y22098
X24433Y18928
X25291Y18572
X28829Y35751
X28829Y35243
X24447Y27114
X24447Y27686
X29908Y25908
X29908Y26416
X24404Y1968
X30924Y1968
X31432Y38683
X31432Y39180
X32067Y572
X32512Y572
X31051Y3238
X31051Y2731
X28829Y9779
X30162Y10414
X23939Y39180
X23304Y572
X28321Y38259
X30543Y34544
X30938Y20094
X31904Y21781
X31904Y22352
X30527Y19287
X29761Y18800
X29874Y18296
X25529Y25146
X24955Y26734
X25019Y14065
X26892Y15875
X25775Y18865
X24433Y18423
X27432Y7609
X28384Y7620
X29273Y10247
X30099Y11049
X29877Y15684
X28829Y26225
X28448Y16447
X28829Y5461
X24892Y9906
X31496Y27559
X26237Y9843
X30938Y19590
X30162Y14160
X30162Y12700
X31536Y32142
X36072Y1651
X41632Y1651
X41529Y2159
X41593Y38926
X41593Y38481
X36105Y38936
X36112Y38435
X36188Y2159
X39307Y8128
X36322Y11239
X43751Y7556
X33973Y7620
X38862Y12700
X38862Y22098
X41053Y16415
X40831Y14986
X39815Y16955
X36703Y33909
X41339Y35497
X41053Y17526
X38386Y9557
X36132Y15113
X38164Y17717
X35624Y26289
X42672Y26543
X42545Y24892
X34874Y38245
X35572Y34562
X35604Y29164
X41986Y30243
X42113Y32148
X43383Y39197
X42291Y4445
X35941Y4445
X34036Y4445
X41148Y3111
X35973Y13049
X40398Y29227
X36588Y29227
X39128Y31767
X36588Y31767
X37846Y37148
X34302Y39134
X40513Y26479
X41339Y36005
X38862Y2540
X43244Y23177
X43829Y10033
X36580Y1460
X36576Y39180
X34174Y23495
X37085Y1460
X37084Y39180
X34481Y23082
X37590Y1460
X37589Y39180
X34771Y20860
X38095Y1460
X38100Y39180
X35265Y23717
X38600Y1460
X38605Y39180
X41893Y24733
X39104Y1460
X39110Y39180
X39021Y37168
X41128Y25202
X39609Y1460
X39591Y38947
X42291Y24384
X40114Y1460
X40072Y39180
X42724Y23951
X40577Y39180
X35609Y19433
X39434Y3175
X41081Y39180
X35069Y20447
X35889Y10795
X39434Y3746
X35635Y38672
X35635Y39180
X35580Y1397
X42101Y1397
X42101Y39180
X42104Y38672
X40545Y18479
X38862Y18161
X35050Y22098
X35609Y18928
X36467Y18572
X40005Y35751
X40005Y35243
X35624Y27114
X35624Y27686
X41085Y25908
X41085Y26416
X35580Y1968
X42101Y1968
X42609Y38683
X42609Y39180
X43244Y572
X43688Y572
X42228Y3238
X42228Y2731
X40005Y9779
X41339Y10414
X35116Y39180
X34481Y572
X39497Y38259
X41720Y34544
X42114Y20094
X43080Y21781
X43080Y22352
X41703Y19287
X40937Y18800
X41050Y18296
X36705Y25146
X36131Y26734
X36195Y14065
X38068Y15875
X36951Y18865
X35609Y18423
X38608Y7609
X39561Y7620
X40450Y10247
X41275Y11049
X41053Y15684
X40005Y26225
X39624Y16447
X40005Y5461
X36068Y9906
X42672Y27559
X37413Y9843
X42114Y19590
X41339Y14160
X41339Y12700
X42712Y32142
X47248Y1651
X52808Y1651
X52705Y2159
X52768Y38926
X52768Y38481
X47281Y38936
X47288Y38435
X47364Y2159
X50482Y8128
X47498Y11239
X54927Y7556
X45148Y7620
X50038Y12700
X50038Y22098
X52229Y16415
X52006Y14986
X50990Y16955
X47879Y33909
X52514Y35497
X52229Y17526
X49562Y9557
X47307Y15113
X49339Y17717
X46799Y26289
X53848Y26543
X53721Y24892
X46050Y38245
X46748Y34562
X46780Y29164
X53162Y30243
X53289Y32148
X54559Y39197
X53467Y4445
X47117Y4445
X45212Y4445
X52324Y3111
X47149Y13049
X51574Y29227
X47764Y29227
X50304Y31767
X47764Y31767
X49022Y37148
X45478Y39134
X51689Y26479
X52514Y36005
X50038Y2540
X54419Y23177
X55005Y10033
X47756Y1460
X47752Y39180
X45350Y23495
X48261Y1460
X48260Y39180
X45656Y23082
X48766Y1460
X48765Y39180
X45947Y20860
X49271Y1460
X49276Y39180
X46441Y23717
X49775Y1460
X49781Y39180
X53069Y24733
X50280Y1460
X50286Y39180
X50197Y37168
X52304Y25202
X50785Y1460
X50767Y38947
X53467Y24384
X51290Y1460
X51248Y39180
X53900Y23951
X51752Y39180
X46785Y19433
X50609Y3175
X52257Y39180
X46245Y20447
X47065Y10795
X50609Y3746
X46811Y38672
X46811Y39180
X46756Y1397
X53276Y1397
X53276Y39180
X53280Y38672
X51721Y18479
X50038Y18161
X46226Y22098
X46785Y18928
X47643Y18572
X51181Y35751
X51181Y35243
X46799Y27114
X46799Y27686
X52260Y25908
X52260Y26416
X46756Y1968
X53276Y1968
X53784Y38683
X53784Y39180
X54419Y572
X54864Y572
X53403Y3238
X53403Y2731
X51181Y9779
X52514Y10414
X46291Y39180
X45656Y572
X50673Y38259
X52895Y34544
X53290Y20094
X54256Y21781
X54256Y22352
X52879Y19287
X52113Y18800
X52226Y18296
X47881Y25146
X47307Y26734
X47371Y14065
X49244Y15875
X48127Y18865
X46785Y18423
X49784Y7609
X50736Y7620
X51625Y10247
X52451Y11049
X52229Y15684
X51181Y26225
X50800Y16447
X51181Y5461
X47244Y9906
X53848Y27559
X48589Y9843
X53290Y19590
X52514Y14160
X52514Y12700
X53888Y32142
X58424Y1651
X63984Y1651
X63881Y2159
X63944Y38926
X63944Y38481
X58457Y38936
X58464Y38435
X58540Y2159
X61658Y8128
X58674Y11239
X66104Y7556
X56324Y7620
X61214Y12700
X61214Y22098
X63405Y16415
X63182Y14986
X62166Y16955
X59055Y33909
X63690Y35497
X63405Y17526
X60738Y9557
X58483Y15113
X60515Y17717
X57975Y26289
X65024Y26543
X64897Y24892
X57226Y38245
X57924Y34562
X57956Y29164
X64338Y30243
X64465Y32148
X65735Y39197
X64643Y4445
X58293Y4445
X56388Y4445
X63500Y3111
X58325Y13049
X62750Y29227
X58940Y29227
X61480Y31767
X58940Y31767
X60198Y37148
X56654Y39134
X62865Y26479
X63690Y36005
X61214Y2540
X65596Y23177
X66181Y10033
X58932Y1460
X58928Y39180
X56526Y23495
X59437Y1460
X59436Y39180
X56832Y23082
X59942Y1460
X59941Y39180
X57123Y20860
X60447Y1460
X60452Y39180
X57617Y23717
X60951Y1460
X60957Y39180
X64245Y24733
X61456Y1460
X61462Y39180
X61373Y37168
X63480Y25202
X61961Y1460
X61943Y38947
X64643Y24384
X62466Y1460
X62424Y39180
X65076Y23951
X62928Y39180
X57961Y19433
X61785Y3175
X63433Y39180
X57421Y20447
X58241Y10795
X61785Y3746
X57987Y38672
X57987Y39180
X57932Y1397
X64452Y1397
X64452Y39180
X64456Y38672
X62897Y18479
X61214Y18161
X57402Y22098
X57961Y18928
X58819Y18572
X62357Y35751
X62357Y35243
X57975Y27114
X57975Y27686
X63436Y25908
X63436Y26416
X57932Y1968
X64452Y1968
X64960Y38683
X64960Y39180
X65596Y572
X66040Y572
X64579Y3238
X64579Y2731
X62357Y9779
X63690Y10414
X57467Y39180
X56832Y572
X61849Y38259
X64071Y34544
X64466Y20094
X65432Y21781
X65432Y22352
X64055Y19287
X63289Y18800
X63402Y18296
X59057Y25146
X58483Y26734
X58547Y14065
X60420Y15875
X59303Y18865
X57961Y18423
X60960Y7609
X61912Y7620
X62801Y10247
X63627Y11049
X63405Y15684
X62357Y26225
X61976Y16447
X62357Y5461
X58420Y9906
X65024Y27559
X59765Y9843
X64466Y19590
X63690Y14160
X63690Y12700
X65064Y32142
X69600Y1651
X75160Y1651
X75057Y2159
X75121Y38926
X75121Y38481
X69633Y38936
X69640Y38435
X69716Y2159
X72835Y8128
X69850Y11239
X77280Y7556
X67501Y7620
X72390Y12700
X72390Y22098
X74581Y16415
X74359Y14986
X73343Y16955
X70231Y33909
X74867Y35497
X74581Y17526
X71914Y9557
X69660Y15113
X71692Y17717
X69152Y26289
X76200Y26543
X76073Y24892
X68402Y38245
X69100Y34562
X69132Y29164
X75514Y30243
X75641Y32148
X76911Y39197
X75819Y4445
X69469Y4445
X67564Y4445
X74676Y3111
X69501Y13049
X73926Y29227
X70116Y29227
X72656Y31767
X70116Y31767
X71374Y37148
X67830Y39134
X74041Y26479
X74867Y36005
X72390Y2540
X76772Y23177
X77357Y10033
X70108Y1460
X70104Y39180
X67702Y23495
X70613Y1460
X70612Y39180
X68009Y23082
X71118Y1460
X71117Y39180
X68299Y20860
X71623Y1460
X71628Y39180
X68793Y23717
X72128Y1460
X72133Y39180
X75421Y24733
X72632Y1460
X72638Y39180
X72549Y37168
X74656Y25202
X73137Y1460
X73119Y38947
X75819Y24384
X73642Y1460
X73600Y39180
X76252Y23951
X74105Y39180
X69137Y19433
X72962Y3175
X74609Y39180
X68597Y20447
X69417Y10795
X72962Y3746
X69163Y38672
X69163Y39180
X69108Y1397
X75629Y1397
X75629Y39180
X75632Y38672
X74073Y18479
X72390Y18161
X68578Y22098
X69137Y18928
X69995Y18572
X73533Y35751
X73533Y35243
X69152Y27114
X69152Y27686
X74613Y25908
X74613Y26416
X69108Y1968
X75629Y1968
X76137Y38683
X76137Y39180
X76772Y572
X77216Y572
X75756Y3238
X75756Y2731
X73533Y9779
X74867Y10414
X68644Y39180
X68009Y572
X73025Y38259
X75248Y34544
X75642Y20094
X76608Y21781
X76608Y22352
X75231Y19287
X74465Y18800
X74578Y18296
X70233Y25146
X69659Y26734
X69723Y14065
X71596Y15875
X70479Y18865
X69137Y18423
X72136Y7609
X73089Y7620
X73978Y10247
X74803Y11049
X74581Y15684
X73533Y26225
X73152Y16447
X73533Y5461
X69596Y9906
X76200Y27559
X70941Y9843
X75642Y19590
X74867Y14160
X74867Y12700
X76240Y32142
X80776Y1651
X86336Y1651
X86233Y2159
X86297Y38926
X86297Y38481
X80809Y38936
X80816Y38435
X80892Y2159
X84011Y8128
X81026Y11239
X88455Y7556
X78677Y7620
X83566Y12700
X83566Y22098
X85757Y16415
X85535Y14986
X84519Y16955
X81407Y33909
X86043Y35497
X85757Y17526
X83090Y9557
X80836Y15113
X82868Y17717
X80328Y26289
X87376Y26543
X87249Y24892
X79578Y38245
X80276Y34562
X80308Y29164
X86690Y30243
X86817Y32148
X88087Y39197
X86995Y4445
X80645Y4445
X78740Y4445
X85852Y3111
X80677Y13049
X85102Y29227
X81292Y29227
X83832Y31767
X81292Y31767
X82550Y37148
X79006Y39134
X85217Y26479
X86043Y36005
X83566Y2540
X87947Y23177
X88533Y10033
X81284Y1460
X81280Y39180
X78878Y23495
X81789Y1460
X81788Y39180
X79185Y23082
X82294Y1460
X82293Y39180
X79475Y20860
X82799Y1460
X82804Y39180
X79969Y23717
X83304Y1460
X83309Y39180
X86597Y24733
X83808Y1460
X83814Y39180
X83725Y37168
X85832Y25202
X84313Y1460
X84295Y38947
X86995Y24384
X84818Y1460
X84776Y39180
X87428Y23951
X85281Y39180
X80313Y19433
X84138Y3175
X85785Y39180
X79773Y20447
X80593Y10795
X84138Y3746
X80339Y38672
X80339Y39180
X80284Y1397
X86805Y1397
X86805Y39180
X86808Y38672
X85249Y18479
X83566Y18161
X79754Y22098
X80313Y18928
X81171Y18572
X84709Y35751
X84709Y35243
X80328Y27114
X80328Y27686
X85789Y25908
X85789Y26416
X80284Y1968
X86805Y1968
X87313Y38683
X87313Y39180
X87947Y572
X88392Y572
X86932Y3238
X86932Y2731
X84709Y9779
X86043Y10414
X79820Y39180
X79185Y572
X84201Y38259
X86424Y34544
X86818Y20094
X87784Y21781
X87784Y22352
X86407Y19287
X85641Y18800
X85754Y18296
X81409Y25146
X80835Y26734
X80899Y14065
X82772Y15875
X81655Y18865
X80313Y18423
X83312Y7609
X84265Y7620
X85154Y10247
X85979Y11049
X85757Y15684
X84709Y26225
X84328Y16447
X84709Y5461
X80772Y9906
X87376Y27559
X82117Y9843
X86818Y19590
X86043Y14160
X86043Y12700
X87416Y32142
X91952Y1651
X97512Y1651
X97409Y2159
X97472Y38926
X97472Y38481
X91985Y38936
X91992Y38435
X92068Y2159
X95186Y8128
X92202Y11239
X99631Y7556
X89852Y7620
X94742Y12700
X94742Y22098
X96933Y16415
X96710Y14986
X95694Y16955
X92583Y33909
X97218Y35497
X96933Y17526
X94266Y9557
X92011Y15113
X94043Y17717
X91503Y26289
X98552Y26543
X98425Y24892
X90754Y38245
X91452Y34562
X91484Y29164
X97866Y30243
X97993Y32148
X99263Y39197
X98171Y4445
X91821Y4445
X89916Y4445
X97028Y3111
X91853Y13049
X96278Y29227
X92468Y29227
X95008Y31767
X92468Y31767
X93726Y37148
X90182Y39134
X96393Y26479
X97218Y36005
X94742Y2540
X99123Y23177
X99709Y10033
X92460Y1460
X92456Y39180
X90054Y23495
X92965Y1460
X92964Y39180
X90360Y23082
X93470Y1460
X93469Y39180
X90651Y20860
X93975Y1460
X93980Y39180
X91145Y23717
X94479Y1460
X94485Y39180
X97773Y24733
X94984Y1460
X94990Y39180
X94901Y37168
X97008Y25202
X95489Y1460
X95471Y38947
X98171Y24384
X95994Y1460
X95952Y39180
X98604Y23951
X96456Y39180
X91489Y19433
X95313Y3175
X96961Y39180
X90949Y20447
X91769Y10795
X95313Y3746
X91515Y38672
X91515Y39180
X91460Y1397
X97980Y1397
X97980Y39180
X97984Y38672
X96425Y18479
X94742Y18161
X90930Y22098
X91489Y18928
X92347Y18572
X95885Y35751
X95885Y35243
X91503Y27114
X91503Y27686
X96964Y25908
X96964Y26416
X91460Y1968
X97980Y1968
X98488Y38683
X98488Y39180
X99123Y572
X99568Y572
X98107Y3238
X98107Y2731
X95885Y9779
X97218Y10414
X90995Y39180
X90360Y572
X95377Y38259
X97599Y34544
X97994Y20094
X98960Y21781
X98960Y22352
X97583Y19287
X96817Y18800
X96930Y18296
X92585Y25146
X92011Y26734
X92075Y14065
X93948Y15875
X92831Y18865
X91489Y18423
X94488Y7609
X95440Y7620
X96329Y10247
X97155Y11049
X96933Y15684
X95885Y26225
X95504Y16447
X95885Y5461
X91948Y9906
X98552Y27559
X93293Y9843
X97994Y19590
X97218Y14160
X97218Y12700
X98592Y32142
X103128Y1651
X108688Y1651
X108585Y2159
X108648Y38926
X108648Y38481
X103161Y38936
X103168Y38435
X103244Y2159
X106362Y8128
X103378Y11239
X110807Y7556
X101028Y7620
X105918Y12700
X105918Y22098
X108109Y16415
X107886Y14986
X106870Y16955
X103759Y33909
X108394Y35497
X108109Y17526
X105442Y9557
X103187Y15113
X105219Y17717
X102679Y26289
X109728Y26543
X109601Y24892
X101930Y38245
X102628Y34562
X102660Y29164
X109042Y30243
X109169Y32148
X110439Y39197
X109347Y4445
X102997Y4445
X101092Y4445
X108204Y3111
X103029Y13049
X107454Y29227
X103644Y29227
X106184Y31767
X103644Y31767
X104902Y37148
X101358Y39134
X107569Y26479
X108394Y36005
X105918Y2540
X110299Y23177
X110885Y10033
X103636Y1460
X103632Y39180
X101230Y23495
X104141Y1460
X104140Y39180
X101536Y23082
X104646Y1460
X104645Y39180
X101827Y20860
X105151Y1460
X105156Y39180
X102321Y23717
X105655Y1460
X105661Y39180
X108949Y24733
X106160Y1460
X106166Y39180
X106077Y37168
X108184Y25202
X106665Y1460
X106647Y38947
X109347Y24384
X107170Y1460
X107128Y39180
X109780Y23951
X107632Y39180
X102665Y19433
X106489Y3175
X108137Y39180
X102125Y20447
X102945Y10795
X106489Y3746
X102691Y38672
X102691Y39180
X102636Y1397
X109156Y1397
X109156Y39180
X109160Y38672
X107601Y18479
X105918Y18161
X102106Y22098
X102665Y18928
X103523Y18572
X107061Y35751
X107061Y35243
X102679Y27114
X102679Y27686
X108140Y25908
X108140Y26416
X102636Y1968
X109156Y1968
X109664Y38683
X109664Y39180
X110299Y572
X110744Y572
X109283Y3238
X109283Y2731
X107061Y9779
X108394Y10414
X102171Y39180
X101536Y572
X106553Y38259
X108775Y34544
X109170Y20094
X110136Y21781
X110136Y22352
X108759Y19287
X107993Y18800
X108106Y18296
X103761Y25146
X103187Y26734
X103251Y14065
X105124Y15875
X104007Y18865
X102665Y18423
X105664Y7609
X106616Y7620
X107505Y10247
X108331Y11049
X108109Y15684
X107061Y26225
X106680Y16447
X107061Y5461
X103124Y9906
X109728Y27559
X104469Y9843
X109170Y19590
X108394Y14160
X108394Y12700
X109768Y32142
X114304Y1651
X119864Y1651
X119761Y2159
X119824Y38926
X119824Y38481
X114337Y38936
X114344Y38435
X114420Y2159
X117538Y8128
X114554Y11239
X121983Y7556
X112204Y7620
X117094Y12700
X117094Y22098
X119285Y16415
X119062Y14986
X118046Y16955
X114935Y33909
X119570Y35497
X119285Y17526
X116618Y9557
X114363Y15113
X116395Y17717
X113855Y26289
X120904Y26543
X120777Y24892
X113106Y38245
X113804Y34562
X113836Y29164
X120218Y30243
X120345Y32148
X121615Y39197
X120523Y4445
X114173Y4445
X112268Y4445
X119380Y3111
X114205Y13049
X118630Y29227
X114820Y29227
X117360Y31767
X114820Y31767
X116078Y37148
X112534Y39134
X118745Y26479
X119570Y36005
X117094Y2540
X121475Y23177
X122061Y10033
X114812Y1460
X114808Y39180
X112406Y23495
X115317Y1460
X115316Y39180
X112712Y23082
X115822Y1460
X115821Y39180
X113003Y20860
X116327Y1460
X116332Y39180
X113497Y23717
X116831Y1460
X116837Y39180
X120125Y24733
X117336Y1460
X117342Y39180
X117253Y37168
X119360Y25202
X117841Y1460
X117823Y38947
X120523Y24384
X118346Y1460
X118304Y39180
X120956Y23951
X118808Y39180
X113841Y19433
X117665Y3175
X119313Y39180
X113301Y20447
X114121Y10795
X117665Y3746
X113867Y38672
X113867Y39180
X113812Y1397
X120332Y1397
X120332Y39180
X120336Y38672
X118777Y18479
X117094Y18161
X113282Y22098
X113841Y18928
X114699Y18572
X118237Y35751
X118237Y35243
X113855Y27114
X113855Y27686
X119316Y25908
X119316Y26416
X113812Y1968
X120332Y1968
X120840Y38683
X120840Y39180
X121475Y572
X121920Y572
X120459Y3238
X120459Y2731
X118237Y9779
X119570Y10414
X113347Y39180
X112712Y572
X117729Y38259
X119951Y34544
X120346Y20094
X121312Y21781
X121312Y22352
X119935Y19287
X119169Y18800
X119282Y18296
X114937Y25146
X114363Y26734
X114427Y14065
X116300Y15875
X115183Y18865
X113841Y18423
X116840Y7609
X117792Y7620
X118681Y10247
X119507Y11049
X119285Y15684
X118237Y26225
X117856Y16447
X118237Y5461
X114300Y9906
X120904Y27559
X115645Y9843
X120346Y19590
X119570Y14160
X119570Y12700
X120944Y32142
X125480Y1651
X131040Y1651
X130937Y2159
X131000Y38926
X131000Y38481
X125513Y38936
X125520Y38435
X125596Y2159
X128714Y8128
X125730Y11239
X133160Y7556
X123380Y7620
X128270Y12700
X128270Y22098
X130461Y16415
X130238Y14986
X129222Y16955
X126111Y33909
X130746Y35497
X130461Y17526
X127794Y9557
X125539Y15113
X127571Y17717
X125031Y26289
X132080Y26543
X131953Y24892
X124282Y38245
X124980Y34562
X125012Y29164
X131394Y30243
X131521Y32148
X132791Y39197
X131699Y4445
X125349Y4445
X123444Y4445
X130556Y3111
X125381Y13049
X129806Y29227
X125996Y29227
X128536Y31767
X125996Y31767
X127254Y37148
X123710Y39134
X129921Y26479
X130746Y36005
X128270Y2540
X132652Y23177
X133237Y10033
X125988Y1460
X125984Y39180
X123582Y23495
X126493Y1460
X126492Y39180
X123888Y23082
X126998Y1460
X126997Y39180
X124179Y20860
X127503Y1460
X127508Y39180
X124673Y23717
X128007Y1460
X128013Y39180
X131301Y24733
X128512Y1460
X128518Y39180
X128429Y37168
X130536Y25202
X129017Y1460
X128999Y38947
X131699Y24384
X129522Y1460
X129480Y39180
X132132Y23951
X129984Y39180
X125017Y19433
X128841Y3175
X130489Y39180
X124477Y20447
X125297Y10795
X128841Y3746
X125043Y38672
X125043Y39180
X124988Y1397
X131509Y1397
X131509Y39180
X131512Y38672
X129953Y18479
X128270Y18161
X124458Y22098
X125017Y18928
X125875Y18572
X129413Y35751
X129413Y35243
X125031Y27114
X125031Y27686
X130492Y25908
X130492Y26416
X124988Y1968
X131509Y1968
X132017Y38683
X132017Y39180
X132652Y572
X133096Y572
X131636Y3238
X131636Y2731
X129413Y9779
X130746Y10414
X124523Y39180
X123888Y572
X128905Y38259
X131128Y34544
X131522Y20094
X132488Y21781
X132488Y22352
X131111Y19287
X130345Y18800
X130458Y18296
X126113Y25146
X125539Y26734
X125603Y14065
X127476Y15875
X126359Y18865
X125017Y18423
X128016Y7609
X128968Y7620
X129857Y10247
X130683Y11049
X130461Y15684
X129413Y26225
X129032Y16447
X129413Y5461
X125476Y9906
X132080Y27559
X126821Y9843
X131522Y19590
X130746Y14160
X130746Y12700
X132120Y32142
X136656Y1651
X142216Y1651
X142113Y2159
X142177Y38926
X142177Y38481
X136689Y38936
X136696Y38435
X136772Y2159
X139891Y8128
X136906Y11239
X144336Y7556
X134557Y7620
X139446Y12700
X139446Y22098
X141637Y16415
X141415Y14986
X140399Y16955
X137287Y33909
X141923Y35497
X141637Y17526
X138970Y9557
X136716Y15113
X138748Y17717
X136208Y26289
X143256Y26543
X143129Y24892
X135458Y38245
X136156Y34562
X136188Y29164
X142570Y30243
X142697Y32148
X143967Y39197
X142875Y4445
X136525Y4445
X134620Y4445
X141732Y3111
X136557Y13049
X140982Y29227
X137172Y29227
X139712Y31767
X137172Y31767
X138430Y37148
X134886Y39134
X141097Y26479
X141923Y36005
X139446Y2540
X143828Y23177
X144413Y10033
X137164Y1460
X137160Y39180
X134758Y23495
X137669Y1460
X137668Y39180
X135065Y23082
X138174Y1460
X138173Y39180
X135355Y20860
X138679Y1460
X138684Y39180
X135849Y23717
X139184Y1460
X139189Y39180
X142477Y24733
X139688Y1460
X139694Y39180
X139605Y37168
X141712Y25202
X140193Y1460
X140175Y38947
X142875Y24384
X140698Y1460
X140656Y39180
X143308Y23951
X141161Y39180
X136193Y19433
X140018Y3175
X141665Y39180
X135653Y20447
X136473Y10795
X140018Y3746
X136219Y38672
X136219Y39180
X136164Y1397
X142685Y1397
X142685Y39180
X142688Y38672
X141129Y18479
X139446Y18161
X135634Y22098
X136193Y18928
X137051Y18572
X140589Y35751
X140589Y35243
X136208Y27114
X136208Y27686
X141669Y25908
X141669Y26416
X136164Y1968
X142685Y1968
X143193Y38683
X143193Y39180
X143828Y572
X144272Y572
X142812Y3238
X142812Y2731
X140589Y9779
X141923Y10414
X135700Y39180
X135065Y572
X140081Y38259
X142304Y34544
X142698Y20094
X143664Y21781
X143664Y22352
X142287Y19287
X141521Y18800
X141634Y18296
X137289Y25146
X136715Y26734
X136779Y14065
X138652Y15875
X137535Y18865
X136193Y18423
X139192Y7609
X140145Y7620
X141034Y10247
X141859Y11049
X141637Y15684
X140589Y26225
X140208Y16447
X140589Y5461
X136652Y9906
X143256Y27559
X137997Y9843
X142698Y19590
X141923Y14160
X141923Y12700
X143296Y32142
X147832Y1651
X153392Y1651
X153289Y2159
X153353Y38926
X153353Y38481
X147865Y38936
X147872Y38435
X147948Y2159
X151067Y8128
X148082Y11239
X155512Y7556
X145733Y7620
X150622Y12700
X150622Y22098
X152813Y16415
X152591Y14986
X151575Y16955
X148463Y33909
X153099Y35497
X152813Y17526
X150146Y9557
X147892Y15113
X149924Y17717
X147384Y26289
X154432Y26543
X154305Y24892
X146634Y38245
X147332Y34562
X147364Y29164
X153746Y30243
X153873Y32148
X155143Y39197
X154051Y4445
X147701Y4445
X145796Y4445
X152908Y3111
X147733Y13049
X152158Y29227
X148348Y29227
X150888Y31767
X148348Y31767
X149606Y37148
X146062Y39134
X152273Y26479
X153099Y36005
X150622Y2540
X155004Y23177
X155589Y10033
X148340Y1460
X148336Y39180
X145934Y23495
X148845Y1460
X148844Y39180
X146241Y23082
X149350Y1460
X149349Y39180
X146531Y20860
X149855Y1460
X149860Y39180
X147025Y23717
X150360Y1460
X150365Y39180
X153653Y24733
X150864Y1460
X150870Y39180
X150781Y37168
X152888Y25202
X151369Y1460
X151351Y38947
X154051Y24384
X151874Y1460
X151832Y39180
X154484Y23951
X152337Y39180
X147369Y19433
X151194Y3175
X152841Y39180
X146829Y20447
X147649Y10795
X151194Y3746
X147395Y38672
X147395Y39180
X147340Y1397
X153861Y1397
X153861Y39180
X153864Y38672
X152305Y18479
X150622Y18161
X146810Y22098
X147369Y18928
X148227Y18572
X151765Y35751
X151765Y35243
X147384Y27114
X147384Y27686
X152845Y25908
X152845Y26416
X147340Y1968
X153861Y1968
X154369Y38683
X154369Y39180
X155004Y572
X155448Y572
X153988Y3238
X153988Y2731
X151765Y9779
X153099Y10414
X146876Y39180
X146241Y572
X151257Y38259
X153480Y34544
X153874Y20094
X154840Y21781
X154840Y22352
X153463Y19287
X152697Y18800
X152810Y18296
X148465Y25146
X147891Y26734
X147955Y14065
X149828Y15875
X148711Y18865
X147369Y18423
X150368Y7609
X151321Y7620
X152210Y10247
X153035Y11049
X152813Y15684
X151765Y26225
X151384Y16447
X151765Y5461
X147828Y9906
X154432Y27559
X149173Y9843
X153874Y19590
X153099Y14160
X153099Y12700
X154472Y32142
X159008Y1651
X164568Y1651
X164465Y2159
X164529Y38926
X164529Y38481
X159041Y38936
X159048Y38435
X159124Y2159
X162243Y8128
X159258Y11239
X166688Y7556
X156909Y7620
X161798Y12700
X161798Y22098
X163989Y16415
X163767Y14986
X162751Y16955
X159639Y33909
X164275Y35497
X163989Y17526
X161322Y9557
X159068Y15113
X161100Y17717
X158560Y26289
X165608Y26543
X165481Y24892
X157810Y38245
X158508Y34562
X158540Y29164
X164922Y30243
X165049Y32148
X166319Y39197
X165227Y4445
X158877Y4445
X156972Y4445
X164084Y3111
X158909Y13049
X163334Y29227
X159524Y29227
X162064Y31767
X159524Y31767
X160782Y37148
X157238Y39134
X163449Y26479
X164275Y36005
X161798Y2540
X166180Y23177
X166765Y10033
X159516Y1460
X159512Y39180
X157110Y23495
X160021Y1460
X160020Y39180
X157417Y23082
X160526Y1460
X160525Y39180
X157707Y20860
X161031Y1460
X161036Y39180
X158201Y23717
X161536Y1460
X161541Y39180
X164829Y24733
X162040Y1460
X162046Y39180
X161957Y37168
X164064Y25202
X162545Y1460
X162527Y38947
X165227Y24384
X163050Y1460
X163008Y39180
X165660Y23951
X163513Y39180
X158545Y19433
X162370Y3175
X164017Y39180
X158005Y20447
X158825Y10795
X162370Y3746
X158571Y38672
X158571Y39180
X158516Y1397
X165037Y1397
X165037Y39180
X165040Y38672
X163481Y18479
X161798Y18161
X157986Y22098
X158545Y18928
X159403Y18572
X162941Y35751
X162941Y35243
X158560Y27114
X158560Y27686
X164021Y25908
X164021Y26416
X158516Y1968
X165037Y1968
X165545Y38683
X165545Y39180
X166180Y572
X166624Y572
X165164Y3238
X165164Y2731
X162941Y9779
X164275Y10414
X158052Y39180
X157417Y572
X162433Y38259
X164656Y34544
X165050Y20094
X166016Y21781
X166016Y22352
X164639Y19287
X163873Y18800
X163986Y18296
X159641Y25146
X159067Y26734
X159131Y14065
X161004Y15875
X159887Y18865
X158545Y18423
X161544Y7609
X162497Y7620
X163386Y10247
X164211Y11049
X163989Y15684
X162941Y26225
X162560Y16447
X162941Y5461
X159004Y9906
X165608Y27559
X160349Y9843
X165050Y19590
X164275Y14160
X164275Y12700
X165648Y32142
X170184Y1651
X175744Y1651
X175641Y2159
X175704Y38926
X175704Y38481
X170217Y38936
X170224Y38435
X170300Y2159
X173419Y8128
X170434Y11239
X177863Y7556
X168085Y7620
X172974Y12700
X172974Y22098
X175165Y16415
X174942Y14986
X173927Y16955
X170815Y33909
X175450Y35497
X175165Y17526
X172498Y9557
X170244Y15113
X172276Y17717
X169736Y26289
X176784Y26543
X176657Y24892
X168986Y38245
X169684Y34562
X169716Y29164
X176098Y30243
X176225Y32148
X177495Y39197
X176403Y4445
X170053Y4445
X168148Y4445
X175260Y3111
X170085Y13049
X174510Y29227
X170700Y29227
X173240Y31767
X170700Y31767
X171958Y37148
X168414Y39134
X174625Y26479
X175450Y36005
X172974Y2540
X177355Y23177
X177941Y10033
X170692Y1460
X170688Y39180
X168286Y23495
X171197Y1460
X171196Y39180
X168593Y23082
X171702Y1460
X171701Y39180
X168883Y20860
X172207Y1460
X172212Y39180
X169377Y23717
X172712Y1460
X172717Y39180
X176005Y24733
X173216Y1460
X173222Y39180
X173133Y37168
X175240Y25202
X173721Y1460
X173703Y38947
X176403Y24384
X174226Y1460
X174184Y39180
X176836Y23951
X174689Y39180
X169721Y19433
X173546Y3175
X175193Y39180
X169181Y20447
X170001Y10795
X173546Y3746
X169747Y38672
X169747Y39180
X169692Y1397
X176212Y1397
X176212Y39180
X176216Y38672
X174657Y18479
X172974Y18161
X169162Y22098
X169721Y18928
X170579Y18572
X174117Y35751
X174117Y35243
X169736Y27114
X169736Y27686
X175196Y25908
X175196Y26416
X169692Y1968
X176212Y1968
X176720Y38683
X176720Y39180
X177355Y572
X177800Y572
X176339Y3238
X176339Y2731
X174117Y9779
X175450Y10414
X169228Y39180
X168593Y572
X173609Y38259
X175831Y34544
X176226Y20094
X177192Y21781
X177192Y22352
X175815Y19287
X175049Y18800
X175162Y18296
X170817Y25146
X170243Y26734
X170307Y14065
X172180Y15875
X171063Y18865
X169721Y18423
X172720Y7609
X173673Y7620
X174562Y10247
X175387Y11049
X175165Y15684
X174117Y26225
X173736Y16447
X174117Y5461
X170180Y9906
X176784Y27559
X171525Y9843
X176226Y19590
X175450Y14160
X175450Y12700
X176824Y32142
X8124Y80137
X2564Y80137
X2667Y79629
X2604Y42863
X2604Y43307
X8091Y42852
X8084Y43353
X8008Y79629
X4890Y73660
X7874Y70549
X444Y74232
X10224Y74168
X5334Y69088
X5334Y59690
X3143Y65373
X3365Y66802
X4382Y64833
X7493Y47879
X2857Y46291
X3143Y64262
X5810Y72231
X8064Y66675
X6032Y64071
X8573Y55499
X1524Y55245
X1651Y56896
X9322Y43544
X8624Y47226
X8592Y52624
X2210Y51544
X2083Y49639
X813Y42591
X1905Y77343
X8255Y77343
X10160Y77343
X3048Y78677
X8223Y68739
X3798Y52560
X7608Y52560
X5068Y50020
X7608Y50020
X6350Y44640
X9894Y42655
X3683Y55308
X2857Y45783
X5334Y79248
X952Y58610
X367Y71755
X7616Y80328
X7620Y42609
X10022Y58293
X7111Y80328
X7112Y42609
X9716Y58706
X6606Y80328
X6607Y42609
X9425Y60928
X6101Y80328
X6096Y42609
X8931Y58071
X5596Y80328
X5591Y42609
X2303Y57055
X5092Y80328
X5086Y42609
X5175Y44620
X3068Y56586
X4587Y80328
X4605Y42841
X1905Y57404
X4082Y80328
X4124Y42609
X1472Y57837
X3619Y42609
X8587Y62355
X4763Y78613
X3115Y42609
X9127Y61341
X8307Y70993
X4763Y78042
X8561Y43117
X8561Y42609
X8616Y80391
X2096Y80391
X2096Y42609
X2092Y43117
X3651Y63309
X5334Y63627
X9146Y59690
X8587Y62860
X7729Y63216
X4191Y46037
X4191Y46545
X8573Y54673
X8573Y54102
X3111Y55880
X3111Y55372
X8616Y79820
X2096Y79820
X1587Y43105
X1587Y42609
X952Y81217
X508Y81217
X1968Y78550
X1968Y79058
X4191Y72009
X2857Y71374
X9081Y42609
X9716Y81217
X4699Y43529
X2477Y47244
X2082Y61694
X1116Y60007
X1116Y59436
X2493Y62501
X3259Y62988
X3146Y63492
X7491Y56642
X8065Y55054
X8001Y67723
X6128Y65913
X7245Y62923
X8587Y63365
X5588Y74179
X4636Y74168
X3746Y71541
X2921Y70739
X3143Y66104
X4191Y55562
X4572Y65341
X4191Y76327
X8128Y71882
X1524Y54229
X6783Y71946
X2082Y62198
X2857Y67628
X2857Y69088
X1484Y49646
X19300Y80137
X13740Y80137
X13843Y79629
X13779Y42863
X13779Y43307
X19267Y42852
X19260Y43353
X19184Y79629
X16065Y73660
X19050Y70549
X11620Y74232
X21400Y74168
X16510Y69088
X16510Y59690
X14319Y65373
X14541Y66802
X15557Y64833
X18669Y47879
X14033Y46291
X14319Y64262
X16986Y72231
X19241Y66675
X17209Y64071
X19749Y55499
X12700Y55245
X12827Y56896
X20498Y43544
X19800Y47226
X19768Y52624
X13386Y51544
X13259Y49639
X11989Y42591
X13081Y77343
X19431Y77343
X21336Y77343
X14224Y78677
X19399Y68739
X14974Y52560
X18784Y52560
X16244Y50020
X18784Y50020
X17526Y44640
X21070Y42655
X14859Y55308
X14033Y45783
X16510Y79248
X12128Y58610
X11543Y71755
X18792Y80328
X18796Y42609
X21198Y58293
X18287Y80328
X18288Y42609
X20892Y58706
X17782Y80328
X17783Y42609
X20601Y60928
X17277Y80328
X17272Y42609
X20107Y58071
X16773Y80328
X16767Y42609
X13479Y57055
X16268Y80328
X16262Y42609
X16351Y44620
X14244Y56586
X15763Y80328
X15781Y42841
X13081Y57404
X15258Y80328
X15300Y42609
X12648Y57837
X14795Y42609
X19763Y62355
X15938Y78613
X14291Y42609
X20303Y61341
X19483Y70993
X15938Y78042
X19737Y43117
X19737Y42609
X19792Y80391
X13271Y80391
X13271Y42609
X13268Y43117
X14827Y63309
X16510Y63627
X20322Y59690
X19763Y62860
X18905Y63216
X15367Y46037
X15367Y46545
X19749Y54673
X19749Y54102
X14287Y55880
X14287Y55372
X19792Y79820
X13271Y79820
X12763Y43105
X12763Y42609
X12128Y81217
X11684Y81217
X13144Y78550
X13144Y79058
X15367Y72009
X14033Y71374
X20257Y42609
X20892Y81217
X15875Y43529
X13652Y47244
X13258Y61694
X12292Y60007
X12292Y59436
X13669Y62501
X14435Y62988
X14322Y63492
X18667Y56642
X19241Y55054
X19177Y67723
X17304Y65913
X18421Y62923
X19763Y63365
X16764Y74179
X15811Y74168
X14922Y71541
X14097Y70739
X14319Y66104
X15367Y55562
X15748Y65341
X15367Y76327
X19304Y71882
X12700Y54229
X17959Y71946
X13258Y62198
X14033Y67628
X14033Y69088
X12660Y49646
X30476Y80137
X24916Y80137
X25019Y79629
X24955Y42863
X24955Y43307
X30443Y42852
X30436Y43353
X30360Y79629
X27241Y73660
X30226Y70549
X22796Y74232
X32575Y74168
X27686Y69088
X27686Y59690
X25495Y65373
X25717Y66802
X26733Y64833
X29845Y47879
X25209Y46291
X25495Y64262
X28162Y72231
X30416Y66675
X28384Y64071
X30924Y55499
X23876Y55245
X24003Y56896
X31674Y43544
X30976Y47226
X30944Y52624
X24562Y51544
X24435Y49639
X23165Y42591
X24257Y77343
X30607Y77343
X32512Y77343
X25400Y78677
X30575Y68739
X26150Y52560
X29960Y52560
X27420Y50020
X29960Y50020
X28702Y44640
X32246Y42655
X26035Y55308
X25209Y45783
X27686Y79248
X23304Y58610
X22719Y71755
X29968Y80328
X29972Y42609
X32374Y58293
X29463Y80328
X29464Y42609
X32067Y58706
X28958Y80328
X28959Y42609
X31777Y60928
X28453Y80328
X28448Y42609
X31283Y58071
X27948Y80328
X27943Y42609
X24655Y57055
X27444Y80328
X27438Y42609
X27527Y44620
X25420Y56586
X26939Y80328
X26957Y42841
X24257Y57404
X26434Y80328
X26476Y42609
X23824Y57837
X25971Y42609
X30939Y62355
X27114Y78613
X25467Y42609
X31479Y61341
X30659Y70993
X27114Y78042
X30913Y43117
X30913Y42609
X30968Y80391
X24447Y80391
X24447Y42609
X24444Y43117
X26003Y63309
X27686Y63627
X31498Y59690
X30939Y62860
X30081Y63216
X26543Y46037
X26543Y46545
X30924Y54673
X30924Y54102
X25463Y55880
X25463Y55372
X30968Y79820
X24447Y79820
X23939Y43105
X23939Y42609
X23304Y81217
X22860Y81217
X24320Y78550
X24320Y79058
X26543Y72009
X25209Y71374
X31432Y42609
X32067Y81217
X27051Y43529
X24828Y47244
X24434Y61694
X23468Y60007
X23468Y59436
X24845Y62501
X25611Y62988
X25498Y63492
X29843Y56642
X30417Y55054
X30353Y67723
X28480Y65913
X29597Y62923
X30939Y63365
X27940Y74179
X26987Y74168
X26098Y71541
X25273Y70739
X25495Y66104
X26543Y55562
X26924Y65341
X26543Y76327
X30480Y71882
X23876Y54229
X29135Y71946
X24434Y62198
X25209Y67628
X25209Y69088
X23836Y49646
X41652Y80137
X36092Y80137
X36195Y79629
X36132Y42863
X36132Y43307
X41619Y42852
X41612Y43353
X41536Y79629
X38418Y73660
X41402Y70549
X33973Y74232
X43751Y74168
X38862Y69088
X38862Y59690
X36671Y65373
X36894Y66802
X37910Y64833
X41021Y47879
X36386Y46291
X36671Y64262
X39338Y72231
X41593Y66675
X39561Y64071
X42101Y55499
X35052Y55245
X35179Y56896
X42850Y43544
X42152Y47226
X42120Y52624
X35738Y51544
X35611Y49639
X34341Y42591
X35433Y77343
X41783Y77343
X43688Y77343
X36576Y78677
X41751Y68739
X37326Y52560
X41136Y52560
X38596Y50020
X41136Y50020
X39878Y44640
X43422Y42655
X37211Y55308
X36386Y45783
X38862Y79248
X34481Y58610
X33895Y71755
X41144Y80328
X41148Y42609
X43550Y58293
X40639Y80328
X40640Y42609
X43244Y58706
X40134Y80328
X40135Y42609
X42953Y60928
X39629Y80328
X39624Y42609
X42459Y58071
X39125Y80328
X39119Y42609
X35831Y57055
X38620Y80328
X38614Y42609
X38703Y44620
X36596Y56586
X38115Y80328
X38133Y42841
X35433Y57404
X37610Y80328
X37652Y42609
X35000Y57837
X37148Y42609
X42115Y62355
X38291Y78613
X36643Y42609
X42655Y61341
X41835Y70993
X38291Y78042
X42089Y43117
X42089Y42609
X42144Y80391
X35624Y80391
X35624Y42609
X35620Y43117
X37179Y63309
X38862Y63627
X42674Y59690
X42115Y62860
X41257Y63216
X37719Y46037
X37719Y46545
X42101Y54673
X42101Y54102
X36640Y55880
X36640Y55372
X42144Y79820
X35624Y79820
X35116Y43105
X35116Y42609
X34481Y81217
X34036Y81217
X35497Y78550
X35497Y79058
X37719Y72009
X36386Y71374
X42609Y42609
X43244Y81217
X38227Y43529
X36005Y47244
X35610Y61694
X34644Y60007
X34644Y59436
X36021Y62501
X36787Y62988
X36674Y63492
X41019Y56642
X41593Y55054
X41529Y67723
X39656Y65913
X40773Y62923
X42115Y63365
X39116Y74179
X38164Y74168
X37275Y71541
X36449Y70739
X36671Y66104
X37719Y55562
X38100Y65341
X37719Y76327
X41656Y71882
X35052Y54229
X40311Y71946
X35610Y62198
X36386Y67628
X36386Y69088
X35012Y49646
X52828Y80137
X47268Y80137
X47371Y79629
X47307Y42863
X47307Y43307
X52795Y42852
X52788Y43353
X52712Y79629
X49593Y73660
X52578Y70549
X45148Y74232
X54927Y74168
X50038Y69088
X50038Y59690
X47847Y65373
X48069Y66802
X49085Y64833
X52197Y47879
X47561Y46291
X47847Y64262
X50514Y72231
X52768Y66675
X50736Y64071
X53276Y55499
X46228Y55245
X46355Y56896
X54026Y43544
X53328Y47226
X53296Y52624
X46914Y51544
X46787Y49639
X45517Y42591
X46609Y77343
X52959Y77343
X54864Y77343
X47752Y78677
X52927Y68739
X48502Y52560
X52312Y52560
X49772Y50020
X52312Y50020
X51054Y44640
X54598Y42655
X48387Y55308
X47561Y45783
X50038Y79248
X45656Y58610
X45071Y71755
X52320Y80328
X52324Y42609
X54726Y58293
X51815Y80328
X51816Y42609
X54419Y58706
X51310Y80328
X51311Y42609
X54129Y60928
X50805Y80328
X50800Y42609
X53635Y58071
X50300Y80328
X50295Y42609
X47007Y57055
X49796Y80328
X49790Y42609
X49879Y44620
X47772Y56586
X49291Y80328
X49309Y42841
X46609Y57404
X48786Y80328
X48828Y42609
X46176Y57837
X48323Y42609
X53291Y62355
X49466Y78613
X47819Y42609
X53831Y61341
X53011Y70993
X49466Y78042
X53265Y43117
X53265Y42609
X53320Y80391
X46799Y80391
X46799Y42609
X46796Y43117
X48355Y63309
X50038Y63627
X53850Y59690
X53291Y62860
X52433Y63216
X48895Y46037
X48895Y46545
X53276Y54673
X53276Y54102
X47815Y55880
X47815Y55372
X53320Y79820
X46799Y79820
X46291Y43105
X46291Y42609
X45656Y81217
X45212Y81217
X46672Y78550
X46672Y79058
X48895Y72009
X47561Y71374
X53784Y42609
X54419Y81217
X49403Y43529
X47180Y47244
X46786Y61694
X45820Y60007
X45820Y59436
X47197Y62501
X47963Y62988
X47850Y63492
X52195Y56642
X52769Y55054
X52705Y67723
X50832Y65913
X51949Y62923
X53291Y63365
X50292Y74179
X49339Y74168
X48450Y71541
X47625Y70739
X47847Y66104
X48895Y55562
X49276Y65341
X48895Y76327
X52832Y71882
X46228Y54229
X51487Y71946
X46786Y62198
X47561Y67628
X47561Y69088
X46188Y49646
X64004Y80137
X58444Y80137
X58547Y79629
X58483Y42863
X58483Y43307
X63971Y42852
X63964Y43353
X63888Y79629
X60769Y73660
X63754Y70549
X56324Y74232
X66104Y74168
X61214Y69088
X61214Y59690
X59023Y65373
X59245Y66802
X60261Y64833
X63373Y47879
X58737Y46291
X59023Y64262
X61690Y72231
X63944Y66675
X61912Y64071
X64452Y55499
X57404Y55245
X57531Y56896
X65202Y43544
X64504Y47226
X64472Y52624
X58090Y51544
X57963Y49639
X56693Y42591
X57785Y77343
X64135Y77343
X66040Y77343
X58928Y78677
X64103Y68739
X59678Y52560
X63488Y52560
X60948Y50020
X63488Y50020
X62230Y44640
X65774Y42655
X59563Y55308
X58737Y45783
X61214Y79248
X56832Y58610
X56247Y71755
X63496Y80328
X63500Y42609
X65902Y58293
X62991Y80328
X62992Y42609
X65596Y58706
X62486Y80328
X62487Y42609
X65305Y60928
X61981Y80328
X61976Y42609
X64811Y58071
X61476Y80328
X61471Y42609
X58183Y57055
X60972Y80328
X60966Y42609
X61055Y44620
X58948Y56586
X60467Y80328
X60485Y42841
X57785Y57404
X59962Y80328
X60004Y42609
X57352Y57837
X59499Y42609
X64467Y62355
X60642Y78613
X58995Y42609
X65007Y61341
X64187Y70993
X60642Y78042
X64441Y43117
X64441Y42609
X64496Y80391
X57975Y80391
X57975Y42609
X57972Y43117
X59531Y63309
X61214Y63627
X65026Y59690
X64467Y62860
X63609Y63216
X60071Y46037
X60071Y46545
X64452Y54673
X64452Y54102
X58991Y55880
X58991Y55372
X64496Y79820
X57975Y79820
X57467Y43105
X57467Y42609
X56832Y81217
X56388Y81217
X57848Y78550
X57848Y79058
X60071Y72009
X58737Y71374
X64960Y42609
X65596Y81217
X60579Y43529
X58356Y47244
X57962Y61694
X56996Y60007
X56996Y59436
X58373Y62501
X59139Y62988
X59026Y63492
X63371Y56642
X63945Y55054
X63881Y67723
X62008Y65913
X63125Y62923
X64467Y63365
X61468Y74179
X60515Y74168
X59626Y71541
X58801Y70739
X59023Y66104
X60071Y55562
X60452Y65341
X60071Y76327
X64008Y71882
X57404Y54229
X62663Y71946
X57962Y62198
X58737Y67628
X58737Y69088
X57364Y49646
X75180Y80137
X69620Y80137
X69723Y79629
X69660Y42863
X69660Y43307
X75147Y42852
X75140Y43353
X75064Y79629
X71946Y73660
X74930Y70549
X67501Y74232
X77280Y74168
X72390Y69088
X72390Y59690
X70199Y65373
X70422Y66802
X71438Y64833
X74549Y47879
X69914Y46291
X70199Y64262
X72866Y72231
X75121Y66675
X73089Y64071
X75629Y55499
X68580Y55245
X68707Y56896
X76378Y43544
X75680Y47226
X75648Y52624
X69266Y51544
X69139Y49639
X67869Y42591
X68961Y77343
X75311Y77343
X77216Y77343
X70104Y78677
X75279Y68739
X70854Y52560
X74664Y52560
X72124Y50020
X74664Y50020
X73406Y44640
X76950Y42655
X70739Y55308
X69914Y45783
X72390Y79248
X68009Y58610
X67423Y71755
X74672Y80328
X74676Y42609
X77078Y58293
X74167Y80328
X74168Y42609
X76772Y58706
X73662Y80328
X73663Y42609
X76481Y60928
X73157Y80328
X73152Y42609
X75987Y58071
X72653Y80328
X72647Y42609
X69359Y57055
X72148Y80328
X72142Y42609
X72231Y44620
X70124Y56586
X71643Y80328
X71661Y42841
X68961Y57404
X71138Y80328
X71180Y42609
X68528Y57837
X70676Y42609
X75643Y62355
X71819Y78613
X70171Y42609
X76183Y61341
X75363Y70993
X71819Y78042
X75617Y43117
X75617Y42609
X75672Y80391
X69152Y80391
X69152Y42609
X69148Y43117
X70707Y63309
X72390Y63627
X76202Y59690
X75643Y62860
X74785Y63216
X71247Y46037
X71247Y46545
X75629Y54673
X75629Y54102
X70168Y55880
X70168Y55372
X75672Y79820
X69152Y79820
X68644Y43105
X68644Y42609
X68009Y81217
X67564Y81217
X69025Y78550
X69025Y79058
X71247Y72009
X69914Y71374
X76137Y42609
X76772Y81217
X71755Y43529
X69533Y47244
X69138Y61694
X68172Y60007
X68172Y59436
X69549Y62501
X70315Y62988
X70202Y63492
X74547Y56642
X75121Y55054
X75057Y67723
X73184Y65913
X74301Y62923
X75643Y63365
X72644Y74179
X71692Y74168
X70803Y71541
X69977Y70739
X70199Y66104
X71247Y55562
X71628Y65341
X71247Y76327
X75184Y71882
X68580Y54229
X73839Y71946
X69138Y62198
X69914Y67628
X69914Y69088
X68540Y49646
X86356Y80137
X80796Y80137
X80899Y79629
X80836Y42863
X80836Y43307
X86323Y42852
X86316Y43353
X86240Y79629
X83122Y73660
X86106Y70549
X78677Y74232
X88455Y74168
X83566Y69088
X83566Y59690
X81375Y65373
X81598Y66802
X82614Y64833
X85725Y47879
X81090Y46291
X81375Y64262
X84042Y72231
X86297Y66675
X84265Y64071
X86805Y55499
X79756Y55245
X79883Y56896
X87554Y43544
X86856Y47226
X86824Y52624
X80442Y51544
X80315Y49639
X79045Y42591
X80137Y77343
X86487Y77343
X88392Y77343
X81280Y78677
X86455Y68739
X82030Y52560
X85840Y52560
X83300Y50020
X85840Y50020
X84582Y44640
X88126Y42655
X81915Y55308
X81090Y45783
X83566Y79248
X79185Y58610
X78599Y71755
X85848Y80328
X85852Y42609
X88254Y58293
X85343Y80328
X85344Y42609
X87947Y58706
X84838Y80328
X84839Y42609
X87657Y60928
X84333Y80328
X84328Y42609
X87163Y58071
X83829Y80328
X83823Y42609
X80535Y57055
X83324Y80328
X83318Y42609
X83407Y44620
X81300Y56586
X82819Y80328
X82837Y42841
X80137Y57404
X82314Y80328
X82356Y42609
X79704Y57837
X81852Y42609
X86819Y62355
X82995Y78613
X81347Y42609
X87359Y61341
X86539Y70993
X82995Y78042
X86793Y43117
X86793Y42609
X86848Y80391
X80328Y80391
X80328Y42609
X80324Y43117
X81883Y63309
X83566Y63627
X87378Y59690
X86819Y62860
X85961Y63216
X82423Y46037
X82423Y46545
X86805Y54673
X86805Y54102
X81344Y55880
X81344Y55372
X86848Y79820
X80328Y79820
X79820Y43105
X79820Y42609
X79185Y81217
X78740Y81217
X80201Y78550
X80201Y79058
X82423Y72009
X81090Y71374
X87313Y42609
X87947Y81217
X82931Y43529
X80709Y47244
X80314Y61694
X79348Y60007
X79348Y59436
X80725Y62501
X81491Y62988
X81378Y63492
X85723Y56642
X86297Y55054
X86233Y67723
X84360Y65913
X85477Y62923
X86819Y63365
X83820Y74179
X82868Y74168
X81979Y71541
X81153Y70739
X81375Y66104
X82423Y55562
X82804Y65341
X82423Y76327
X86360Y71882
X79756Y54229
X85015Y71946
X80314Y62198
X81090Y67628
X81090Y69088
X79716Y49646
X97532Y80137
X91972Y80137
X92075Y79629
X92011Y42863
X92011Y43307
X97499Y42852
X97492Y43353
X97416Y79629
X94297Y73660
X97282Y70549
X89852Y74232
X99631Y74168
X94742Y69088
X94742Y59690
X92551Y65373
X92773Y66802
X93789Y64833
X96901Y47879
X92265Y46291
X92551Y64262
X95218Y72231
X97472Y66675
X95440Y64071
X97980Y55499
X90932Y55245
X91059Y56896
X98730Y43544
X98032Y47226
X98000Y52624
X91618Y51544
X91491Y49639
X90221Y42591
X91313Y77343
X97663Y77343
X99568Y77343
X92456Y78677
X97631Y68739
X93206Y52560
X97016Y52560
X94476Y50020
X97016Y50020
X95758Y44640
X99302Y42655
X93091Y55308
X92265Y45783
X94742Y79248
X90360Y58610
X89775Y71755
X97024Y80328
X97028Y42609
X99430Y58293
X96519Y80328
X96520Y42609
X99123Y58706
X96014Y80328
X96015Y42609
X98833Y60928
X95509Y80328
X95504Y42609
X98339Y58071
X95004Y80328
X94999Y42609
X91711Y57055
X94500Y80328
X94494Y42609
X94583Y44620
X92476Y56586
X93995Y80328
X94013Y42841
X91313Y57404
X93490Y80328
X93532Y42609
X90880Y57837
X93027Y42609
X97995Y62355
X94170Y78613
X92523Y42609
X98535Y61341
X97715Y70993
X94170Y78042
X97969Y43117
X97969Y42609
X98024Y80391
X91503Y80391
X91503Y42609
X91500Y43117
X93059Y63309
X94742Y63627
X98554Y59690
X97995Y62860
X97137Y63216
X93599Y46037
X93599Y46545
X97980Y54673
X97980Y54102
X92519Y55880
X92519Y55372
X98024Y79820
X91503Y79820
X90995Y43105
X90995Y42609
X90360Y81217
X89916Y81217
X91376Y78550
X91376Y79058
X93599Y72009
X92265Y71374
X98488Y42609
X99123Y81217
X94107Y43529
X91884Y47244
X91490Y61694
X90524Y60007
X90524Y59436
X91901Y62501
X92667Y62988
X92554Y63492
X96899Y56642
X97473Y55054
X97409Y67723
X95536Y65913
X96653Y62923
X97995Y63365
X94996Y74179
X94043Y74168
X93154Y71541
X92329Y70739
X92551Y66104
X93599Y55562
X93980Y65341
X93599Y76327
X97536Y71882
X90932Y54229
X96191Y71946
X91490Y62198
X92265Y67628
X92265Y69088
X90892Y49646
X108708Y80137
X103148Y80137
X103251Y79629
X103187Y42863
X103187Y43307
X2544Y1651
X108668Y43353
X108592Y79629
X105473Y73660
X108458Y70549
X101028Y74232
X110807Y74168
X105918Y69088
X105918Y59690
X103727Y65373
X103949Y66802
X104965Y64833
X108077Y47879
X103441Y46291
X103727Y64262
X106394Y72231
X108648Y66675
X106616Y64071
X109156Y55499
X102108Y55245
X102235Y56896
X109906Y43544
X109208Y47226
X109176Y52624
X102794Y51544
X102667Y49639
X101397Y42591
X102489Y77343
X108839Y77343
X110744Y77343
X103632Y78677
X108807Y68739
X104382Y52560
X108192Y52560
X105652Y50020
X108192Y50020
X106934Y44640
X110478Y42655
X104267Y55308
X103441Y45783
X105918Y79248
X101536Y58610
X100951Y71755
X108200Y80328
X108204Y42609
X110606Y58293
X107695Y80328
X107696Y42609
X110299Y58706
X107190Y80328
X107191Y42609
X110009Y60928
X106685Y80328
X106680Y42609
X109515Y58071
X106180Y80328
X106175Y42609
X102887Y57055
X105676Y80328
X105670Y42609
X105759Y44620
X103652Y56586
X105171Y80328
X105189Y42841
X102489Y57404
X104666Y80328
X104708Y42609
X102056Y57837
X104203Y42609
X109171Y62355
X105346Y78613
X103699Y42609
X109711Y61341
X108891Y70993
X105346Y78042
X109145Y43117
X109145Y42609
X109200Y80391
X102679Y80391
X102679Y42609
X102676Y43117
X104235Y63309
X105918Y63627
X109730Y59690
X109171Y62860
X108313Y63216
X104775Y46037
X104775Y46545
X109156Y54673
X109156Y54102
X103695Y55880
X103695Y55372
X109200Y79820
X102679Y79820
X102171Y43105
X102171Y42609
X101536Y81217
X101092Y81217
X102552Y78550
X102552Y79058
X104775Y72009
X103441Y71374
X109664Y42609
X110299Y81217
X105283Y43529
X103060Y47244
X102666Y61694
X101700Y60007
X101700Y59436
X103077Y62501
X103843Y62988
X103730Y63492
X108075Y56642
X108649Y55054
X108585Y67723
X106712Y65913
X107829Y62923
X109171Y63365
X106172Y74179
X105219Y74168
X104330Y71541
X103505Y70739
X103727Y66104
X104775Y55562
X105156Y65341
X104775Y76327
X108712Y71882
X102108Y54229
X107367Y71946
X102666Y62198
X103441Y67628
X103441Y69088
X102068Y49646
X119884Y80137
X114324Y80137
X114427Y79629
X114363Y42863
X114363Y43307
X119851Y42852
X119844Y43353
X119768Y79629
X116649Y73660
X119634Y70549
X112204Y74232
X121983Y74168
X117094Y69088
X117094Y59690
X114903Y65373
X115125Y66802
X116141Y64833
X119253Y47879
X114617Y46291
X114903Y64262
X117570Y72231
X119824Y66675
X117792Y64071
X120332Y55499
X113284Y55245
X113411Y56896
X121082Y43544
X120384Y47226
X120352Y52624
X113970Y51544
X113843Y49639
X112573Y42591
X113665Y77343
X120015Y77343
X121920Y77343
X114808Y78677
X119983Y68739
X115558Y52560
X119368Y52560
X116828Y50020
X119368Y50020
X118110Y44640
X121654Y42655
X115443Y55308
X114617Y45783
X117094Y79248
X112712Y58610
X112127Y71755
X119376Y80328
X119380Y42609
X121782Y58293
X118871Y80328
X118872Y42609
X121475Y58706
X118366Y80328
X118367Y42609
X121185Y60928
X117861Y80328
X117856Y42609
X120691Y58071
X117356Y80328
X117351Y42609
X114063Y57055
X116852Y80328
X116846Y42609
X116935Y44620
X114828Y56586
X116347Y80328
X116365Y42841
X113665Y57404
X115842Y80328
X115884Y42609
X113232Y57837
X115379Y42609
X120347Y62355
X116522Y78613
X114875Y42609
X120887Y61341
X120067Y70993
X116522Y78042
X120321Y43117
X120321Y42609
X120376Y80391
X113855Y80391
X113855Y42609
X113852Y43117
X115411Y63309
X117094Y63627
X120906Y59690
X120347Y62860
X119489Y63216
X115951Y46037
X115951Y46545
X120332Y54673
X120332Y54102
X114871Y55880
X114871Y55372
X120376Y79820
X113855Y79820
X113347Y43105
X113347Y42609
X112712Y81217
X112268Y81217
X113728Y78550
X113728Y79058
X115951Y72009
X114617Y71374
X120840Y42609
X121475Y81217
X116459Y43529
X114236Y47244
X113842Y61694
X112876Y60007
X112876Y59436
X114253Y62501
X115019Y62988
X114906Y63492
X119251Y56642
X119825Y55054
X119761Y67723
X117888Y65913
X119005Y62923
X120347Y63365
X117348Y74179
X116395Y74168
X115506Y71541
X114681Y70739
X114903Y66104
X115951Y55562
X116332Y65341
X115951Y76327
X119888Y71882
X113284Y54229
X118543Y71946
X113842Y62198
X114617Y67628
X114617Y69088
X113244Y49646
X131060Y80137
X125500Y80137
X125603Y79629
X125539Y42863
X125539Y43307
X131027Y42852
X131020Y43353
X130944Y79629
X127825Y73660
X130810Y70549
X123380Y74232
X133160Y74168
X128270Y69088
X128270Y59690
X126079Y65373
X126301Y66802
X127317Y64833
X130429Y47879
X125793Y46291
X126079Y64262
X128746Y72231
X131000Y66675
X128968Y64071
X131509Y55499
X124460Y55245
X124587Y56896
X132258Y43544
X131560Y47226
X131528Y52624
X125146Y51544
X125019Y49639
X123749Y42591
X124841Y77343
X131191Y77343
X133096Y77343
X125984Y78677
X131159Y68739
X126734Y52560
X130544Y52560
X128004Y50020
X130544Y50020
X129286Y44640
X132830Y42655
X126619Y55308
X125793Y45783
X128270Y79248
X123888Y58610
X123303Y71755
X130552Y80328
X130556Y42609
X132958Y58293
X130047Y80328
X130048Y42609
X132652Y58706
X129542Y80328
X129543Y42609
X132361Y60928
X129037Y80328
X129032Y42609
X131867Y58071
X128532Y80328
X128527Y42609
X125239Y57055
X128028Y80328
X128022Y42609
X128111Y44620
X126004Y56586
X127523Y80328
X127541Y42841
X124841Y57404
X127018Y80328
X127060Y42609
X124408Y57837
X126555Y42609
X131523Y62355
X127698Y78613
X126051Y42609
X132063Y61341
X131243Y70993
X127698Y78042
X131497Y43117
X131497Y42609
X131552Y80391
X125031Y80391
X125031Y42609
X125028Y43117
X126587Y63309
X128270Y63627
X132082Y59690
X131523Y62860
X130665Y63216
X127127Y46037
X127127Y46545
X131509Y54673
X131509Y54102
X126047Y55880
X126047Y55372
X131552Y79820
X125031Y79820
X124523Y43105
X124523Y42609
X123888Y81217
X123444Y81217
X124904Y78550
X124904Y79058
X127127Y72009
X125793Y71374
X132017Y42609
X132652Y81217
X127635Y43529
X125412Y47244
X125018Y61694
X124052Y60007
X124052Y59436
X125429Y62501
X126195Y62988
X126082Y63492
X130427Y56642
X131001Y55054
X130937Y67723
X129064Y65913
X130181Y62923
X131523Y63365
X128524Y74179
X127571Y74168
X126682Y71541
X125857Y70739
X126079Y66104
X127127Y55562
X127508Y65341
X127127Y76327
X131064Y71882
X124460Y54229
X129719Y71946
X125018Y62198
X125793Y67628
X125793Y69088
X124420Y49646
X142236Y80137
X136676Y80137
X136779Y79629
X136716Y42863
X136716Y43307
X142203Y42852
X142196Y43353
X142120Y79629
X139002Y73660
X141986Y70549
X134557Y74232
X144336Y74168
X139446Y69088
X139446Y59690
X137255Y65373
X137478Y66802
X138494Y64833
X141605Y47879
X136970Y46291
X137255Y64262
X139922Y72231
X142177Y66675
X140145Y64071
X142685Y55499
X135636Y55245
X135763Y56896
X143434Y43544
X142736Y47226
X142704Y52624
X136322Y51544
X136195Y49639
X134925Y42591
X136017Y77343
X142367Y77343
X144272Y77343
X137160Y78677
X142335Y68739
X137910Y52560
X141720Y52560
X139180Y50020
X141720Y50020
X140462Y44640
X144006Y42655
X137795Y55308
X136970Y45783
X139446Y79248
X135065Y58610
X134479Y71755
X141728Y80328
X141732Y42609
X144134Y58293
X141223Y80328
X141224Y42609
X143828Y58706
X140718Y80328
X140719Y42609
X143537Y60928
X140213Y80328
X140208Y42609
X143043Y58071
X139709Y80328
X139703Y42609
X136415Y57055
X139204Y80328
X139198Y42609
X139287Y44620
X137180Y56586
X138699Y80328
X138717Y42841
X136017Y57404
X138194Y80328
X138236Y42609
X135584Y57837
X137732Y42609
X142699Y62355
X138875Y78613
X137227Y42609
X143239Y61341
X142419Y70993
X138875Y78042
X142673Y43117
X142673Y42609
X142728Y80391
X136208Y80391
X136208Y42609
X136204Y43117
X137763Y63309
X139446Y63627
X143258Y59690
X142699Y62860
X141841Y63216
X138303Y46037
X138303Y46545
X142685Y54673
X142685Y54102
X137224Y55880
X137224Y55372
X142728Y79820
X136208Y79820
X135700Y43105
X135700Y42609
X135065Y81217
X134620Y81217
X136081Y78550
X136081Y79058
X138303Y72009
X136970Y71374
X143193Y42609
X143828Y81217
X138811Y43529
X136589Y47244
X136194Y61694
X135228Y60007
X135228Y59436
X136605Y62501
X137371Y62988
X137258Y63492
X141603Y56642
X142177Y55054
X142113Y67723
X140240Y65913
X141357Y62923
X142699Y63365
X139700Y74179
X138748Y74168
X137859Y71541
X137033Y70739
X137255Y66104
X138303Y55562
X138684Y65341
X138303Y76327
X142240Y71882
X135636Y54229
X140895Y71946
X136194Y62198
X136970Y67628
X136970Y69088
X135596Y49646
X153412Y80137
X147852Y80137
X147955Y79629
X147892Y42863
X147892Y43307
X153379Y42852
X153372Y43353
X153296Y79629
X150178Y73660
X153162Y70549
X145733Y74232
X155512Y74168
X150622Y69088
X150622Y59690
X148431Y65373
X148654Y66802
X149670Y64833
X152781Y47879
X148146Y46291
X148431Y64262
X151098Y72231
X153353Y66675
X151321Y64071
X153861Y55499
X146812Y55245
X146939Y56896
X154610Y43544
X153912Y47226
X153880Y52624
X108675Y42852
X147371Y49639
X146101Y42591
X147193Y77343
X153543Y77343
X155448Y77343
X148336Y78677
X153511Y68739
X149086Y52560
X152896Y52560
X150356Y50020
X152896Y50020
X151638Y44640
X155182Y42655
X148971Y55308
X148146Y45783
X150622Y79248
X146241Y58610
X145655Y71755
X152904Y80328
X152908Y42609
X155310Y58293
X152399Y80328
X152400Y42609
X155004Y58706
X151894Y80328
X151895Y42609
X154713Y60928
X151389Y80328
X151384Y42609
X154219Y58071
X150885Y80328
X150879Y42609
X147591Y57055
X150380Y80328
X150374Y42609
X150463Y44620
X148356Y56586
X149875Y80328
X149893Y42841
X147193Y57404
X149370Y80328
X149412Y42609
X146760Y57837
X148908Y42609
X153875Y62355
X150051Y78613
X148403Y42609
X154415Y61341
X153595Y70993
X150051Y78042
X153849Y43117
X153849Y42609
X153904Y80391
X147384Y80391
X147384Y42609
X147380Y43117
X148939Y63309
X150622Y63627
X154434Y59690
X153875Y62860
X153017Y63216
X149479Y46037
X149479Y46545
X153861Y54673
X153861Y54102
X148400Y55880
X148400Y55372
X153904Y79820
X147384Y79820
X146876Y43105
X146876Y42609
X146241Y81217
X145796Y81217
X147257Y78550
X147257Y79058
X149479Y72009
X148146Y71374
X154369Y42609
X155004Y81217
X149987Y43529
X147765Y47244
X147370Y61694
X146404Y60007
X146404Y59436
X147781Y62501
X148547Y62988
X148434Y63492
X152779Y56642
X153353Y55054
X153289Y67723
X151416Y65913
X152533Y62923
X153875Y63365
X150876Y74179
X149924Y74168
X149035Y71541
X148209Y70739
X148431Y66104
X149479Y55562
X149860Y65341
X149479Y76327
X153416Y71882
X146812Y54229
X152071Y71946
X147370Y62198
X148146Y67628
X148146Y69088
X146772Y49646
X164588Y80137
X159028Y80137
X159131Y79629
X159068Y42863
X159068Y43307
X164555Y42852
X164548Y43353
X164472Y79629
X161354Y73660
X164338Y70549
X156909Y74232
X166688Y74168
X161798Y69088
X161798Y59690
X159607Y65373
X159830Y66802
X160846Y64833
X163957Y47879
X159322Y46291
X159607Y64262
X162274Y72231
X164529Y66675
X162497Y64071
X165037Y55499
X157988Y55245
X158115Y56896
X165786Y43544
X165088Y47226
X165056Y52624
X158674Y51544
X158547Y49639
X157277Y42591
X158369Y77343
X164719Y77343
X166624Y77343
X159512Y78677
X164687Y68739
X160262Y52560
X164072Y52560
X161532Y50020
X164072Y50020
X162814Y44640
X166358Y42655
X160147Y55308
X159322Y45783
X161798Y79248
X157417Y58610
X156831Y71755
X164080Y80328
X164084Y42609
X166486Y58293
X163575Y80328
X163576Y42609
X166180Y58706
X163070Y80328
X163071Y42609
X165889Y60928
X162565Y80328
X162560Y42609
X165395Y58071
X162061Y80328
X162055Y42609
X158767Y57055
X161556Y80328
X161550Y42609
X161639Y44620
X159532Y56586
X161051Y80328
X161069Y42841
X158369Y57404
X160546Y80328
X160588Y42609
X157936Y57837
X160084Y42609
X165051Y62355
X161227Y78613
X159579Y42609
X165591Y61341
X164771Y70993
X161227Y78042
X165025Y43117
X165025Y42609
X165080Y80391
X158560Y80391
X158560Y42609
X158556Y43117
X160115Y63309
X161798Y63627
X165610Y59690
X165051Y62860
X164193Y63216
X160655Y46037
X160655Y46545
X165037Y54673
X165037Y54102
X159576Y55880
X159576Y55372
X165080Y79820
X158560Y79820
X158052Y43105
X158052Y42609
X157417Y81217
X156972Y81217
X158433Y78550
X158433Y79058
X160655Y72009
X159322Y71374
X165545Y42609
X166180Y81217
X161163Y43529
X158941Y47244
X158546Y61694
X157580Y60007
X157580Y59436
X158957Y62501
X159723Y62988
X159610Y63492
X163955Y56642
X164529Y55054
X164465Y67723
X162592Y65913
X163709Y62923
X165051Y63365
X162052Y74179
X161100Y74168
X160211Y71541
X159385Y70739
X159607Y66104
X160655Y55562
X161036Y65341
X160655Y76327
X164592Y71882
X157988Y54229
X163247Y71946
X158546Y62198
X159322Y67628
X159322Y69088
X157948Y49646
X175764Y80137
X170204Y80137
X170307Y79629
X170244Y42863
X170244Y43307
X175731Y42852
X175724Y43353
X175648Y79629
X172530Y73660
X175514Y70549
X168085Y74232
X177863Y74168
X172974Y69088
X172974Y59690
X170783Y65373
X171006Y66802
X172022Y64833
X175133Y47879
X170498Y46291
X170783Y64262
X173450Y72231
X175704Y66675
X173673Y64071
X176212Y55499
X169164Y55245
X169291Y56896
X176962Y43544
X176264Y47226
X176232Y52624
X169850Y51544
X169723Y49639
X168453Y42591
X169545Y77343
X175895Y77343
X177800Y77343
X170688Y78677
X175863Y68739
X171438Y52560
X175248Y52560
X172708Y50020
X175248Y50020
X173990Y44640
X177534Y42655
X171323Y55308
X170498Y45783
X172974Y79248
X168593Y58610
X168007Y71755
X175256Y80328
X175260Y42609
X177662Y58293
X174751Y80328
X174752Y42609
X177355Y58706
X174246Y80328
X174247Y42609
X177065Y60928
X173741Y80328
X173736Y42609
X176571Y58071
X173237Y80328
X173231Y42609
X169943Y57055
X172732Y80328
X172726Y42609
X172815Y44620
X170708Y56586
X172227Y80328
X172245Y42841
X169545Y57404
X171722Y80328
X171764Y42609
X169112Y57837
X171260Y42609
X176227Y62355
X172403Y78613
X170755Y42609
X176767Y61341
X175947Y70993
X172403Y78042
X176201Y43117
X176201Y42609
X176256Y80391
X169736Y80391
X169736Y42609
X169732Y43117
X171291Y63309
X172974Y63627
X176786Y59690
X176227Y62860
X175369Y63216
X171831Y46037
X171831Y46545
X176212Y54673
X176212Y54102
X170752Y55880
X170752Y55372
X176256Y79820
X169736Y79820
X169228Y43105
X169228Y42609
X168593Y81217
X168148Y81217
X169609Y78550
X169609Y79058
X171831Y72009
X170498Y71374
X176720Y42609
X177355Y81217
X172339Y43529
X170117Y47244
X169722Y61694
X168756Y60007
X168756Y59436
X170133Y62501
X170899Y62988
X170786Y63492
X175131Y56642
X175705Y55054
X175641Y67723
X173768Y65913
X174885Y62923
X176227Y63365
X173228Y74179
X172276Y74168
X171387Y71541
X170561Y70739
X170783Y66104
X171831Y55562
X172212Y65341
X171831Y76327
X175768Y71882
X169164Y54229
X174423Y71946
X169722Y62198
X170498Y67628
X170498Y69088
X169124Y49646
X8104Y1651
X8001Y2159
X8064Y38926
X8064Y38481
X2577Y38936
X2584Y38435
X2660Y2159
X5778Y8128
X2794Y11239
X10224Y7556
X444Y7620
X5334Y12700
X5334Y22098
X7525Y16415
X7302Y14986
X6286Y16955
X3175Y33909
X7810Y35497
X7525Y17526
X4858Y9557
X2604Y15113
X4636Y17717
X2096Y26289
X9144Y26543
X9017Y24892
X1346Y38245
X2044Y34562
X2076Y29164
X8458Y30243
X8585Y32148
X9855Y39197
X8763Y4445
X2413Y4445
X508Y4445
X7620Y3111
X2445Y13049
X6870Y29227
X3060Y29227
X5600Y31767
X3060Y31767
X4318Y37148
X774Y39134
X6985Y26479
X7810Y36005
X5334Y2540
X9716Y23177
X10301Y10033
X3052Y1460
X3048Y39180
X646Y23495
X3557Y1460
X3556Y39180
X952Y23082
X4062Y1460
X4061Y39180
X1243Y20860
X4567Y1460
X4572Y39180
X1737Y23717
X5072Y1460
X5077Y39180
X8365Y24733
X5576Y1460
X5582Y39180
X5493Y37168
X7600Y25202
X6081Y1460
X6063Y38947
X8763Y24384
X6586Y1460
X6544Y39180
X9196Y23951
X7048Y39180
X2081Y19433
X5905Y3175
X7553Y39180
X1541Y20447
X2361Y10795
X5905Y3746
X2107Y38672
X2107Y39180
X2052Y1397
X8573Y1397
X8573Y39180
X8576Y38672
X7017Y18479
X5334Y18161
X1522Y22098
X2081Y18928
X2939Y18572
X6477Y35751
X6477Y35243
X2096Y27114
X2096Y27686
X7556Y25908
X7556Y26416
X2052Y1968
X8573Y1968
X9081Y38683
X9081Y39180
X9716Y572
X10160Y572
X8700Y3238
X8700Y2731
X6477Y9779
X7810Y10414
X1587Y39180
X952Y572
X5969Y38259
X8191Y34544
X8586Y20094
X9552Y21781
X9552Y22352
X8175Y19287
X7409Y18800
X7522Y18296
X3177Y25146
X2603Y26734
X2667Y14065
X4540Y15875
X3423Y18865
X2081Y18423
X5080Y7609
X6032Y7620
X6921Y10247
X7747Y11049
X7525Y15684
X6477Y26225
X6096Y16447
X6477Y5461
X2540Y9906
X9144Y27559
X3885Y9843
X8586Y19590
X7810Y14160
X7810Y12700
X9184Y32142
X13720Y1651
X19280Y1651
X19177Y2159
X19241Y38926
X19241Y38481
X13753Y38936
X13760Y38435
X13836Y2159
X16955Y8128
X13970Y11239
X21400Y7556
X11620Y7620
X16510Y12700
X16510Y22098
X18701Y16415
X18479Y14986
X17463Y16955
X14351Y33909
X18987Y35497
X18701Y17526
X16034Y9557
X13779Y15113
X15811Y17717
X13271Y26289
X20320Y26543
X20193Y24892
X12522Y38245
X13220Y34562
X13252Y29164
X19634Y30243
X19761Y32148
X21031Y39197
X19939Y4445
X13589Y4445
X11684Y4445
X18796Y3111
X13621Y13049
X18046Y29227
X14236Y29227
X16776Y31767
X14236Y31767
X15494Y37148
X11950Y39134
X18161Y26479
X18987Y36005
X16510Y2540
X20892Y23177
X21477Y10033
X14228Y1460
X14224Y39180
X11822Y23495
X14733Y1460
X14732Y39180
X12128Y23082
X147498Y51544
M30