G04 EAGLE Gerber RS-274X export*
G75*
%MOMM*%
%FSLAX34Y34*%
%LPD*%
%INSolderpaste Bottom*%
%IPPOS*%
%AMOC8*
5,1,8,0,0,1.08239X$1,22.5*%
G01*
%ADD10R,0.400000X0.800000*%
%ADD11R,0.250000X0.650000*%
%ADD12R,0.600000X0.600000*%
%ADD13R,1.100000X1.200000*%
%ADD14R,0.660000X0.300000*%
%ADD15R,1.800000X1.000000*%
%ADD16R,1.200000X0.550000*%


D10*
X5840Y32455D03*
D11*
X15840Y7455D03*
X20840Y7455D03*
D10*
X100840Y32455D03*
D11*
X25840Y7455D03*
X30840Y7455D03*
X35840Y7455D03*
X40840Y7455D03*
X45840Y7455D03*
X50840Y7455D03*
X55840Y7455D03*
X60840Y7455D03*
X65840Y7455D03*
X70840Y7455D03*
X75840Y7455D03*
X80840Y7455D03*
X85840Y7455D03*
X90840Y7455D03*
D12*
X72945Y196215D03*
X62945Y196215D03*
D13*
X27825Y214980D03*
X27825Y231980D03*
X41825Y231980D03*
X41825Y214980D03*
D12*
X31830Y243840D03*
X41830Y243840D03*
X41830Y203200D03*
X31830Y203200D03*
X82233Y168673D03*
X82233Y178673D03*
X95885Y199788D03*
X95885Y209788D03*
X38180Y134620D03*
X48180Y134620D03*
X48180Y170180D03*
X38180Y170180D03*
X8573Y179308D03*
X8573Y169308D03*
X62865Y186293D03*
X62865Y176293D03*
X53260Y188278D03*
X43260Y188278D03*
D14*
X52380Y158900D03*
X33980Y152400D03*
X33980Y145900D03*
X33980Y158900D03*
X52380Y152400D03*
X52380Y145900D03*
D15*
X74930Y208480D03*
X74930Y233480D03*
D12*
X59690Y217725D03*
X59690Y207725D03*
X59690Y227410D03*
X59690Y237410D03*
X46275Y125095D03*
X36275Y125095D03*
X82233Y158670D03*
X82233Y148670D03*
X52705Y359965D03*
X52705Y349965D03*
X93900Y375920D03*
X83900Y375920D03*
X83900Y333375D03*
X93900Y333375D03*
D16*
X91106Y364465D03*
X91106Y354965D03*
X91106Y345465D03*
X65104Y345465D03*
X65104Y364465D03*
D10*
X117600Y32455D03*
D11*
X127600Y7455D03*
X132600Y7455D03*
D10*
X212600Y32455D03*
D11*
X137600Y7455D03*
X142600Y7455D03*
X147600Y7455D03*
X152600Y7455D03*
X157600Y7455D03*
X162600Y7455D03*
X167600Y7455D03*
X172600Y7455D03*
X177600Y7455D03*
X182600Y7455D03*
X187600Y7455D03*
X192600Y7455D03*
X197600Y7455D03*
X202600Y7455D03*
D12*
X184705Y196215D03*
X174705Y196215D03*
D13*
X139585Y214980D03*
X139585Y231980D03*
X153585Y231980D03*
X153585Y214980D03*
D12*
X143590Y243840D03*
X153590Y243840D03*
X153590Y203200D03*
X143590Y203200D03*
X193993Y168673D03*
X193993Y178673D03*
X207645Y199788D03*
X207645Y209788D03*
X149940Y134620D03*
X159940Y134620D03*
X159940Y170180D03*
X149940Y170180D03*
X120333Y179308D03*
X120333Y169308D03*
X174625Y186293D03*
X174625Y176293D03*
X165020Y188278D03*
X155020Y188278D03*
D14*
X164140Y158900D03*
X145740Y152400D03*
X145740Y145900D03*
X145740Y158900D03*
X164140Y152400D03*
X164140Y145900D03*
D15*
X186690Y208480D03*
X186690Y233480D03*
D12*
X171450Y217725D03*
X171450Y207725D03*
X171450Y227410D03*
X171450Y237410D03*
X158035Y125095D03*
X148035Y125095D03*
X193993Y158670D03*
X193993Y148670D03*
X164465Y359965D03*
X164465Y349965D03*
X205660Y375920D03*
X195660Y375920D03*
X195660Y333375D03*
X205660Y333375D03*
D16*
X202866Y364465D03*
X202866Y354965D03*
X202866Y345465D03*
X176864Y345465D03*
X176864Y364465D03*
D10*
X229360Y32455D03*
D11*
X239360Y7455D03*
X244360Y7455D03*
D10*
X324360Y32455D03*
D11*
X249360Y7455D03*
X254360Y7455D03*
X259360Y7455D03*
X264360Y7455D03*
X269360Y7455D03*
X274360Y7455D03*
X279360Y7455D03*
X284360Y7455D03*
X289360Y7455D03*
X294360Y7455D03*
X299360Y7455D03*
X304360Y7455D03*
X309360Y7455D03*
X314360Y7455D03*
D12*
X296465Y196215D03*
X286465Y196215D03*
D13*
X251345Y214980D03*
X251345Y231980D03*
X265345Y231980D03*
X265345Y214980D03*
D12*
X255350Y243840D03*
X265350Y243840D03*
X265350Y203200D03*
X255350Y203200D03*
X305753Y168673D03*
X305753Y178673D03*
X319405Y199788D03*
X319405Y209788D03*
X261700Y134620D03*
X271700Y134620D03*
X271700Y170180D03*
X261700Y170180D03*
X232093Y179308D03*
X232093Y169308D03*
X286385Y186293D03*
X286385Y176293D03*
X276780Y188278D03*
X266780Y188278D03*
D14*
X275900Y158900D03*
X257500Y152400D03*
X257500Y145900D03*
X257500Y158900D03*
X275900Y152400D03*
X275900Y145900D03*
D15*
X298450Y208480D03*
X298450Y233480D03*
D12*
X283210Y217725D03*
X283210Y207725D03*
X283210Y227410D03*
X283210Y237410D03*
X269795Y125095D03*
X259795Y125095D03*
X305753Y158670D03*
X305753Y148670D03*
X276225Y359965D03*
X276225Y349965D03*
X317420Y375920D03*
X307420Y375920D03*
X307420Y333375D03*
X317420Y333375D03*
D16*
X314626Y364465D03*
X314626Y354965D03*
X314626Y345465D03*
X288624Y345465D03*
X288624Y364465D03*
D10*
X341120Y32455D03*
D11*
X351120Y7455D03*
X356120Y7455D03*
D10*
X436120Y32455D03*
D11*
X361120Y7455D03*
X366120Y7455D03*
X371120Y7455D03*
X376120Y7455D03*
X381120Y7455D03*
X386120Y7455D03*
X391120Y7455D03*
X396120Y7455D03*
X401120Y7455D03*
X406120Y7455D03*
X411120Y7455D03*
X416120Y7455D03*
X421120Y7455D03*
X426120Y7455D03*
D12*
X408225Y196215D03*
X398225Y196215D03*
D13*
X363105Y214980D03*
X363105Y231980D03*
X377105Y231980D03*
X377105Y214980D03*
D12*
X367110Y243840D03*
X377110Y243840D03*
X377110Y203200D03*
X367110Y203200D03*
X417513Y168673D03*
X417513Y178673D03*
X431165Y199788D03*
X431165Y209788D03*
X373460Y134620D03*
X383460Y134620D03*
X383460Y170180D03*
X373460Y170180D03*
X343853Y179308D03*
X343853Y169308D03*
X398145Y186293D03*
X398145Y176293D03*
X388540Y188278D03*
X378540Y188278D03*
D14*
X387660Y158900D03*
X369260Y152400D03*
X369260Y145900D03*
X369260Y158900D03*
X387660Y152400D03*
X387660Y145900D03*
D15*
X410210Y208480D03*
X410210Y233480D03*
D12*
X394970Y217725D03*
X394970Y207725D03*
X394970Y227410D03*
X394970Y237410D03*
X381555Y125095D03*
X371555Y125095D03*
X417513Y158670D03*
X417513Y148670D03*
X387985Y359965D03*
X387985Y349965D03*
X429180Y375920D03*
X419180Y375920D03*
X419180Y333375D03*
X429180Y333375D03*
D16*
X426386Y364465D03*
X426386Y354965D03*
X426386Y345465D03*
X400384Y345465D03*
X400384Y364465D03*
D10*
X452880Y32455D03*
D11*
X462880Y7455D03*
X467880Y7455D03*
D10*
X547880Y32455D03*
D11*
X472880Y7455D03*
X477880Y7455D03*
X482880Y7455D03*
X487880Y7455D03*
X492880Y7455D03*
X497880Y7455D03*
X502880Y7455D03*
X507880Y7455D03*
X512880Y7455D03*
X517880Y7455D03*
X522880Y7455D03*
X527880Y7455D03*
X532880Y7455D03*
X537880Y7455D03*
D12*
X519985Y196215D03*
X509985Y196215D03*
D13*
X474865Y214980D03*
X474865Y231980D03*
X488865Y231980D03*
X488865Y214980D03*
D12*
X478870Y243840D03*
X488870Y243840D03*
X488870Y203200D03*
X478870Y203200D03*
X529273Y168673D03*
X529273Y178673D03*
X542925Y199788D03*
X542925Y209788D03*
X485220Y134620D03*
X495220Y134620D03*
X495220Y170180D03*
X485220Y170180D03*
X455613Y179308D03*
X455613Y169308D03*
X509905Y186293D03*
X509905Y176293D03*
X500300Y188278D03*
X490300Y188278D03*
D14*
X499420Y158900D03*
X481020Y152400D03*
X481020Y145900D03*
X481020Y158900D03*
X499420Y152400D03*
X499420Y145900D03*
D15*
X521970Y208480D03*
X521970Y233480D03*
D12*
X506730Y217725D03*
X506730Y207725D03*
X506730Y227410D03*
X506730Y237410D03*
X493315Y125095D03*
X483315Y125095D03*
X529273Y158670D03*
X529273Y148670D03*
X499745Y359965D03*
X499745Y349965D03*
X540940Y375920D03*
X530940Y375920D03*
X530940Y333375D03*
X540940Y333375D03*
D16*
X538146Y364465D03*
X538146Y354965D03*
X538146Y345465D03*
X512144Y345465D03*
X512144Y364465D03*
D10*
X564640Y32455D03*
D11*
X574640Y7455D03*
X579640Y7455D03*
D10*
X659640Y32455D03*
D11*
X584640Y7455D03*
X589640Y7455D03*
X594640Y7455D03*
X599640Y7455D03*
X604640Y7455D03*
X609640Y7455D03*
X614640Y7455D03*
X619640Y7455D03*
X624640Y7455D03*
X629640Y7455D03*
X634640Y7455D03*
X639640Y7455D03*
X644640Y7455D03*
X649640Y7455D03*
D12*
X631745Y196215D03*
X621745Y196215D03*
D13*
X586625Y214980D03*
X586625Y231980D03*
X600625Y231980D03*
X600625Y214980D03*
D12*
X590630Y243840D03*
X600630Y243840D03*
X600630Y203200D03*
X590630Y203200D03*
X641033Y168673D03*
X641033Y178673D03*
X654685Y199788D03*
X654685Y209788D03*
X596980Y134620D03*
X606980Y134620D03*
X606980Y170180D03*
X596980Y170180D03*
X567373Y179308D03*
X567373Y169308D03*
X621665Y186293D03*
X621665Y176293D03*
X612060Y188278D03*
X602060Y188278D03*
D14*
X611180Y158900D03*
X592780Y152400D03*
X592780Y145900D03*
X592780Y158900D03*
X611180Y152400D03*
X611180Y145900D03*
D15*
X633730Y208480D03*
X633730Y233480D03*
D12*
X618490Y217725D03*
X618490Y207725D03*
X618490Y227410D03*
X618490Y237410D03*
X605075Y125095D03*
X595075Y125095D03*
X641033Y158670D03*
X641033Y148670D03*
X611505Y359965D03*
X611505Y349965D03*
X652700Y375920D03*
X642700Y375920D03*
X642700Y333375D03*
X652700Y333375D03*
D16*
X649906Y364465D03*
X649906Y354965D03*
X649906Y345465D03*
X623904Y345465D03*
X623904Y364465D03*
D10*
X676400Y32455D03*
D11*
X686400Y7455D03*
X691400Y7455D03*
D10*
X771400Y32455D03*
D11*
X696400Y7455D03*
X701400Y7455D03*
X706400Y7455D03*
X711400Y7455D03*
X716400Y7455D03*
X721400Y7455D03*
X726400Y7455D03*
X731400Y7455D03*
X736400Y7455D03*
X741400Y7455D03*
X746400Y7455D03*
X751400Y7455D03*
X756400Y7455D03*
X761400Y7455D03*
D12*
X743505Y196215D03*
X733505Y196215D03*
D13*
X698385Y214980D03*
X698385Y231980D03*
X712385Y231980D03*
X712385Y214980D03*
D12*
X702390Y243840D03*
X712390Y243840D03*
X712390Y203200D03*
X702390Y203200D03*
X752793Y168673D03*
X752793Y178673D03*
X766445Y199788D03*
X766445Y209788D03*
X708740Y134620D03*
X718740Y134620D03*
X718740Y170180D03*
X708740Y170180D03*
X679133Y179308D03*
X679133Y169308D03*
X733425Y186293D03*
X733425Y176293D03*
X723820Y188278D03*
X713820Y188278D03*
D14*
X722940Y158900D03*
X704540Y152400D03*
X704540Y145900D03*
X704540Y158900D03*
X722940Y152400D03*
X722940Y145900D03*
D15*
X745490Y208480D03*
X745490Y233480D03*
D12*
X730250Y217725D03*
X730250Y207725D03*
X730250Y227410D03*
X730250Y237410D03*
X716835Y125095D03*
X706835Y125095D03*
X752793Y158670D03*
X752793Y148670D03*
X723265Y359965D03*
X723265Y349965D03*
X764460Y375920D03*
X754460Y375920D03*
X754460Y333375D03*
X764460Y333375D03*
D16*
X761666Y364465D03*
X761666Y354965D03*
X761666Y345465D03*
X735664Y345465D03*
X735664Y364465D03*
D10*
X788160Y32455D03*
D11*
X798160Y7455D03*
X803160Y7455D03*
D10*
X883160Y32455D03*
D11*
X808160Y7455D03*
X813160Y7455D03*
X818160Y7455D03*
X823160Y7455D03*
X828160Y7455D03*
X833160Y7455D03*
X838160Y7455D03*
X843160Y7455D03*
X848160Y7455D03*
X853160Y7455D03*
X858160Y7455D03*
X863160Y7455D03*
X868160Y7455D03*
X873160Y7455D03*
D12*
X855265Y196215D03*
X845265Y196215D03*
D13*
X810145Y214980D03*
X810145Y231980D03*
X824145Y231980D03*
X824145Y214980D03*
D12*
X814150Y243840D03*
X824150Y243840D03*
X824150Y203200D03*
X814150Y203200D03*
X864553Y168673D03*
X864553Y178673D03*
X878205Y199788D03*
X878205Y209788D03*
X820500Y134620D03*
X830500Y134620D03*
X830500Y170180D03*
X820500Y170180D03*
X790893Y179308D03*
X790893Y169308D03*
X845185Y186293D03*
X845185Y176293D03*
X835580Y188278D03*
X825580Y188278D03*
D14*
X834700Y158900D03*
X816300Y152400D03*
X816300Y145900D03*
X816300Y158900D03*
X834700Y152400D03*
X834700Y145900D03*
D15*
X857250Y208480D03*
X857250Y233480D03*
D12*
X842010Y217725D03*
X842010Y207725D03*
X842010Y227410D03*
X842010Y237410D03*
X828595Y125095D03*
X818595Y125095D03*
X864553Y158670D03*
X864553Y148670D03*
X835025Y359965D03*
X835025Y349965D03*
X876220Y375920D03*
X866220Y375920D03*
X866220Y333375D03*
X876220Y333375D03*
D16*
X873426Y364465D03*
X873426Y354965D03*
X873426Y345465D03*
X847424Y345465D03*
X847424Y364465D03*
D10*
X899920Y32455D03*
D11*
X909920Y7455D03*
X914920Y7455D03*
D10*
X994920Y32455D03*
D11*
X919920Y7455D03*
X924920Y7455D03*
X929920Y7455D03*
X934920Y7455D03*
X939920Y7455D03*
X944920Y7455D03*
X949920Y7455D03*
X954920Y7455D03*
X959920Y7455D03*
X964920Y7455D03*
X969920Y7455D03*
X974920Y7455D03*
X979920Y7455D03*
X984920Y7455D03*
D12*
X967025Y196215D03*
X957025Y196215D03*
D13*
X921905Y214980D03*
X921905Y231980D03*
X935905Y231980D03*
X935905Y214980D03*
D12*
X925910Y243840D03*
X935910Y243840D03*
X935910Y203200D03*
X925910Y203200D03*
X976313Y168673D03*
X976313Y178673D03*
X989965Y199788D03*
X989965Y209788D03*
X932260Y134620D03*
X942260Y134620D03*
X942260Y170180D03*
X932260Y170180D03*
X902653Y179308D03*
X902653Y169308D03*
X956945Y186293D03*
X956945Y176293D03*
X947340Y188278D03*
X937340Y188278D03*
D14*
X946460Y158900D03*
X928060Y152400D03*
X928060Y145900D03*
X928060Y158900D03*
X946460Y152400D03*
X946460Y145900D03*
D15*
X969010Y208480D03*
X969010Y233480D03*
D12*
X953770Y217725D03*
X953770Y207725D03*
X953770Y227410D03*
X953770Y237410D03*
X940355Y125095D03*
X930355Y125095D03*
X976313Y158670D03*
X976313Y148670D03*
X946785Y359965D03*
X946785Y349965D03*
X987980Y375920D03*
X977980Y375920D03*
X977980Y333375D03*
X987980Y333375D03*
D16*
X985186Y364465D03*
X985186Y354965D03*
X985186Y345465D03*
X959184Y345465D03*
X959184Y364465D03*
D10*
X1011680Y32455D03*
D11*
X1021680Y7455D03*
X1026680Y7455D03*
D10*
X1106680Y32455D03*
D11*
X1031680Y7455D03*
X1036680Y7455D03*
X1041680Y7455D03*
X1046680Y7455D03*
X1051680Y7455D03*
X1056680Y7455D03*
X1061680Y7455D03*
X1066680Y7455D03*
X1071680Y7455D03*
X1076680Y7455D03*
X1081680Y7455D03*
X1086680Y7455D03*
X1091680Y7455D03*
X1096680Y7455D03*
D12*
X1078785Y196215D03*
X1068785Y196215D03*
D13*
X1033665Y214980D03*
X1033665Y231980D03*
X1047665Y231980D03*
X1047665Y214980D03*
D12*
X1037670Y243840D03*
X1047670Y243840D03*
X1047670Y203200D03*
X1037670Y203200D03*
X1088073Y168673D03*
X1088073Y178673D03*
X1101725Y199788D03*
X1101725Y209788D03*
X1044020Y134620D03*
X1054020Y134620D03*
X1054020Y170180D03*
X1044020Y170180D03*
X1014413Y179308D03*
X1014413Y169308D03*
X1068705Y186293D03*
X1068705Y176293D03*
X1059100Y188278D03*
X1049100Y188278D03*
D14*
X1058220Y158900D03*
X1039820Y152400D03*
X1039820Y145900D03*
X1039820Y158900D03*
X1058220Y152400D03*
X1058220Y145900D03*
D15*
X1080770Y208480D03*
X1080770Y233480D03*
D12*
X1065530Y217725D03*
X1065530Y207725D03*
X1065530Y227410D03*
X1065530Y237410D03*
X1052115Y125095D03*
X1042115Y125095D03*
X1088073Y158670D03*
X1088073Y148670D03*
X1058545Y359965D03*
X1058545Y349965D03*
X1099740Y375920D03*
X1089740Y375920D03*
X1089740Y333375D03*
X1099740Y333375D03*
D16*
X1096946Y364465D03*
X1096946Y354965D03*
X1096946Y345465D03*
X1070944Y345465D03*
X1070944Y364465D03*
D10*
X1123440Y32455D03*
D11*
X1133440Y7455D03*
X1138440Y7455D03*
D10*
X1218440Y32455D03*
D11*
X1143440Y7455D03*
X1148440Y7455D03*
X1153440Y7455D03*
X1158440Y7455D03*
X1163440Y7455D03*
X1168440Y7455D03*
X1173440Y7455D03*
X1178440Y7455D03*
X1183440Y7455D03*
X1188440Y7455D03*
X1193440Y7455D03*
X1198440Y7455D03*
X1203440Y7455D03*
X1208440Y7455D03*
D12*
X1190545Y196215D03*
X1180545Y196215D03*
D13*
X1145425Y214980D03*
X1145425Y231980D03*
X1159425Y231980D03*
X1159425Y214980D03*
D12*
X1149430Y243840D03*
X1159430Y243840D03*
X1159430Y203200D03*
X1149430Y203200D03*
X1199833Y168673D03*
X1199833Y178673D03*
X1213485Y199788D03*
X1213485Y209788D03*
X1155780Y134620D03*
X1165780Y134620D03*
X1165780Y170180D03*
X1155780Y170180D03*
X1126173Y179308D03*
X1126173Y169308D03*
X1180465Y186293D03*
X1180465Y176293D03*
X1170860Y188278D03*
X1160860Y188278D03*
D14*
X1169980Y158900D03*
X1151580Y152400D03*
X1151580Y145900D03*
X1151580Y158900D03*
X1169980Y152400D03*
X1169980Y145900D03*
D15*
X1192530Y208480D03*
X1192530Y233480D03*
D12*
X1177290Y217725D03*
X1177290Y207725D03*
X1177290Y227410D03*
X1177290Y237410D03*
X1163875Y125095D03*
X1153875Y125095D03*
X1199833Y158670D03*
X1199833Y148670D03*
X1170305Y359965D03*
X1170305Y349965D03*
X1211500Y375920D03*
X1201500Y375920D03*
X1201500Y333375D03*
X1211500Y333375D03*
D16*
X1208706Y364465D03*
X1208706Y354965D03*
X1208706Y345465D03*
X1182704Y345465D03*
X1182704Y364465D03*
D10*
X1235200Y32455D03*
D11*
X1245200Y7455D03*
X1250200Y7455D03*
D10*
X1330200Y32455D03*
D11*
X1255200Y7455D03*
X1260200Y7455D03*
X1265200Y7455D03*
X1270200Y7455D03*
X1275200Y7455D03*
X1280200Y7455D03*
X1285200Y7455D03*
X1290200Y7455D03*
X1295200Y7455D03*
X1300200Y7455D03*
X1305200Y7455D03*
X1310200Y7455D03*
X1315200Y7455D03*
X1320200Y7455D03*
D12*
X1302305Y196215D03*
X1292305Y196215D03*
D13*
X1257185Y214980D03*
X1257185Y231980D03*
X1271185Y231980D03*
X1271185Y214980D03*
D12*
X1261190Y243840D03*
X1271190Y243840D03*
X1271190Y203200D03*
X1261190Y203200D03*
X1311593Y168673D03*
X1311593Y178673D03*
X1325245Y199788D03*
X1325245Y209788D03*
X1267540Y134620D03*
X1277540Y134620D03*
X1277540Y170180D03*
X1267540Y170180D03*
X1237933Y179308D03*
X1237933Y169308D03*
X1292225Y186293D03*
X1292225Y176293D03*
X1282620Y188278D03*
X1272620Y188278D03*
D14*
X1281740Y158900D03*
X1263340Y152400D03*
X1263340Y145900D03*
X1263340Y158900D03*
X1281740Y152400D03*
X1281740Y145900D03*
D15*
X1304290Y208480D03*
X1304290Y233480D03*
D12*
X1289050Y217725D03*
X1289050Y207725D03*
X1289050Y227410D03*
X1289050Y237410D03*
X1275635Y125095D03*
X1265635Y125095D03*
X1311593Y158670D03*
X1311593Y148670D03*
X1282065Y359965D03*
X1282065Y349965D03*
X1323260Y375920D03*
X1313260Y375920D03*
X1313260Y333375D03*
X1323260Y333375D03*
D16*
X1320466Y364465D03*
X1320466Y354965D03*
X1320466Y345465D03*
X1294464Y345465D03*
X1294464Y364465D03*
D10*
X1346960Y32455D03*
D11*
X1356960Y7455D03*
X1361960Y7455D03*
D10*
X1441960Y32455D03*
D11*
X1366960Y7455D03*
X1371960Y7455D03*
X1376960Y7455D03*
X1381960Y7455D03*
X1386960Y7455D03*
X1391960Y7455D03*
X1396960Y7455D03*
X1401960Y7455D03*
X1406960Y7455D03*
X1411960Y7455D03*
X1416960Y7455D03*
X1421960Y7455D03*
X1426960Y7455D03*
X1431960Y7455D03*
D12*
X1414065Y196215D03*
X1404065Y196215D03*
D13*
X1368945Y214980D03*
X1368945Y231980D03*
X1382945Y231980D03*
X1382945Y214980D03*
D12*
X1372950Y243840D03*
X1382950Y243840D03*
X1382950Y203200D03*
X1372950Y203200D03*
X1423353Y168673D03*
X1423353Y178673D03*
X1437005Y199788D03*
X1437005Y209788D03*
X1379300Y134620D03*
X1389300Y134620D03*
X1389300Y170180D03*
X1379300Y170180D03*
X1349693Y179308D03*
X1349693Y169308D03*
X1403985Y186293D03*
X1403985Y176293D03*
X1394380Y188278D03*
X1384380Y188278D03*
D14*
X1393500Y158900D03*
X1375100Y152400D03*
X1375100Y145900D03*
X1375100Y158900D03*
X1393500Y152400D03*
X1393500Y145900D03*
D15*
X1416050Y208480D03*
X1416050Y233480D03*
D12*
X1400810Y217725D03*
X1400810Y207725D03*
X1400810Y227410D03*
X1400810Y237410D03*
X1387395Y125095D03*
X1377395Y125095D03*
X1423353Y158670D03*
X1423353Y148670D03*
X1393825Y359965D03*
X1393825Y349965D03*
X1435020Y375920D03*
X1425020Y375920D03*
X1425020Y333375D03*
X1435020Y333375D03*
D16*
X1432226Y364465D03*
X1432226Y354965D03*
X1432226Y345465D03*
X1406224Y345465D03*
X1406224Y364465D03*
D10*
X1458720Y32455D03*
D11*
X1468720Y7455D03*
X1473720Y7455D03*
D10*
X1553720Y32455D03*
D11*
X1478720Y7455D03*
X1483720Y7455D03*
X1488720Y7455D03*
X1493720Y7455D03*
X1498720Y7455D03*
X1503720Y7455D03*
X1508720Y7455D03*
X1513720Y7455D03*
X1518720Y7455D03*
X1523720Y7455D03*
X1528720Y7455D03*
X1533720Y7455D03*
X1538720Y7455D03*
X1543720Y7455D03*
D12*
X1525825Y196215D03*
X1515825Y196215D03*
D13*
X1480705Y214980D03*
X1480705Y231980D03*
X1494705Y231980D03*
X1494705Y214980D03*
D12*
X1484710Y243840D03*
X1494710Y243840D03*
X1494710Y203200D03*
X1484710Y203200D03*
X1535113Y168673D03*
X1535113Y178673D03*
X1548765Y199788D03*
X1548765Y209788D03*
X1491060Y134620D03*
X1501060Y134620D03*
X1501060Y170180D03*
X1491060Y170180D03*
X1461453Y179308D03*
X1461453Y169308D03*
X1515745Y186293D03*
X1515745Y176293D03*
X1506140Y188278D03*
X1496140Y188278D03*
D14*
X1505260Y158900D03*
X1486860Y152400D03*
X1486860Y145900D03*
X1486860Y158900D03*
X1505260Y152400D03*
X1505260Y145900D03*
D15*
X1527810Y208480D03*
X1527810Y233480D03*
D12*
X1512570Y217725D03*
X1512570Y207725D03*
X1512570Y227410D03*
X1512570Y237410D03*
X1499155Y125095D03*
X1489155Y125095D03*
X1535113Y158670D03*
X1535113Y148670D03*
X1505585Y359965D03*
X1505585Y349965D03*
X1546780Y375920D03*
X1536780Y375920D03*
X1536780Y333375D03*
X1546780Y333375D03*
D16*
X1543986Y364465D03*
X1543986Y354965D03*
X1543986Y345465D03*
X1517984Y345465D03*
X1517984Y364465D03*
D10*
X1570480Y32455D03*
D11*
X1580480Y7455D03*
X1585480Y7455D03*
D10*
X1665480Y32455D03*
D11*
X1590480Y7455D03*
X1595480Y7455D03*
X1600480Y7455D03*
X1605480Y7455D03*
X1610480Y7455D03*
X1615480Y7455D03*
X1620480Y7455D03*
X1625480Y7455D03*
X1630480Y7455D03*
X1635480Y7455D03*
X1640480Y7455D03*
X1645480Y7455D03*
X1650480Y7455D03*
X1655480Y7455D03*
D12*
X1637585Y196215D03*
X1627585Y196215D03*
D13*
X1592465Y214980D03*
X1592465Y231980D03*
X1606465Y231980D03*
X1606465Y214980D03*
D12*
X1596470Y243840D03*
X1606470Y243840D03*
X1606470Y203200D03*
X1596470Y203200D03*
X1646873Y168673D03*
X1646873Y178673D03*
X1660525Y199788D03*
X1660525Y209788D03*
X1602820Y134620D03*
X1612820Y134620D03*
X1612820Y170180D03*
X1602820Y170180D03*
X1573213Y179308D03*
X1573213Y169308D03*
X1627505Y186293D03*
X1627505Y176293D03*
X1617900Y188278D03*
X1607900Y188278D03*
D14*
X1617020Y158900D03*
X1598620Y152400D03*
X1598620Y145900D03*
X1598620Y158900D03*
X1617020Y152400D03*
X1617020Y145900D03*
D15*
X1639570Y208480D03*
X1639570Y233480D03*
D12*
X1624330Y217725D03*
X1624330Y207725D03*
X1624330Y227410D03*
X1624330Y237410D03*
X1610915Y125095D03*
X1600915Y125095D03*
X1646873Y158670D03*
X1646873Y148670D03*
X1617345Y359965D03*
X1617345Y349965D03*
X1658540Y375920D03*
X1648540Y375920D03*
X1648540Y333375D03*
X1658540Y333375D03*
D16*
X1655746Y364465D03*
X1655746Y354965D03*
X1655746Y345465D03*
X1629744Y345465D03*
X1629744Y364465D03*
D10*
X1682240Y32455D03*
D11*
X1692240Y7455D03*
X1697240Y7455D03*
D10*
X1777240Y32455D03*
D11*
X1702240Y7455D03*
X1707240Y7455D03*
X1712240Y7455D03*
X1717240Y7455D03*
X1722240Y7455D03*
X1727240Y7455D03*
X1732240Y7455D03*
X1737240Y7455D03*
X1742240Y7455D03*
X1747240Y7455D03*
X1752240Y7455D03*
X1757240Y7455D03*
X1762240Y7455D03*
X1767240Y7455D03*
D12*
X1749345Y196215D03*
X1739345Y196215D03*
D13*
X1704225Y214980D03*
X1704225Y231980D03*
X1718225Y231980D03*
X1718225Y214980D03*
D12*
X1708230Y243840D03*
X1718230Y243840D03*
X1718230Y203200D03*
X1708230Y203200D03*
X1758633Y168673D03*
X1758633Y178673D03*
X1772285Y199788D03*
X1772285Y209788D03*
X1714580Y134620D03*
X1724580Y134620D03*
X1724580Y170180D03*
X1714580Y170180D03*
X1684973Y179308D03*
X1684973Y169308D03*
X1739265Y186293D03*
X1739265Y176293D03*
X1729660Y188278D03*
X1719660Y188278D03*
D14*
X1728780Y158900D03*
X1710380Y152400D03*
X1710380Y145900D03*
X1710380Y158900D03*
X1728780Y152400D03*
X1728780Y145900D03*
D15*
X1751330Y208480D03*
X1751330Y233480D03*
D12*
X1736090Y217725D03*
X1736090Y207725D03*
X1736090Y227410D03*
X1736090Y237410D03*
X1722675Y125095D03*
X1712675Y125095D03*
X1758633Y158670D03*
X1758633Y148670D03*
X1729105Y359965D03*
X1729105Y349965D03*
X1770300Y375920D03*
X1760300Y375920D03*
X1760300Y333375D03*
X1770300Y333375D03*
D16*
X1767506Y364465D03*
X1767506Y354965D03*
X1767506Y345465D03*
X1741504Y345465D03*
X1741504Y364465D03*
D10*
X100840Y785425D03*
D11*
X90840Y810425D03*
X85840Y810425D03*
D10*
X5840Y785425D03*
D11*
X80840Y810425D03*
X75840Y810425D03*
X70840Y810425D03*
X65840Y810425D03*
X60840Y810425D03*
X55840Y810425D03*
X50840Y810425D03*
X45840Y810425D03*
X40840Y810425D03*
X35840Y810425D03*
X30840Y810425D03*
X25840Y810425D03*
X20840Y810425D03*
X15840Y810425D03*
D12*
X33735Y621665D03*
X43735Y621665D03*
D13*
X78855Y602900D03*
X78855Y585900D03*
X64855Y585900D03*
X64855Y602900D03*
D12*
X74850Y574040D03*
X64850Y574040D03*
X64850Y614680D03*
X74850Y614680D03*
X24448Y649208D03*
X24448Y639208D03*
X10795Y618093D03*
X10795Y608093D03*
X68500Y683260D03*
X58500Y683260D03*
X58500Y647700D03*
X68500Y647700D03*
X98108Y638573D03*
X98108Y648573D03*
X43815Y631588D03*
X43815Y641588D03*
X53420Y629603D03*
X63420Y629603D03*
D14*
X54300Y658980D03*
X72700Y665480D03*
X72700Y671980D03*
X72700Y658980D03*
X54300Y665480D03*
X54300Y671980D03*
D15*
X31750Y609400D03*
X31750Y584400D03*
D12*
X46990Y600155D03*
X46990Y610155D03*
X46990Y590470D03*
X46990Y580470D03*
X60405Y692785D03*
X70405Y692785D03*
X24448Y659210D03*
X24448Y669210D03*
X53975Y457915D03*
X53975Y467915D03*
X12780Y441960D03*
X22780Y441960D03*
X22780Y484505D03*
X12780Y484505D03*
D16*
X15574Y453415D03*
X15574Y462915D03*
X15574Y472415D03*
X41576Y472415D03*
X41576Y453415D03*
D10*
X212600Y785425D03*
D11*
X202600Y810425D03*
X197600Y810425D03*
D10*
X117600Y785425D03*
D11*
X192600Y810425D03*
X187600Y810425D03*
X182600Y810425D03*
X177600Y810425D03*
X172600Y810425D03*
X167600Y810425D03*
X162600Y810425D03*
X157600Y810425D03*
X152600Y810425D03*
X147600Y810425D03*
X142600Y810425D03*
X137600Y810425D03*
X132600Y810425D03*
X127600Y810425D03*
D12*
X145495Y621665D03*
X155495Y621665D03*
D13*
X190615Y602900D03*
X190615Y585900D03*
X176615Y585900D03*
X176615Y602900D03*
D12*
X186610Y574040D03*
X176610Y574040D03*
X176610Y614680D03*
X186610Y614680D03*
X136208Y649208D03*
X136208Y639208D03*
X122555Y618093D03*
X122555Y608093D03*
X180260Y683260D03*
X170260Y683260D03*
X170260Y647700D03*
X180260Y647700D03*
X209868Y638573D03*
X209868Y648573D03*
X155575Y631588D03*
X155575Y641588D03*
X165180Y629603D03*
X175180Y629603D03*
D14*
X166060Y658980D03*
X184460Y665480D03*
X184460Y671980D03*
X184460Y658980D03*
X166060Y665480D03*
X166060Y671980D03*
D15*
X143510Y609400D03*
X143510Y584400D03*
D12*
X158750Y600155D03*
X158750Y610155D03*
X158750Y590470D03*
X158750Y580470D03*
X172165Y692785D03*
X182165Y692785D03*
X136208Y659210D03*
X136208Y669210D03*
X165735Y457915D03*
X165735Y467915D03*
X124540Y441960D03*
X134540Y441960D03*
X134540Y484505D03*
X124540Y484505D03*
D16*
X127334Y453415D03*
X127334Y462915D03*
X127334Y472415D03*
X153336Y472415D03*
X153336Y453415D03*
D10*
X324360Y785425D03*
D11*
X314360Y810425D03*
X309360Y810425D03*
D10*
X229360Y785425D03*
D11*
X304360Y810425D03*
X299360Y810425D03*
X294360Y810425D03*
X289360Y810425D03*
X284360Y810425D03*
X279360Y810425D03*
X274360Y810425D03*
X269360Y810425D03*
X264360Y810425D03*
X259360Y810425D03*
X254360Y810425D03*
X249360Y810425D03*
X244360Y810425D03*
X239360Y810425D03*
D12*
X257255Y621665D03*
X267255Y621665D03*
D13*
X302375Y602900D03*
X302375Y585900D03*
X288375Y585900D03*
X288375Y602900D03*
D12*
X298370Y574040D03*
X288370Y574040D03*
X288370Y614680D03*
X298370Y614680D03*
X247968Y649208D03*
X247968Y639208D03*
X234315Y618093D03*
X234315Y608093D03*
X292020Y683260D03*
X282020Y683260D03*
X282020Y647700D03*
X292020Y647700D03*
X321628Y638573D03*
X321628Y648573D03*
X267335Y631588D03*
X267335Y641588D03*
X276940Y629603D03*
X286940Y629603D03*
D14*
X277820Y658980D03*
X296220Y665480D03*
X296220Y671980D03*
X296220Y658980D03*
X277820Y665480D03*
X277820Y671980D03*
D15*
X255270Y609400D03*
X255270Y584400D03*
D12*
X270510Y600155D03*
X270510Y610155D03*
X270510Y590470D03*
X270510Y580470D03*
X283925Y692785D03*
X293925Y692785D03*
X247968Y659210D03*
X247968Y669210D03*
X277495Y457915D03*
X277495Y467915D03*
X236300Y441960D03*
X246300Y441960D03*
X246300Y484505D03*
X236300Y484505D03*
D16*
X239094Y453415D03*
X239094Y462915D03*
X239094Y472415D03*
X265096Y472415D03*
X265096Y453415D03*
D10*
X436120Y785425D03*
D11*
X426120Y810425D03*
X421120Y810425D03*
D10*
X341120Y785425D03*
D11*
X416120Y810425D03*
X411120Y810425D03*
X406120Y810425D03*
X401120Y810425D03*
X396120Y810425D03*
X391120Y810425D03*
X386120Y810425D03*
X381120Y810425D03*
X376120Y810425D03*
X371120Y810425D03*
X366120Y810425D03*
X361120Y810425D03*
X356120Y810425D03*
X351120Y810425D03*
D12*
X369015Y621665D03*
X379015Y621665D03*
D13*
X414135Y602900D03*
X414135Y585900D03*
X400135Y585900D03*
X400135Y602900D03*
D12*
X410130Y574040D03*
X400130Y574040D03*
X400130Y614680D03*
X410130Y614680D03*
X359728Y649208D03*
X359728Y639208D03*
X346075Y618093D03*
X346075Y608093D03*
X403780Y683260D03*
X393780Y683260D03*
X393780Y647700D03*
X403780Y647700D03*
X433388Y638573D03*
X433388Y648573D03*
X379095Y631588D03*
X379095Y641588D03*
X388700Y629603D03*
X398700Y629603D03*
D14*
X389580Y658980D03*
X407980Y665480D03*
X407980Y671980D03*
X407980Y658980D03*
X389580Y665480D03*
X389580Y671980D03*
D15*
X367030Y609400D03*
X367030Y584400D03*
D12*
X382270Y600155D03*
X382270Y610155D03*
X382270Y590470D03*
X382270Y580470D03*
X395685Y692785D03*
X405685Y692785D03*
X359728Y659210D03*
X359728Y669210D03*
X389255Y457915D03*
X389255Y467915D03*
X348060Y441960D03*
X358060Y441960D03*
X358060Y484505D03*
X348060Y484505D03*
D16*
X350854Y453415D03*
X350854Y462915D03*
X350854Y472415D03*
X376856Y472415D03*
X376856Y453415D03*
D10*
X547880Y785425D03*
D11*
X537880Y810425D03*
X532880Y810425D03*
D10*
X452880Y785425D03*
D11*
X527880Y810425D03*
X522880Y810425D03*
X517880Y810425D03*
X512880Y810425D03*
X507880Y810425D03*
X502880Y810425D03*
X497880Y810425D03*
X492880Y810425D03*
X487880Y810425D03*
X482880Y810425D03*
X477880Y810425D03*
X472880Y810425D03*
X467880Y810425D03*
X462880Y810425D03*
D12*
X480775Y621665D03*
X490775Y621665D03*
D13*
X525895Y602900D03*
X525895Y585900D03*
X511895Y585900D03*
X511895Y602900D03*
D12*
X521890Y574040D03*
X511890Y574040D03*
X511890Y614680D03*
X521890Y614680D03*
X471488Y649208D03*
X471488Y639208D03*
X457835Y618093D03*
X457835Y608093D03*
X515540Y683260D03*
X505540Y683260D03*
X505540Y647700D03*
X515540Y647700D03*
X545148Y638573D03*
X545148Y648573D03*
X490855Y631588D03*
X490855Y641588D03*
X500460Y629603D03*
X510460Y629603D03*
D14*
X501340Y658980D03*
X519740Y665480D03*
X519740Y671980D03*
X519740Y658980D03*
X501340Y665480D03*
X501340Y671980D03*
D15*
X478790Y609400D03*
X478790Y584400D03*
D12*
X494030Y600155D03*
X494030Y610155D03*
X494030Y590470D03*
X494030Y580470D03*
X507445Y692785D03*
X517445Y692785D03*
X471488Y659210D03*
X471488Y669210D03*
X501015Y457915D03*
X501015Y467915D03*
X459820Y441960D03*
X469820Y441960D03*
X469820Y484505D03*
X459820Y484505D03*
D16*
X462614Y453415D03*
X462614Y462915D03*
X462614Y472415D03*
X488616Y472415D03*
X488616Y453415D03*
D10*
X659640Y785425D03*
D11*
X649640Y810425D03*
X644640Y810425D03*
D10*
X564640Y785425D03*
D11*
X639640Y810425D03*
X634640Y810425D03*
X629640Y810425D03*
X624640Y810425D03*
X619640Y810425D03*
X614640Y810425D03*
X609640Y810425D03*
X604640Y810425D03*
X599640Y810425D03*
X594640Y810425D03*
X589640Y810425D03*
X584640Y810425D03*
X579640Y810425D03*
X574640Y810425D03*
D12*
X592535Y621665D03*
X602535Y621665D03*
D13*
X637655Y602900D03*
X637655Y585900D03*
X623655Y585900D03*
X623655Y602900D03*
D12*
X633650Y574040D03*
X623650Y574040D03*
X623650Y614680D03*
X633650Y614680D03*
X583248Y649208D03*
X583248Y639208D03*
X569595Y618093D03*
X569595Y608093D03*
X627300Y683260D03*
X617300Y683260D03*
X617300Y647700D03*
X627300Y647700D03*
X656908Y638573D03*
X656908Y648573D03*
X602615Y631588D03*
X602615Y641588D03*
X612220Y629603D03*
X622220Y629603D03*
D14*
X613100Y658980D03*
X631500Y665480D03*
X631500Y671980D03*
X631500Y658980D03*
X613100Y665480D03*
X613100Y671980D03*
D15*
X590550Y609400D03*
X590550Y584400D03*
D12*
X605790Y600155D03*
X605790Y610155D03*
X605790Y590470D03*
X605790Y580470D03*
X619205Y692785D03*
X629205Y692785D03*
X583248Y659210D03*
X583248Y669210D03*
X612775Y457915D03*
X612775Y467915D03*
X571580Y441960D03*
X581580Y441960D03*
X581580Y484505D03*
X571580Y484505D03*
D16*
X574374Y453415D03*
X574374Y462915D03*
X574374Y472415D03*
X600376Y472415D03*
X600376Y453415D03*
D10*
X771400Y785425D03*
D11*
X761400Y810425D03*
X756400Y810425D03*
D10*
X676400Y785425D03*
D11*
X751400Y810425D03*
X746400Y810425D03*
X741400Y810425D03*
X736400Y810425D03*
X731400Y810425D03*
X726400Y810425D03*
X721400Y810425D03*
X716400Y810425D03*
X711400Y810425D03*
X706400Y810425D03*
X701400Y810425D03*
X696400Y810425D03*
X691400Y810425D03*
X686400Y810425D03*
D12*
X704295Y621665D03*
X714295Y621665D03*
D13*
X749415Y602900D03*
X749415Y585900D03*
X735415Y585900D03*
X735415Y602900D03*
D12*
X745410Y574040D03*
X735410Y574040D03*
X735410Y614680D03*
X745410Y614680D03*
X695008Y649208D03*
X695008Y639208D03*
X681355Y618093D03*
X681355Y608093D03*
X739060Y683260D03*
X729060Y683260D03*
X729060Y647700D03*
X739060Y647700D03*
X768668Y638573D03*
X768668Y648573D03*
X714375Y631588D03*
X714375Y641588D03*
X723980Y629603D03*
X733980Y629603D03*
D14*
X724860Y658980D03*
X743260Y665480D03*
X743260Y671980D03*
X743260Y658980D03*
X724860Y665480D03*
X724860Y671980D03*
D15*
X702310Y609400D03*
X702310Y584400D03*
D12*
X717550Y600155D03*
X717550Y610155D03*
X717550Y590470D03*
X717550Y580470D03*
X730965Y692785D03*
X740965Y692785D03*
X695008Y659210D03*
X695008Y669210D03*
X724535Y457915D03*
X724535Y467915D03*
X683340Y441960D03*
X693340Y441960D03*
X693340Y484505D03*
X683340Y484505D03*
D16*
X686134Y453415D03*
X686134Y462915D03*
X686134Y472415D03*
X712136Y472415D03*
X712136Y453415D03*
D10*
X883160Y785425D03*
D11*
X873160Y810425D03*
X868160Y810425D03*
D10*
X788160Y785425D03*
D11*
X863160Y810425D03*
X858160Y810425D03*
X853160Y810425D03*
X848160Y810425D03*
X843160Y810425D03*
X838160Y810425D03*
X833160Y810425D03*
X828160Y810425D03*
X823160Y810425D03*
X818160Y810425D03*
X813160Y810425D03*
X808160Y810425D03*
X803160Y810425D03*
X798160Y810425D03*
D12*
X816055Y621665D03*
X826055Y621665D03*
D13*
X861175Y602900D03*
X861175Y585900D03*
X847175Y585900D03*
X847175Y602900D03*
D12*
X857170Y574040D03*
X847170Y574040D03*
X847170Y614680D03*
X857170Y614680D03*
X806768Y649208D03*
X806768Y639208D03*
X793115Y618093D03*
X793115Y608093D03*
X850820Y683260D03*
X840820Y683260D03*
X840820Y647700D03*
X850820Y647700D03*
X880428Y638573D03*
X880428Y648573D03*
X826135Y631588D03*
X826135Y641588D03*
X835740Y629603D03*
X845740Y629603D03*
D14*
X836620Y658980D03*
X855020Y665480D03*
X855020Y671980D03*
X855020Y658980D03*
X836620Y665480D03*
X836620Y671980D03*
D15*
X814070Y609400D03*
X814070Y584400D03*
D12*
X829310Y600155D03*
X829310Y610155D03*
X829310Y590470D03*
X829310Y580470D03*
X842725Y692785D03*
X852725Y692785D03*
X806768Y659210D03*
X806768Y669210D03*
X836295Y457915D03*
X836295Y467915D03*
X795100Y441960D03*
X805100Y441960D03*
X805100Y484505D03*
X795100Y484505D03*
D16*
X797894Y453415D03*
X797894Y462915D03*
X797894Y472415D03*
X823896Y472415D03*
X823896Y453415D03*
D10*
X994920Y785425D03*
D11*
X984920Y810425D03*
X979920Y810425D03*
D10*
X899920Y785425D03*
D11*
X974920Y810425D03*
X969920Y810425D03*
X964920Y810425D03*
X959920Y810425D03*
X954920Y810425D03*
X949920Y810425D03*
X944920Y810425D03*
X939920Y810425D03*
X934920Y810425D03*
X929920Y810425D03*
X924920Y810425D03*
X919920Y810425D03*
X914920Y810425D03*
X909920Y810425D03*
D12*
X927815Y621665D03*
X937815Y621665D03*
D13*
X972935Y602900D03*
X972935Y585900D03*
X958935Y585900D03*
X958935Y602900D03*
D12*
X968930Y574040D03*
X958930Y574040D03*
X958930Y614680D03*
X968930Y614680D03*
X918528Y649208D03*
X918528Y639208D03*
X904875Y618093D03*
X904875Y608093D03*
X962580Y683260D03*
X952580Y683260D03*
X952580Y647700D03*
X962580Y647700D03*
X992188Y638573D03*
X992188Y648573D03*
X937895Y631588D03*
X937895Y641588D03*
X947500Y629603D03*
X957500Y629603D03*
D14*
X948380Y658980D03*
X966780Y665480D03*
X966780Y671980D03*
X966780Y658980D03*
X948380Y665480D03*
X948380Y671980D03*
D15*
X925830Y609400D03*
X925830Y584400D03*
D12*
X941070Y600155D03*
X941070Y610155D03*
X941070Y590470D03*
X941070Y580470D03*
X954485Y692785D03*
X964485Y692785D03*
X918528Y659210D03*
X918528Y669210D03*
X948055Y457915D03*
X948055Y467915D03*
X906860Y441960D03*
X916860Y441960D03*
X916860Y484505D03*
X906860Y484505D03*
D16*
X909654Y453415D03*
X909654Y462915D03*
X909654Y472415D03*
X935656Y472415D03*
X935656Y453415D03*
D10*
X1106680Y785425D03*
D11*
X1096680Y810425D03*
X1091680Y810425D03*
D10*
X1011680Y785425D03*
D11*
X1086680Y810425D03*
X1081680Y810425D03*
X1076680Y810425D03*
X1071680Y810425D03*
X1066680Y810425D03*
X1061680Y810425D03*
X1056680Y810425D03*
X1051680Y810425D03*
X1046680Y810425D03*
X1041680Y810425D03*
X1036680Y810425D03*
X1031680Y810425D03*
X1026680Y810425D03*
X1021680Y810425D03*
D12*
X1039575Y621665D03*
X1049575Y621665D03*
D13*
X1084695Y602900D03*
X1084695Y585900D03*
X1070695Y585900D03*
X1070695Y602900D03*
D12*
X1080690Y574040D03*
X1070690Y574040D03*
X1070690Y614680D03*
X1080690Y614680D03*
X1030288Y649208D03*
X1030288Y639208D03*
X1016635Y618093D03*
X1016635Y608093D03*
X1074340Y683260D03*
X1064340Y683260D03*
X1064340Y647700D03*
X1074340Y647700D03*
X1103948Y638573D03*
X1103948Y648573D03*
X1049655Y631588D03*
X1049655Y641588D03*
X1059260Y629603D03*
X1069260Y629603D03*
D14*
X1060140Y658980D03*
X1078540Y665480D03*
X1078540Y671980D03*
X1078540Y658980D03*
X1060140Y665480D03*
X1060140Y671980D03*
D15*
X1037590Y609400D03*
X1037590Y584400D03*
D12*
X1052830Y600155D03*
X1052830Y610155D03*
X1052830Y590470D03*
X1052830Y580470D03*
X1066245Y692785D03*
X1076245Y692785D03*
X1030288Y659210D03*
X1030288Y669210D03*
X1059815Y457915D03*
X1059815Y467915D03*
X1018620Y441960D03*
X1028620Y441960D03*
X1028620Y484505D03*
X1018620Y484505D03*
D16*
X1021414Y453415D03*
X1021414Y462915D03*
X1021414Y472415D03*
X1047416Y472415D03*
X1047416Y453415D03*
D10*
X1218440Y785425D03*
D11*
X1208440Y810425D03*
X1203440Y810425D03*
D10*
X1123440Y785425D03*
D11*
X1198440Y810425D03*
X1193440Y810425D03*
X1188440Y810425D03*
X1183440Y810425D03*
X1178440Y810425D03*
X1173440Y810425D03*
X1168440Y810425D03*
X1163440Y810425D03*
X1158440Y810425D03*
X1153440Y810425D03*
X1148440Y810425D03*
X1143440Y810425D03*
X1138440Y810425D03*
X1133440Y810425D03*
D12*
X1151335Y621665D03*
X1161335Y621665D03*
D13*
X1196455Y602900D03*
X1196455Y585900D03*
X1182455Y585900D03*
X1182455Y602900D03*
D12*
X1192450Y574040D03*
X1182450Y574040D03*
X1182450Y614680D03*
X1192450Y614680D03*
X1142048Y649208D03*
X1142048Y639208D03*
X1128395Y618093D03*
X1128395Y608093D03*
X1186100Y683260D03*
X1176100Y683260D03*
X1176100Y647700D03*
X1186100Y647700D03*
X1215708Y638573D03*
X1215708Y648573D03*
X1161415Y631588D03*
X1161415Y641588D03*
X1171020Y629603D03*
X1181020Y629603D03*
D14*
X1171900Y658980D03*
X1190300Y665480D03*
X1190300Y671980D03*
X1190300Y658980D03*
X1171900Y665480D03*
X1171900Y671980D03*
D15*
X1149350Y609400D03*
X1149350Y584400D03*
D12*
X1164590Y600155D03*
X1164590Y610155D03*
X1164590Y590470D03*
X1164590Y580470D03*
X1178005Y692785D03*
X1188005Y692785D03*
X1142048Y659210D03*
X1142048Y669210D03*
X1171575Y457915D03*
X1171575Y467915D03*
X1130380Y441960D03*
X1140380Y441960D03*
X1140380Y484505D03*
X1130380Y484505D03*
D16*
X1133174Y453415D03*
X1133174Y462915D03*
X1133174Y472415D03*
X1159176Y472415D03*
X1159176Y453415D03*
D10*
X1330200Y785425D03*
D11*
X1320200Y810425D03*
X1315200Y810425D03*
D10*
X1235200Y785425D03*
D11*
X1310200Y810425D03*
X1305200Y810425D03*
X1300200Y810425D03*
X1295200Y810425D03*
X1290200Y810425D03*
X1285200Y810425D03*
X1280200Y810425D03*
X1275200Y810425D03*
X1270200Y810425D03*
X1265200Y810425D03*
X1260200Y810425D03*
X1255200Y810425D03*
X1250200Y810425D03*
X1245200Y810425D03*
D12*
X1263095Y621665D03*
X1273095Y621665D03*
D13*
X1308215Y602900D03*
X1308215Y585900D03*
X1294215Y585900D03*
X1294215Y602900D03*
D12*
X1304210Y574040D03*
X1294210Y574040D03*
X1294210Y614680D03*
X1304210Y614680D03*
X1253808Y649208D03*
X1253808Y639208D03*
X1240155Y618093D03*
X1240155Y608093D03*
X1297860Y683260D03*
X1287860Y683260D03*
X1287860Y647700D03*
X1297860Y647700D03*
X1327468Y638573D03*
X1327468Y648573D03*
X1273175Y631588D03*
X1273175Y641588D03*
X1282780Y629603D03*
X1292780Y629603D03*
D14*
X1283660Y658980D03*
X1302060Y665480D03*
X1302060Y671980D03*
X1302060Y658980D03*
X1283660Y665480D03*
X1283660Y671980D03*
D15*
X1261110Y609400D03*
X1261110Y584400D03*
D12*
X1276350Y600155D03*
X1276350Y610155D03*
X1276350Y590470D03*
X1276350Y580470D03*
X1289765Y692785D03*
X1299765Y692785D03*
X1253808Y659210D03*
X1253808Y669210D03*
X1283335Y457915D03*
X1283335Y467915D03*
X1242140Y441960D03*
X1252140Y441960D03*
X1252140Y484505D03*
X1242140Y484505D03*
D16*
X1244934Y453415D03*
X1244934Y462915D03*
X1244934Y472415D03*
X1270936Y472415D03*
X1270936Y453415D03*
D10*
X1441960Y785425D03*
D11*
X1431960Y810425D03*
X1426960Y810425D03*
D10*
X1346960Y785425D03*
D11*
X1421960Y810425D03*
X1416960Y810425D03*
X1411960Y810425D03*
X1406960Y810425D03*
X1401960Y810425D03*
X1396960Y810425D03*
X1391960Y810425D03*
X1386960Y810425D03*
X1381960Y810425D03*
X1376960Y810425D03*
X1371960Y810425D03*
X1366960Y810425D03*
X1361960Y810425D03*
X1356960Y810425D03*
D12*
X1374855Y621665D03*
X1384855Y621665D03*
D13*
X1419975Y602900D03*
X1419975Y585900D03*
X1405975Y585900D03*
X1405975Y602900D03*
D12*
X1415970Y574040D03*
X1405970Y574040D03*
X1405970Y614680D03*
X1415970Y614680D03*
X1365568Y649208D03*
X1365568Y639208D03*
X1351915Y618093D03*
X1351915Y608093D03*
X1409620Y683260D03*
X1399620Y683260D03*
X1399620Y647700D03*
X1409620Y647700D03*
X1439228Y638573D03*
X1439228Y648573D03*
X1384935Y631588D03*
X1384935Y641588D03*
X1394540Y629603D03*
X1404540Y629603D03*
D14*
X1395420Y658980D03*
X1413820Y665480D03*
X1413820Y671980D03*
X1413820Y658980D03*
X1395420Y665480D03*
X1395420Y671980D03*
D15*
X1372870Y609400D03*
X1372870Y584400D03*
D12*
X1388110Y600155D03*
X1388110Y610155D03*
X1388110Y590470D03*
X1388110Y580470D03*
X1401525Y692785D03*
X1411525Y692785D03*
X1365568Y659210D03*
X1365568Y669210D03*
X1395095Y457915D03*
X1395095Y467915D03*
X1353900Y441960D03*
X1363900Y441960D03*
X1363900Y484505D03*
X1353900Y484505D03*
D16*
X1356694Y453415D03*
X1356694Y462915D03*
X1356694Y472415D03*
X1382696Y472415D03*
X1382696Y453415D03*
D10*
X1553720Y785425D03*
D11*
X1543720Y810425D03*
X1538720Y810425D03*
D10*
X1458720Y785425D03*
D11*
X1533720Y810425D03*
X1528720Y810425D03*
X1523720Y810425D03*
X1518720Y810425D03*
X1513720Y810425D03*
X1508720Y810425D03*
X1503720Y810425D03*
X1498720Y810425D03*
X1493720Y810425D03*
X1488720Y810425D03*
X1483720Y810425D03*
X1478720Y810425D03*
X1473720Y810425D03*
X1468720Y810425D03*
D12*
X1486615Y621665D03*
X1496615Y621665D03*
D13*
X1531735Y602900D03*
X1531735Y585900D03*
X1517735Y585900D03*
X1517735Y602900D03*
D12*
X1527730Y574040D03*
X1517730Y574040D03*
X1517730Y614680D03*
X1527730Y614680D03*
X1477328Y649208D03*
X1477328Y639208D03*
X1463675Y618093D03*
X1463675Y608093D03*
X1521380Y683260D03*
X1511380Y683260D03*
X1511380Y647700D03*
X1521380Y647700D03*
X1550988Y638573D03*
X1550988Y648573D03*
X1496695Y631588D03*
X1496695Y641588D03*
X1506300Y629603D03*
X1516300Y629603D03*
D14*
X1507180Y658980D03*
X1525580Y665480D03*
X1525580Y671980D03*
X1525580Y658980D03*
X1507180Y665480D03*
X1507180Y671980D03*
D15*
X1484630Y609400D03*
X1484630Y584400D03*
D12*
X1499870Y600155D03*
X1499870Y610155D03*
X1499870Y590470D03*
X1499870Y580470D03*
X1513285Y692785D03*
X1523285Y692785D03*
X1477328Y659210D03*
X1477328Y669210D03*
X1506855Y457915D03*
X1506855Y467915D03*
X1465660Y441960D03*
X1475660Y441960D03*
X1475660Y484505D03*
X1465660Y484505D03*
D16*
X1468454Y453415D03*
X1468454Y462915D03*
X1468454Y472415D03*
X1494456Y472415D03*
X1494456Y453415D03*
D10*
X1665480Y785425D03*
D11*
X1655480Y810425D03*
X1650480Y810425D03*
D10*
X1570480Y785425D03*
D11*
X1645480Y810425D03*
X1640480Y810425D03*
X1635480Y810425D03*
X1630480Y810425D03*
X1625480Y810425D03*
X1620480Y810425D03*
X1615480Y810425D03*
X1610480Y810425D03*
X1605480Y810425D03*
X1600480Y810425D03*
X1595480Y810425D03*
X1590480Y810425D03*
X1585480Y810425D03*
X1580480Y810425D03*
D12*
X1598375Y621665D03*
X1608375Y621665D03*
D13*
X1643495Y602900D03*
X1643495Y585900D03*
X1629495Y585900D03*
X1629495Y602900D03*
D12*
X1639490Y574040D03*
X1629490Y574040D03*
X1629490Y614680D03*
X1639490Y614680D03*
X1589088Y649208D03*
X1589088Y639208D03*
X1575435Y618093D03*
X1575435Y608093D03*
X1633140Y683260D03*
X1623140Y683260D03*
X1623140Y647700D03*
X1633140Y647700D03*
X1662748Y638573D03*
X1662748Y648573D03*
X1608455Y631588D03*
X1608455Y641588D03*
X1618060Y629603D03*
X1628060Y629603D03*
D14*
X1618940Y658980D03*
X1637340Y665480D03*
X1637340Y671980D03*
X1637340Y658980D03*
X1618940Y665480D03*
X1618940Y671980D03*
D15*
X1596390Y609400D03*
X1596390Y584400D03*
D12*
X1611630Y600155D03*
X1611630Y610155D03*
X1611630Y590470D03*
X1611630Y580470D03*
X1625045Y692785D03*
X1635045Y692785D03*
X1589088Y659210D03*
X1589088Y669210D03*
X1618615Y457915D03*
X1618615Y467915D03*
X1577420Y441960D03*
X1587420Y441960D03*
X1587420Y484505D03*
X1577420Y484505D03*
D16*
X1580214Y453415D03*
X1580214Y462915D03*
X1580214Y472415D03*
X1606216Y472415D03*
X1606216Y453415D03*
D10*
X1777240Y785425D03*
D11*
X1767240Y810425D03*
X1762240Y810425D03*
D10*
X1682240Y785425D03*
D11*
X1757240Y810425D03*
X1752240Y810425D03*
X1747240Y810425D03*
X1742240Y810425D03*
X1737240Y810425D03*
X1732240Y810425D03*
X1727240Y810425D03*
X1722240Y810425D03*
X1717240Y810425D03*
X1712240Y810425D03*
X1707240Y810425D03*
X1702240Y810425D03*
X1697240Y810425D03*
X1692240Y810425D03*
D12*
X1710135Y621665D03*
X1720135Y621665D03*
D13*
X1755255Y602900D03*
X1755255Y585900D03*
X1741255Y585900D03*
X1741255Y602900D03*
D12*
X1751250Y574040D03*
X1741250Y574040D03*
X1741250Y614680D03*
X1751250Y614680D03*
X1700848Y649208D03*
X1700848Y639208D03*
X1687195Y618093D03*
X1687195Y608093D03*
X1744900Y683260D03*
X1734900Y683260D03*
X1734900Y647700D03*
X1744900Y647700D03*
X1774508Y638573D03*
X1774508Y648573D03*
X1720215Y631588D03*
X1720215Y641588D03*
X1729820Y629603D03*
X1739820Y629603D03*
D14*
X1730700Y658980D03*
X1749100Y665480D03*
X1749100Y671980D03*
X1749100Y658980D03*
X1730700Y665480D03*
X1730700Y671980D03*
D15*
X1708150Y609400D03*
X1708150Y584400D03*
D12*
X1723390Y600155D03*
X1723390Y610155D03*
X1723390Y590470D03*
X1723390Y580470D03*
X1736805Y692785D03*
X1746805Y692785D03*
X1700848Y659210D03*
X1700848Y669210D03*
X1730375Y457915D03*
X1730375Y467915D03*
X1689180Y441960D03*
X1699180Y441960D03*
X1699180Y484505D03*
X1689180Y484505D03*
D16*
X1691974Y453415D03*
X1691974Y462915D03*
X1691974Y472415D03*
X1717976Y472415D03*
X1717976Y453415D03*
M02*
