G04 EAGLE Gerber RS-274X export*
G75*
%MOMM*%
%FSLAX34Y34*%
%LPD*%
%INSolderpaste Bottom*%
%IPPOS*%
%AMOC8*
5,1,8,0,0,1.08239X$1,22.5*%
G01*
%ADD10R,0.400000X0.800000*%
%ADD11R,0.250000X0.650000*%
%ADD12R,0.600000X0.600000*%
%ADD13R,1.100000X1.200000*%
%ADD14R,0.660000X0.300000*%
%ADD15R,1.800000X1.000000*%
%ADD16R,1.200000X0.550000*%


D10*
X5840Y32455D03*
D11*
X15840Y7455D03*
X20840Y7455D03*
D10*
X100840Y32455D03*
D11*
X25840Y7455D03*
X30840Y7455D03*
X35840Y7455D03*
X40840Y7455D03*
X45840Y7455D03*
X50840Y7455D03*
X55840Y7455D03*
X60840Y7455D03*
X65840Y7455D03*
X70840Y7455D03*
X75840Y7455D03*
X80840Y7455D03*
X85840Y7455D03*
X90840Y7455D03*
D12*
X72945Y196215D03*
X62945Y196215D03*
D13*
X27825Y214980D03*
X27825Y231980D03*
X41825Y231980D03*
X41825Y214980D03*
D12*
X31830Y243840D03*
X41830Y243840D03*
X41830Y203200D03*
X31830Y203200D03*
X83503Y167403D03*
X83503Y177403D03*
X93345Y188358D03*
X93345Y198358D03*
X38180Y134620D03*
X48180Y134620D03*
X48180Y170180D03*
X38180Y170180D03*
X8573Y179308D03*
X8573Y169308D03*
X62865Y186293D03*
X62865Y176293D03*
X53260Y188278D03*
X43260Y188278D03*
D14*
X52380Y158900D03*
X33980Y152400D03*
X33980Y145900D03*
X33980Y158900D03*
X52380Y152400D03*
X52380Y145900D03*
D15*
X74930Y208480D03*
X74930Y233480D03*
D12*
X59690Y217725D03*
X59690Y207725D03*
X59690Y227410D03*
X59690Y237410D03*
X46275Y125095D03*
X36275Y125095D03*
X83503Y156765D03*
X83503Y146765D03*
X52705Y359965D03*
X52705Y349965D03*
X93900Y375920D03*
X83900Y375920D03*
X83900Y333375D03*
X93900Y333375D03*
D16*
X91106Y364465D03*
X91106Y354965D03*
X91106Y345465D03*
X65104Y345465D03*
X65104Y364465D03*
D10*
X168400Y32455D03*
D11*
X178400Y7455D03*
X183400Y7455D03*
D10*
X263400Y32455D03*
D11*
X188400Y7455D03*
X193400Y7455D03*
X198400Y7455D03*
X203400Y7455D03*
X208400Y7455D03*
X213400Y7455D03*
X218400Y7455D03*
X223400Y7455D03*
X228400Y7455D03*
X233400Y7455D03*
X238400Y7455D03*
X243400Y7455D03*
X248400Y7455D03*
X253400Y7455D03*
D12*
X235505Y196215D03*
X225505Y196215D03*
D13*
X190385Y214980D03*
X190385Y231980D03*
X204385Y231980D03*
X204385Y214980D03*
D12*
X194390Y243840D03*
X204390Y243840D03*
X204390Y203200D03*
X194390Y203200D03*
X246063Y167403D03*
X246063Y177403D03*
X255905Y188358D03*
X255905Y198358D03*
X200740Y134620D03*
X210740Y134620D03*
X210740Y170180D03*
X200740Y170180D03*
X171133Y179308D03*
X171133Y169308D03*
X225425Y186293D03*
X225425Y176293D03*
X215820Y188278D03*
X205820Y188278D03*
D14*
X214940Y158900D03*
X196540Y152400D03*
X196540Y145900D03*
X196540Y158900D03*
X214940Y152400D03*
X214940Y145900D03*
D15*
X237490Y208480D03*
X237490Y233480D03*
D12*
X222250Y217725D03*
X222250Y207725D03*
X222250Y227410D03*
X222250Y237410D03*
X208835Y125095D03*
X198835Y125095D03*
X246063Y156765D03*
X246063Y146765D03*
X215265Y359965D03*
X215265Y349965D03*
X256460Y375920D03*
X246460Y375920D03*
X246460Y333375D03*
X256460Y333375D03*
D16*
X253666Y364465D03*
X253666Y354965D03*
X253666Y345465D03*
X227664Y345465D03*
X227664Y364465D03*
D10*
X330960Y32455D03*
D11*
X340960Y7455D03*
X345960Y7455D03*
D10*
X425960Y32455D03*
D11*
X350960Y7455D03*
X355960Y7455D03*
X360960Y7455D03*
X365960Y7455D03*
X370960Y7455D03*
X375960Y7455D03*
X380960Y7455D03*
X385960Y7455D03*
X390960Y7455D03*
X395960Y7455D03*
X400960Y7455D03*
X405960Y7455D03*
X410960Y7455D03*
X415960Y7455D03*
D12*
X398065Y196215D03*
X388065Y196215D03*
D13*
X352945Y214980D03*
X352945Y231980D03*
X366945Y231980D03*
X366945Y214980D03*
D12*
X356950Y243840D03*
X366950Y243840D03*
X366950Y203200D03*
X356950Y203200D03*
X408623Y167403D03*
X408623Y177403D03*
X418465Y188358D03*
X418465Y198358D03*
X363300Y134620D03*
X373300Y134620D03*
X373300Y170180D03*
X363300Y170180D03*
X333693Y179308D03*
X333693Y169308D03*
X387985Y186293D03*
X387985Y176293D03*
X378380Y188278D03*
X368380Y188278D03*
D14*
X377500Y158900D03*
X359100Y152400D03*
X359100Y145900D03*
X359100Y158900D03*
X377500Y152400D03*
X377500Y145900D03*
D15*
X400050Y208480D03*
X400050Y233480D03*
D12*
X384810Y217725D03*
X384810Y207725D03*
X384810Y227410D03*
X384810Y237410D03*
X371395Y125095D03*
X361395Y125095D03*
X408623Y156765D03*
X408623Y146765D03*
X377825Y359965D03*
X377825Y349965D03*
X419020Y375920D03*
X409020Y375920D03*
X409020Y333375D03*
X419020Y333375D03*
D16*
X416226Y364465D03*
X416226Y354965D03*
X416226Y345465D03*
X390224Y345465D03*
X390224Y364465D03*
D10*
X493520Y32455D03*
D11*
X503520Y7455D03*
X508520Y7455D03*
D10*
X588520Y32455D03*
D11*
X513520Y7455D03*
X518520Y7455D03*
X523520Y7455D03*
X528520Y7455D03*
X533520Y7455D03*
X538520Y7455D03*
X543520Y7455D03*
X548520Y7455D03*
X553520Y7455D03*
X558520Y7455D03*
X563520Y7455D03*
X568520Y7455D03*
X573520Y7455D03*
X578520Y7455D03*
D12*
X560625Y196215D03*
X550625Y196215D03*
D13*
X515505Y214980D03*
X515505Y231980D03*
X529505Y231980D03*
X529505Y214980D03*
D12*
X519510Y243840D03*
X529510Y243840D03*
X529510Y203200D03*
X519510Y203200D03*
X571183Y167403D03*
X571183Y177403D03*
X581025Y188358D03*
X581025Y198358D03*
X525860Y134620D03*
X535860Y134620D03*
X535860Y170180D03*
X525860Y170180D03*
X496253Y179308D03*
X496253Y169308D03*
X550545Y186293D03*
X550545Y176293D03*
X540940Y188278D03*
X530940Y188278D03*
D14*
X540060Y158900D03*
X521660Y152400D03*
X521660Y145900D03*
X521660Y158900D03*
X540060Y152400D03*
X540060Y145900D03*
D15*
X562610Y208480D03*
X562610Y233480D03*
D12*
X547370Y217725D03*
X547370Y207725D03*
X547370Y227410D03*
X547370Y237410D03*
X533955Y125095D03*
X523955Y125095D03*
X571183Y156765D03*
X571183Y146765D03*
X540385Y359965D03*
X540385Y349965D03*
X581580Y375920D03*
X571580Y375920D03*
X571580Y333375D03*
X581580Y333375D03*
D16*
X578786Y364465D03*
X578786Y354965D03*
X578786Y345465D03*
X552784Y345465D03*
X552784Y364465D03*
D10*
X656080Y32455D03*
D11*
X666080Y7455D03*
X671080Y7455D03*
D10*
X751080Y32455D03*
D11*
X676080Y7455D03*
X681080Y7455D03*
X686080Y7455D03*
X691080Y7455D03*
X696080Y7455D03*
X701080Y7455D03*
X706080Y7455D03*
X711080Y7455D03*
X716080Y7455D03*
X721080Y7455D03*
X726080Y7455D03*
X731080Y7455D03*
X736080Y7455D03*
X741080Y7455D03*
D12*
X723185Y196215D03*
X713185Y196215D03*
D13*
X678065Y214980D03*
X678065Y231980D03*
X692065Y231980D03*
X692065Y214980D03*
D12*
X682070Y243840D03*
X692070Y243840D03*
X692070Y203200D03*
X682070Y203200D03*
X733743Y167403D03*
X733743Y177403D03*
X743585Y188358D03*
X743585Y198358D03*
X688420Y134620D03*
X698420Y134620D03*
X698420Y170180D03*
X688420Y170180D03*
X658813Y179308D03*
X658813Y169308D03*
X713105Y186293D03*
X713105Y176293D03*
X703500Y188278D03*
X693500Y188278D03*
D14*
X702620Y158900D03*
X684220Y152400D03*
X684220Y145900D03*
X684220Y158900D03*
X702620Y152400D03*
X702620Y145900D03*
D15*
X725170Y208480D03*
X725170Y233480D03*
D12*
X709930Y217725D03*
X709930Y207725D03*
X709930Y227410D03*
X709930Y237410D03*
X696515Y125095D03*
X686515Y125095D03*
X733743Y156765D03*
X733743Y146765D03*
X702945Y359965D03*
X702945Y349965D03*
X744140Y375920D03*
X734140Y375920D03*
X734140Y333375D03*
X744140Y333375D03*
D16*
X741346Y364465D03*
X741346Y354965D03*
X741346Y345465D03*
X715344Y345465D03*
X715344Y364465D03*
D10*
X818640Y32455D03*
D11*
X828640Y7455D03*
X833640Y7455D03*
D10*
X913640Y32455D03*
D11*
X838640Y7455D03*
X843640Y7455D03*
X848640Y7455D03*
X853640Y7455D03*
X858640Y7455D03*
X863640Y7455D03*
X868640Y7455D03*
X873640Y7455D03*
X878640Y7455D03*
X883640Y7455D03*
X888640Y7455D03*
X893640Y7455D03*
X898640Y7455D03*
X903640Y7455D03*
D12*
X885745Y196215D03*
X875745Y196215D03*
D13*
X840625Y214980D03*
X840625Y231980D03*
X854625Y231980D03*
X854625Y214980D03*
D12*
X844630Y243840D03*
X854630Y243840D03*
X854630Y203200D03*
X844630Y203200D03*
X896303Y167403D03*
X896303Y177403D03*
X906145Y188358D03*
X906145Y198358D03*
X850980Y134620D03*
X860980Y134620D03*
X860980Y170180D03*
X850980Y170180D03*
X821373Y179308D03*
X821373Y169308D03*
X875665Y186293D03*
X875665Y176293D03*
X866060Y188278D03*
X856060Y188278D03*
D14*
X865180Y158900D03*
X846780Y152400D03*
X846780Y145900D03*
X846780Y158900D03*
X865180Y152400D03*
X865180Y145900D03*
D15*
X887730Y208480D03*
X887730Y233480D03*
D12*
X872490Y217725D03*
X872490Y207725D03*
X872490Y227410D03*
X872490Y237410D03*
X859075Y125095D03*
X849075Y125095D03*
X896303Y156765D03*
X896303Y146765D03*
X865505Y359965D03*
X865505Y349965D03*
X906700Y375920D03*
X896700Y375920D03*
X896700Y333375D03*
X906700Y333375D03*
D16*
X903906Y364465D03*
X903906Y354965D03*
X903906Y345465D03*
X877904Y345465D03*
X877904Y364465D03*
D10*
X981200Y32455D03*
D11*
X991200Y7455D03*
X996200Y7455D03*
D10*
X1076200Y32455D03*
D11*
X1001200Y7455D03*
X1006200Y7455D03*
X1011200Y7455D03*
X1016200Y7455D03*
X1021200Y7455D03*
X1026200Y7455D03*
X1031200Y7455D03*
X1036200Y7455D03*
X1041200Y7455D03*
X1046200Y7455D03*
X1051200Y7455D03*
X1056200Y7455D03*
X1061200Y7455D03*
X1066200Y7455D03*
D12*
X1048305Y196215D03*
X1038305Y196215D03*
D13*
X1003185Y214980D03*
X1003185Y231980D03*
X1017185Y231980D03*
X1017185Y214980D03*
D12*
X1007190Y243840D03*
X1017190Y243840D03*
X1017190Y203200D03*
X1007190Y203200D03*
X1058863Y167403D03*
X1058863Y177403D03*
X1068705Y188358D03*
X1068705Y198358D03*
X1013540Y134620D03*
X1023540Y134620D03*
X1023540Y170180D03*
X1013540Y170180D03*
X983933Y179308D03*
X983933Y169308D03*
X1038225Y186293D03*
X1038225Y176293D03*
X1028620Y188278D03*
X1018620Y188278D03*
D14*
X1027740Y158900D03*
X1009340Y152400D03*
X1009340Y145900D03*
X1009340Y158900D03*
X1027740Y152400D03*
X1027740Y145900D03*
D15*
X1050290Y208480D03*
X1050290Y233480D03*
D12*
X1035050Y217725D03*
X1035050Y207725D03*
X1035050Y227410D03*
X1035050Y237410D03*
X1021635Y125095D03*
X1011635Y125095D03*
X1058863Y156765D03*
X1058863Y146765D03*
X1028065Y359965D03*
X1028065Y349965D03*
X1069260Y375920D03*
X1059260Y375920D03*
X1059260Y333375D03*
X1069260Y333375D03*
D16*
X1066466Y364465D03*
X1066466Y354965D03*
X1066466Y345465D03*
X1040464Y345465D03*
X1040464Y364465D03*
D10*
X1143760Y32455D03*
D11*
X1153760Y7455D03*
X1158760Y7455D03*
D10*
X1238760Y32455D03*
D11*
X1163760Y7455D03*
X1168760Y7455D03*
X1173760Y7455D03*
X1178760Y7455D03*
X1183760Y7455D03*
X1188760Y7455D03*
X1193760Y7455D03*
X1198760Y7455D03*
X1203760Y7455D03*
X1208760Y7455D03*
X1213760Y7455D03*
X1218760Y7455D03*
X1223760Y7455D03*
X1228760Y7455D03*
D12*
X1210865Y196215D03*
X1200865Y196215D03*
D13*
X1165745Y214980D03*
X1165745Y231980D03*
X1179745Y231980D03*
X1179745Y214980D03*
D12*
X1169750Y243840D03*
X1179750Y243840D03*
X1179750Y203200D03*
X1169750Y203200D03*
X1221423Y167403D03*
X1221423Y177403D03*
X1231265Y188358D03*
X1231265Y198358D03*
X1176100Y134620D03*
X1186100Y134620D03*
X1186100Y170180D03*
X1176100Y170180D03*
X1146493Y179308D03*
X1146493Y169308D03*
X1200785Y186293D03*
X1200785Y176293D03*
X1191180Y188278D03*
X1181180Y188278D03*
D14*
X1190300Y158900D03*
X1171900Y152400D03*
X1171900Y145900D03*
X1171900Y158900D03*
X1190300Y152400D03*
X1190300Y145900D03*
D15*
X1212850Y208480D03*
X1212850Y233480D03*
D12*
X1197610Y217725D03*
X1197610Y207725D03*
X1197610Y227410D03*
X1197610Y237410D03*
X1184195Y125095D03*
X1174195Y125095D03*
X1221423Y156765D03*
X1221423Y146765D03*
X1190625Y359965D03*
X1190625Y349965D03*
X1231820Y375920D03*
X1221820Y375920D03*
X1221820Y333375D03*
X1231820Y333375D03*
D16*
X1229026Y364465D03*
X1229026Y354965D03*
X1229026Y345465D03*
X1203024Y345465D03*
X1203024Y364465D03*
D10*
X1306320Y32455D03*
D11*
X1316320Y7455D03*
X1321320Y7455D03*
D10*
X1401320Y32455D03*
D11*
X1326320Y7455D03*
X1331320Y7455D03*
X1336320Y7455D03*
X1341320Y7455D03*
X1346320Y7455D03*
X1351320Y7455D03*
X1356320Y7455D03*
X1361320Y7455D03*
X1366320Y7455D03*
X1371320Y7455D03*
X1376320Y7455D03*
X1381320Y7455D03*
X1386320Y7455D03*
X1391320Y7455D03*
D12*
X1373425Y196215D03*
X1363425Y196215D03*
D13*
X1328305Y214980D03*
X1328305Y231980D03*
X1342305Y231980D03*
X1342305Y214980D03*
D12*
X1332310Y243840D03*
X1342310Y243840D03*
X1342310Y203200D03*
X1332310Y203200D03*
X1383983Y167403D03*
X1383983Y177403D03*
X1393825Y188358D03*
X1393825Y198358D03*
X1338660Y134620D03*
X1348660Y134620D03*
X1348660Y170180D03*
X1338660Y170180D03*
X1309053Y179308D03*
X1309053Y169308D03*
X1363345Y186293D03*
X1363345Y176293D03*
X1353740Y188278D03*
X1343740Y188278D03*
D14*
X1352860Y158900D03*
X1334460Y152400D03*
X1334460Y145900D03*
X1334460Y158900D03*
X1352860Y152400D03*
X1352860Y145900D03*
D15*
X1375410Y208480D03*
X1375410Y233480D03*
D12*
X1360170Y217725D03*
X1360170Y207725D03*
X1360170Y227410D03*
X1360170Y237410D03*
X1346755Y125095D03*
X1336755Y125095D03*
X1383983Y156765D03*
X1383983Y146765D03*
X1353185Y359965D03*
X1353185Y349965D03*
X1394380Y375920D03*
X1384380Y375920D03*
X1384380Y333375D03*
X1394380Y333375D03*
D16*
X1391586Y364465D03*
X1391586Y354965D03*
X1391586Y345465D03*
X1365584Y345465D03*
X1365584Y364465D03*
D10*
X1468880Y32455D03*
D11*
X1478880Y7455D03*
X1483880Y7455D03*
D10*
X1563880Y32455D03*
D11*
X1488880Y7455D03*
X1493880Y7455D03*
X1498880Y7455D03*
X1503880Y7455D03*
X1508880Y7455D03*
X1513880Y7455D03*
X1518880Y7455D03*
X1523880Y7455D03*
X1528880Y7455D03*
X1533880Y7455D03*
X1538880Y7455D03*
X1543880Y7455D03*
X1548880Y7455D03*
X1553880Y7455D03*
D12*
X1535985Y196215D03*
X1525985Y196215D03*
D13*
X1490865Y214980D03*
X1490865Y231980D03*
X1504865Y231980D03*
X1504865Y214980D03*
D12*
X1494870Y243840D03*
X1504870Y243840D03*
X1504870Y203200D03*
X1494870Y203200D03*
X1546543Y167403D03*
X1546543Y177403D03*
X1556385Y188358D03*
X1556385Y198358D03*
X1501220Y134620D03*
X1511220Y134620D03*
X1511220Y170180D03*
X1501220Y170180D03*
X1471613Y179308D03*
X1471613Y169308D03*
X1525905Y186293D03*
X1525905Y176293D03*
X1516300Y188278D03*
X1506300Y188278D03*
D14*
X1515420Y158900D03*
X1497020Y152400D03*
X1497020Y145900D03*
X1497020Y158900D03*
X1515420Y152400D03*
X1515420Y145900D03*
D15*
X1537970Y208480D03*
X1537970Y233480D03*
D12*
X1522730Y217725D03*
X1522730Y207725D03*
X1522730Y227410D03*
X1522730Y237410D03*
X1509315Y125095D03*
X1499315Y125095D03*
X1546543Y156765D03*
X1546543Y146765D03*
X1515745Y359965D03*
X1515745Y349965D03*
X1556940Y375920D03*
X1546940Y375920D03*
X1546940Y333375D03*
X1556940Y333375D03*
D16*
X1554146Y364465D03*
X1554146Y354965D03*
X1554146Y345465D03*
X1528144Y345465D03*
X1528144Y364465D03*
D10*
X100840Y785425D03*
D11*
X90840Y810425D03*
X85840Y810425D03*
D10*
X5840Y785425D03*
D11*
X80840Y810425D03*
X75840Y810425D03*
X70840Y810425D03*
X65840Y810425D03*
X60840Y810425D03*
X55840Y810425D03*
X50840Y810425D03*
X45840Y810425D03*
X40840Y810425D03*
X35840Y810425D03*
X30840Y810425D03*
X25840Y810425D03*
X20840Y810425D03*
X15840Y810425D03*
D12*
X33735Y621665D03*
X43735Y621665D03*
D13*
X78855Y602900D03*
X78855Y585900D03*
X64855Y585900D03*
X64855Y602900D03*
D12*
X74850Y574040D03*
X64850Y574040D03*
X64850Y614680D03*
X74850Y614680D03*
X23178Y650478D03*
X23178Y640478D03*
X13335Y629523D03*
X13335Y619523D03*
X68500Y683260D03*
X58500Y683260D03*
X58500Y647700D03*
X68500Y647700D03*
X98108Y638573D03*
X98108Y648573D03*
X43815Y631588D03*
X43815Y641588D03*
X53420Y629603D03*
X63420Y629603D03*
D14*
X54300Y658980D03*
X72700Y665480D03*
X72700Y671980D03*
X72700Y658980D03*
X54300Y665480D03*
X54300Y671980D03*
D15*
X31750Y609400D03*
X31750Y584400D03*
D12*
X46990Y600155D03*
X46990Y610155D03*
X46990Y590470D03*
X46990Y580470D03*
X60405Y692785D03*
X70405Y692785D03*
X23178Y661115D03*
X23178Y671115D03*
X53975Y457915D03*
X53975Y467915D03*
X12780Y441960D03*
X22780Y441960D03*
X22780Y484505D03*
X12780Y484505D03*
D16*
X15574Y453415D03*
X15574Y462915D03*
X15574Y472415D03*
X41576Y472415D03*
X41576Y453415D03*
D10*
X263400Y785425D03*
D11*
X253400Y810425D03*
X248400Y810425D03*
D10*
X168400Y785425D03*
D11*
X243400Y810425D03*
X238400Y810425D03*
X233400Y810425D03*
X228400Y810425D03*
X223400Y810425D03*
X218400Y810425D03*
X213400Y810425D03*
X208400Y810425D03*
X203400Y810425D03*
X198400Y810425D03*
X193400Y810425D03*
X188400Y810425D03*
X183400Y810425D03*
X178400Y810425D03*
D12*
X196295Y621665D03*
X206295Y621665D03*
D13*
X241415Y602900D03*
X241415Y585900D03*
X227415Y585900D03*
X227415Y602900D03*
D12*
X237410Y574040D03*
X227410Y574040D03*
X227410Y614680D03*
X237410Y614680D03*
X185738Y650478D03*
X185738Y640478D03*
X175895Y629523D03*
X175895Y619523D03*
X231060Y683260D03*
X221060Y683260D03*
X221060Y647700D03*
X231060Y647700D03*
X260668Y638573D03*
X260668Y648573D03*
X206375Y631588D03*
X206375Y641588D03*
X215980Y629603D03*
X225980Y629603D03*
D14*
X216860Y658980D03*
X235260Y665480D03*
X235260Y671980D03*
X235260Y658980D03*
X216860Y665480D03*
X216860Y671980D03*
D15*
X194310Y609400D03*
X194310Y584400D03*
D12*
X209550Y600155D03*
X209550Y610155D03*
X209550Y590470D03*
X209550Y580470D03*
X222965Y692785D03*
X232965Y692785D03*
X185738Y661115D03*
X185738Y671115D03*
X216535Y457915D03*
X216535Y467915D03*
X175340Y441960D03*
X185340Y441960D03*
X185340Y484505D03*
X175340Y484505D03*
D16*
X178134Y453415D03*
X178134Y462915D03*
X178134Y472415D03*
X204136Y472415D03*
X204136Y453415D03*
D10*
X425960Y785425D03*
D11*
X415960Y810425D03*
X410960Y810425D03*
D10*
X330960Y785425D03*
D11*
X405960Y810425D03*
X400960Y810425D03*
X395960Y810425D03*
X390960Y810425D03*
X385960Y810425D03*
X380960Y810425D03*
X375960Y810425D03*
X370960Y810425D03*
X365960Y810425D03*
X360960Y810425D03*
X355960Y810425D03*
X350960Y810425D03*
X345960Y810425D03*
X340960Y810425D03*
D12*
X358855Y621665D03*
X368855Y621665D03*
D13*
X403975Y602900D03*
X403975Y585900D03*
X389975Y585900D03*
X389975Y602900D03*
D12*
X399970Y574040D03*
X389970Y574040D03*
X389970Y614680D03*
X399970Y614680D03*
X348298Y650478D03*
X348298Y640478D03*
X338455Y629523D03*
X338455Y619523D03*
X393620Y683260D03*
X383620Y683260D03*
X383620Y647700D03*
X393620Y647700D03*
X423228Y638573D03*
X423228Y648573D03*
X368935Y631588D03*
X368935Y641588D03*
X378540Y629603D03*
X388540Y629603D03*
D14*
X379420Y658980D03*
X397820Y665480D03*
X397820Y671980D03*
X397820Y658980D03*
X379420Y665480D03*
X379420Y671980D03*
D15*
X356870Y609400D03*
X356870Y584400D03*
D12*
X372110Y600155D03*
X372110Y610155D03*
X372110Y590470D03*
X372110Y580470D03*
X385525Y692785D03*
X395525Y692785D03*
X348298Y661115D03*
X348298Y671115D03*
X379095Y457915D03*
X379095Y467915D03*
X337900Y441960D03*
X347900Y441960D03*
X347900Y484505D03*
X337900Y484505D03*
D16*
X340694Y453415D03*
X340694Y462915D03*
X340694Y472415D03*
X366696Y472415D03*
X366696Y453415D03*
D10*
X588520Y785425D03*
D11*
X578520Y810425D03*
X573520Y810425D03*
D10*
X493520Y785425D03*
D11*
X568520Y810425D03*
X563520Y810425D03*
X558520Y810425D03*
X553520Y810425D03*
X548520Y810425D03*
X543520Y810425D03*
X538520Y810425D03*
X533520Y810425D03*
X528520Y810425D03*
X523520Y810425D03*
X518520Y810425D03*
X513520Y810425D03*
X508520Y810425D03*
X503520Y810425D03*
D12*
X521415Y621665D03*
X531415Y621665D03*
D13*
X566535Y602900D03*
X566535Y585900D03*
X552535Y585900D03*
X552535Y602900D03*
D12*
X562530Y574040D03*
X552530Y574040D03*
X552530Y614680D03*
X562530Y614680D03*
X510858Y650478D03*
X510858Y640478D03*
X501015Y629523D03*
X501015Y619523D03*
X556180Y683260D03*
X546180Y683260D03*
X546180Y647700D03*
X556180Y647700D03*
X585788Y638573D03*
X585788Y648573D03*
X531495Y631588D03*
X531495Y641588D03*
X541100Y629603D03*
X551100Y629603D03*
D14*
X541980Y658980D03*
X560380Y665480D03*
X560380Y671980D03*
X560380Y658980D03*
X541980Y665480D03*
X541980Y671980D03*
D15*
X519430Y609400D03*
X519430Y584400D03*
D12*
X534670Y600155D03*
X534670Y610155D03*
X534670Y590470D03*
X534670Y580470D03*
X548085Y692785D03*
X558085Y692785D03*
X510858Y661115D03*
X510858Y671115D03*
X541655Y457915D03*
X541655Y467915D03*
X500460Y441960D03*
X510460Y441960D03*
X510460Y484505D03*
X500460Y484505D03*
D16*
X503254Y453415D03*
X503254Y462915D03*
X503254Y472415D03*
X529256Y472415D03*
X529256Y453415D03*
D10*
X751080Y785425D03*
D11*
X741080Y810425D03*
X736080Y810425D03*
D10*
X656080Y785425D03*
D11*
X731080Y810425D03*
X726080Y810425D03*
X721080Y810425D03*
X716080Y810425D03*
X711080Y810425D03*
X706080Y810425D03*
X701080Y810425D03*
X696080Y810425D03*
X691080Y810425D03*
X686080Y810425D03*
X681080Y810425D03*
X676080Y810425D03*
X671080Y810425D03*
X666080Y810425D03*
D12*
X683975Y621665D03*
X693975Y621665D03*
D13*
X729095Y602900D03*
X729095Y585900D03*
X715095Y585900D03*
X715095Y602900D03*
D12*
X725090Y574040D03*
X715090Y574040D03*
X715090Y614680D03*
X725090Y614680D03*
X673418Y650478D03*
X673418Y640478D03*
X663575Y629523D03*
X663575Y619523D03*
X718740Y683260D03*
X708740Y683260D03*
X708740Y647700D03*
X718740Y647700D03*
X748348Y638573D03*
X748348Y648573D03*
X694055Y631588D03*
X694055Y641588D03*
X703660Y629603D03*
X713660Y629603D03*
D14*
X704540Y658980D03*
X722940Y665480D03*
X722940Y671980D03*
X722940Y658980D03*
X704540Y665480D03*
X704540Y671980D03*
D15*
X681990Y609400D03*
X681990Y584400D03*
D12*
X697230Y600155D03*
X697230Y610155D03*
X697230Y590470D03*
X697230Y580470D03*
X710645Y692785D03*
X720645Y692785D03*
X673418Y661115D03*
X673418Y671115D03*
X704215Y457915D03*
X704215Y467915D03*
X663020Y441960D03*
X673020Y441960D03*
X673020Y484505D03*
X663020Y484505D03*
D16*
X665814Y453415D03*
X665814Y462915D03*
X665814Y472415D03*
X691816Y472415D03*
X691816Y453415D03*
D10*
X913640Y785425D03*
D11*
X903640Y810425D03*
X898640Y810425D03*
D10*
X818640Y785425D03*
D11*
X893640Y810425D03*
X888640Y810425D03*
X883640Y810425D03*
X878640Y810425D03*
X873640Y810425D03*
X868640Y810425D03*
X863640Y810425D03*
X858640Y810425D03*
X853640Y810425D03*
X848640Y810425D03*
X843640Y810425D03*
X838640Y810425D03*
X833640Y810425D03*
X828640Y810425D03*
D12*
X846535Y621665D03*
X856535Y621665D03*
D13*
X891655Y602900D03*
X891655Y585900D03*
X877655Y585900D03*
X877655Y602900D03*
D12*
X887650Y574040D03*
X877650Y574040D03*
X877650Y614680D03*
X887650Y614680D03*
X835978Y650478D03*
X835978Y640478D03*
X826135Y629523D03*
X826135Y619523D03*
X881300Y683260D03*
X871300Y683260D03*
X871300Y647700D03*
X881300Y647700D03*
X910908Y638573D03*
X910908Y648573D03*
X856615Y631588D03*
X856615Y641588D03*
X866220Y629603D03*
X876220Y629603D03*
D14*
X867100Y658980D03*
X885500Y665480D03*
X885500Y671980D03*
X885500Y658980D03*
X867100Y665480D03*
X867100Y671980D03*
D15*
X844550Y609400D03*
X844550Y584400D03*
D12*
X859790Y600155D03*
X859790Y610155D03*
X859790Y590470D03*
X859790Y580470D03*
X873205Y692785D03*
X883205Y692785D03*
X835978Y661115D03*
X835978Y671115D03*
X866775Y457915D03*
X866775Y467915D03*
X825580Y441960D03*
X835580Y441960D03*
X835580Y484505D03*
X825580Y484505D03*
D16*
X828374Y453415D03*
X828374Y462915D03*
X828374Y472415D03*
X854376Y472415D03*
X854376Y453415D03*
D10*
X1076200Y785425D03*
D11*
X1066200Y810425D03*
X1061200Y810425D03*
D10*
X981200Y785425D03*
D11*
X1056200Y810425D03*
X1051200Y810425D03*
X1046200Y810425D03*
X1041200Y810425D03*
X1036200Y810425D03*
X1031200Y810425D03*
X1026200Y810425D03*
X1021200Y810425D03*
X1016200Y810425D03*
X1011200Y810425D03*
X1006200Y810425D03*
X1001200Y810425D03*
X996200Y810425D03*
X991200Y810425D03*
D12*
X1009095Y621665D03*
X1019095Y621665D03*
D13*
X1054215Y602900D03*
X1054215Y585900D03*
X1040215Y585900D03*
X1040215Y602900D03*
D12*
X1050210Y574040D03*
X1040210Y574040D03*
X1040210Y614680D03*
X1050210Y614680D03*
X998538Y650478D03*
X998538Y640478D03*
X988695Y629523D03*
X988695Y619523D03*
X1043860Y683260D03*
X1033860Y683260D03*
X1033860Y647700D03*
X1043860Y647700D03*
X1073468Y638573D03*
X1073468Y648573D03*
X1019175Y631588D03*
X1019175Y641588D03*
X1028780Y629603D03*
X1038780Y629603D03*
D14*
X1029660Y658980D03*
X1048060Y665480D03*
X1048060Y671980D03*
X1048060Y658980D03*
X1029660Y665480D03*
X1029660Y671980D03*
D15*
X1007110Y609400D03*
X1007110Y584400D03*
D12*
X1022350Y600155D03*
X1022350Y610155D03*
X1022350Y590470D03*
X1022350Y580470D03*
X1035765Y692785D03*
X1045765Y692785D03*
X998538Y661115D03*
X998538Y671115D03*
X1029335Y457915D03*
X1029335Y467915D03*
X988140Y441960D03*
X998140Y441960D03*
X998140Y484505D03*
X988140Y484505D03*
D16*
X990934Y453415D03*
X990934Y462915D03*
X990934Y472415D03*
X1016936Y472415D03*
X1016936Y453415D03*
D10*
X1238760Y785425D03*
D11*
X1228760Y810425D03*
X1223760Y810425D03*
D10*
X1143760Y785425D03*
D11*
X1218760Y810425D03*
X1213760Y810425D03*
X1208760Y810425D03*
X1203760Y810425D03*
X1198760Y810425D03*
X1193760Y810425D03*
X1188760Y810425D03*
X1183760Y810425D03*
X1178760Y810425D03*
X1173760Y810425D03*
X1168760Y810425D03*
X1163760Y810425D03*
X1158760Y810425D03*
X1153760Y810425D03*
D12*
X1171655Y621665D03*
X1181655Y621665D03*
D13*
X1216775Y602900D03*
X1216775Y585900D03*
X1202775Y585900D03*
X1202775Y602900D03*
D12*
X1212770Y574040D03*
X1202770Y574040D03*
X1202770Y614680D03*
X1212770Y614680D03*
X1161098Y650478D03*
X1161098Y640478D03*
X1151255Y629523D03*
X1151255Y619523D03*
X1206420Y683260D03*
X1196420Y683260D03*
X1196420Y647700D03*
X1206420Y647700D03*
X1236028Y638573D03*
X1236028Y648573D03*
X1181735Y631588D03*
X1181735Y641588D03*
X1191340Y629603D03*
X1201340Y629603D03*
D14*
X1192220Y658980D03*
X1210620Y665480D03*
X1210620Y671980D03*
X1210620Y658980D03*
X1192220Y665480D03*
X1192220Y671980D03*
D15*
X1169670Y609400D03*
X1169670Y584400D03*
D12*
X1184910Y600155D03*
X1184910Y610155D03*
X1184910Y590470D03*
X1184910Y580470D03*
X1198325Y692785D03*
X1208325Y692785D03*
X1161098Y661115D03*
X1161098Y671115D03*
X1191895Y457915D03*
X1191895Y467915D03*
X1150700Y441960D03*
X1160700Y441960D03*
X1160700Y484505D03*
X1150700Y484505D03*
D16*
X1153494Y453415D03*
X1153494Y462915D03*
X1153494Y472415D03*
X1179496Y472415D03*
X1179496Y453415D03*
D10*
X1401320Y785425D03*
D11*
X1391320Y810425D03*
X1386320Y810425D03*
D10*
X1306320Y785425D03*
D11*
X1381320Y810425D03*
X1376320Y810425D03*
X1371320Y810425D03*
X1366320Y810425D03*
X1361320Y810425D03*
X1356320Y810425D03*
X1351320Y810425D03*
X1346320Y810425D03*
X1341320Y810425D03*
X1336320Y810425D03*
X1331320Y810425D03*
X1326320Y810425D03*
X1321320Y810425D03*
X1316320Y810425D03*
D12*
X1334215Y621665D03*
X1344215Y621665D03*
D13*
X1379335Y602900D03*
X1379335Y585900D03*
X1365335Y585900D03*
X1365335Y602900D03*
D12*
X1375330Y574040D03*
X1365330Y574040D03*
X1365330Y614680D03*
X1375330Y614680D03*
X1323658Y650478D03*
X1323658Y640478D03*
X1313815Y629523D03*
X1313815Y619523D03*
X1368980Y683260D03*
X1358980Y683260D03*
X1358980Y647700D03*
X1368980Y647700D03*
X1398588Y638573D03*
X1398588Y648573D03*
X1344295Y631588D03*
X1344295Y641588D03*
X1353900Y629603D03*
X1363900Y629603D03*
D14*
X1354780Y658980D03*
X1373180Y665480D03*
X1373180Y671980D03*
X1373180Y658980D03*
X1354780Y665480D03*
X1354780Y671980D03*
D15*
X1332230Y609400D03*
X1332230Y584400D03*
D12*
X1347470Y600155D03*
X1347470Y610155D03*
X1347470Y590470D03*
X1347470Y580470D03*
X1360885Y692785D03*
X1370885Y692785D03*
X1323658Y661115D03*
X1323658Y671115D03*
X1354455Y457915D03*
X1354455Y467915D03*
X1313260Y441960D03*
X1323260Y441960D03*
X1323260Y484505D03*
X1313260Y484505D03*
D16*
X1316054Y453415D03*
X1316054Y462915D03*
X1316054Y472415D03*
X1342056Y472415D03*
X1342056Y453415D03*
D10*
X1563880Y785425D03*
D11*
X1553880Y810425D03*
X1548880Y810425D03*
D10*
X1468880Y785425D03*
D11*
X1543880Y810425D03*
X1538880Y810425D03*
X1533880Y810425D03*
X1528880Y810425D03*
X1523880Y810425D03*
X1518880Y810425D03*
X1513880Y810425D03*
X1508880Y810425D03*
X1503880Y810425D03*
X1498880Y810425D03*
X1493880Y810425D03*
X1488880Y810425D03*
X1483880Y810425D03*
X1478880Y810425D03*
D12*
X1496775Y621665D03*
X1506775Y621665D03*
D13*
X1541895Y602900D03*
X1541895Y585900D03*
X1527895Y585900D03*
X1527895Y602900D03*
D12*
X1537890Y574040D03*
X1527890Y574040D03*
X1527890Y614680D03*
X1537890Y614680D03*
X1486218Y650478D03*
X1486218Y640478D03*
X1476375Y629523D03*
X1476375Y619523D03*
X1531540Y683260D03*
X1521540Y683260D03*
X1521540Y647700D03*
X1531540Y647700D03*
X1561148Y638573D03*
X1561148Y648573D03*
X1506855Y631588D03*
X1506855Y641588D03*
X1516460Y629603D03*
X1526460Y629603D03*
D14*
X1517340Y658980D03*
X1535740Y665480D03*
X1535740Y671980D03*
X1535740Y658980D03*
X1517340Y665480D03*
X1517340Y671980D03*
D15*
X1494790Y609400D03*
X1494790Y584400D03*
D12*
X1510030Y600155D03*
X1510030Y610155D03*
X1510030Y590470D03*
X1510030Y580470D03*
X1523445Y692785D03*
X1533445Y692785D03*
X1486218Y661115D03*
X1486218Y671115D03*
X1517015Y457915D03*
X1517015Y467915D03*
X1475820Y441960D03*
X1485820Y441960D03*
X1485820Y484505D03*
X1475820Y484505D03*
D16*
X1478614Y453415D03*
X1478614Y462915D03*
X1478614Y472415D03*
X1504616Y472415D03*
X1504616Y453415D03*
M02*
