M48
;GenerationSoftware,Autodesk,EAGLE,9.6.2*%
;CreationDate,2021-05-13T12:16:51Z*%
FMAT,2
ICI,OFF
METRIC,TZ,000.000
T3C0.200
T2C0.400
T1C0.650
%
G90
M71
T1
X116236Y5667
X2444Y5667
X8224Y5667
X18700Y5667
X24480Y5667
X34956Y5667
X40736Y5667
X51212Y5667
X56992Y5667
X67468Y5667
X73248Y5667
X83724Y5667
X89504Y5667
X99980Y5667
X105760Y5667
X67468Y76121
X122016Y5667
X132492Y5667
X138272Y5667
X148748Y5667
X154528Y5667
X8224Y76121
X2444Y76121
X24480Y76121
X18700Y76121
X40736Y76121
X34956Y76121
X56992Y76121
X51212Y76121
X73248Y76121
X148748Y76121
X89504Y76121
X83724Y76121
X105760Y76121
X99980Y76121
X122016Y76121
X116236Y76121
X138272Y76121
X132492Y76121
X154528Y76121
T2
X155956Y75591
X1016Y2017
X9652Y2017
X9652Y6197
X1016Y6197
X17272Y2017
X25908Y2017
X25908Y6197
X17272Y6197
X33528Y2017
X42164Y2017
X42164Y6197
X33528Y6197
X49784Y2017
X58420Y2017
X58420Y6197
X49784Y6197
X66040Y2017
X74676Y2017
X74676Y6197
X66040Y6197
X82296Y2017
X90932Y2017
X90932Y6197
X82296Y6197
X98552Y2017
X107188Y2017
X107188Y6197
X98552Y6197
X114808Y2017
X123444Y2017
X123444Y6197
X114808Y6197
X131064Y2017
X139700Y2017
X139700Y6197
X131064Y6197
X147320Y2017
X155956Y2017
X155956Y6197
X147320Y6197
X9652Y79771
X1016Y79771
X1016Y75591
X9652Y75591
X25908Y79771
X17272Y79771
X17272Y75591
X25908Y75591
X42164Y79771
X33528Y79771
X33528Y75591
X42164Y75591
X58420Y79771
X49784Y79771
X49784Y75591
X58420Y75591
X74676Y79771
X66040Y79771
X66040Y75591
X74676Y75591
X90932Y79771
X82296Y79771
X82296Y75591
X90932Y75591
X107188Y79771
X98552Y79771
X98552Y75591
X107188Y75591
X123444Y79771
X114808Y79771
X114808Y75591
X123444Y75591
X139700Y79771
X131064Y79771
X131064Y75591
X139700Y75591
X155956Y79771
X147320Y79771
X147320Y75591
T3
X5080Y7609
X6032Y7620
X6921Y10247
X7747Y11049
X7525Y15684
X6477Y26225
X6096Y16447
X6477Y5461
X2540Y9906
X9144Y27559
X3885Y9843
X8586Y19590
X7810Y14160
X7810Y12700
X9184Y32142
X18800Y1651
X24360Y1651
X24257Y2159
X24320Y38926
X24320Y38481
X18833Y38936
X18840Y38435
X18916Y2159
X22034Y8128
X19050Y11239
X26479Y7556
X16701Y7620
X21590Y12700
X21590Y22098
X23781Y16415
X23558Y14986
X22542Y16955
X19431Y33909
X24066Y35497
X23781Y17526
X21114Y9557
X18860Y15113
X20892Y17717
X18352Y26289
X25400Y26543
X24511Y24511
X23812Y25209
X17602Y38245
X18300Y34562
X18332Y29164
X24714Y30243
X24841Y32148
X26111Y39197
X25019Y4445
X18669Y4445
X16764Y4445
X22796Y3175
X18606Y13081
X23126Y29227
X19316Y29227
X21856Y31767
X19316Y31767
X20574Y37148
X17030Y39134
X23241Y26479
X24066Y36005
X19308Y1460
X19304Y39180
X16902Y23495
X19813Y1460
X19812Y39180
X17209Y23082
X20318Y1460
X20317Y39180
X17499Y20860
X20823Y1460
X20828Y39180
X17993Y23717
X21328Y1460
X21333Y39180
X25319Y24416
X21832Y1460
X21838Y39180
X24860Y24131
X21749Y37168
X22337Y1460
X22319Y38947
X25590Y20511
X22842Y1460
X22800Y39180
X25998Y20923
X23347Y1460
X23304Y39180
X18337Y19433
X23851Y1460
X23809Y39180
X17797Y20447
X18363Y38672
X18363Y39180
X18308Y1397
X24828Y1397
X24828Y39180
X24832Y38672
X23273Y18479
X21590Y18161
X17778Y22098
X18337Y18928
X19195Y18572
X22733Y35751
X22733Y35243
X18352Y27114
X18352Y27686
X23812Y25908
X23812Y26416
X18308Y1968
X24828Y1968
X25336Y38683
X25336Y39180
X25971Y572
X26416Y572
X24955Y3238
X24955Y2731
X22733Y9779
X24066Y10414
X17844Y39180
X17209Y572
X22225Y38259
X24447Y34544
X24842Y20094
X25998Y21844
X25998Y22352
X24431Y19287
X23665Y18800
X23778Y18296
X19433Y25146
X18859Y26734
X18923Y14065
X20796Y15875
X19679Y18865
X18337Y18423
X21336Y7609
X22288Y7620
X23177Y10247
X24003Y11049
X23781Y15684
X22733Y26225
X22352Y16447
X22733Y5461
X18796Y9906
X25400Y27559
X20141Y9843
X24842Y19590
X24066Y14160
X24066Y12700
X25440Y32142
X35056Y1651
X40616Y1651
X40513Y2159
X40577Y38926
X40577Y38481
X35089Y38936
X35096Y38435
X35172Y2159
X38291Y8128
X35306Y11239
X42736Y7556
X32957Y7620
X37846Y12700
X37846Y22098
X40037Y16415
X39815Y14986
X38799Y16955
X35687Y33909
X40323Y35497
X40037Y17526
X37370Y9557
X35116Y15113
X37148Y17717
X34608Y26289
X41656Y26543
X40767Y24511
X40069Y25209
X33858Y38245
X34556Y34562
X34588Y29164
X40970Y30243
X41097Y32148
X42367Y39197
X41275Y4445
X34925Y4445
X33020Y4445
X39053Y3175
X34862Y13081
X39382Y29227
X35572Y29227
X38112Y31767
X35572Y31767
X36830Y37148
X33286Y39134
X39497Y26479
X40323Y36005
X35564Y1460
X35560Y39180
X33158Y23495
X36069Y1460
X36068Y39180
X33465Y23082
X36574Y1460
X36573Y39180
X33755Y20860
X37079Y1460
X37084Y39180
X34249Y23717
X37584Y1460
X37589Y39180
X41575Y24416
X38088Y1460
X38094Y39180
X41116Y24131
X38005Y37168
X38593Y1460
X38575Y38947
X41847Y20511
X39098Y1460
X39056Y39180
X42255Y20923
X39603Y1460
X39561Y39180
X34593Y19433
X40108Y1460
X40065Y39180
X34053Y20447
X34619Y38672
X34619Y39180
X34564Y1397
X41085Y1397
X41085Y39180
X41088Y38672
X39529Y18479
X37846Y18161
X34034Y22098
X34593Y18928
X35451Y18572
X38989Y35751
X38989Y35243
X34608Y27114
X34608Y27686
X40069Y25908
X40069Y26416
X34564Y1968
X41085Y1968
X41593Y38683
X41593Y39180
X42228Y572
X42672Y572
X41212Y3238
X41212Y2731
X38989Y9779
X40323Y10414
X34100Y39180
X33465Y572
X38481Y38259
X40704Y34544
X41098Y20094
X42255Y21844
X42255Y22352
X40687Y19287
X39921Y18800
X40034Y18296
X35689Y25146
X35115Y26734
X35179Y14065
X37052Y15875
X35935Y18865
X34593Y18423
X37592Y7609
X38545Y7620
X39434Y10247
X40259Y11049
X40037Y15684
X38989Y26225
X38608Y16447
X38989Y5461
X35052Y9906
X41656Y27559
X36397Y9843
X41098Y19590
X40323Y14160
X40323Y12700
X41696Y32142
X51312Y1651
X56872Y1651
X56769Y2159
X56832Y38926
X56832Y38481
X51345Y38936
X51352Y38435
X51428Y2159
X54546Y8128
X51562Y11239
X58991Y7556
X49212Y7620
X54102Y12700
X54102Y22098
X56293Y16415
X56070Y14986
X55054Y16955
X51943Y33909
X56578Y35497
X56293Y17526
X53626Y9557
X51371Y15113
X53403Y17717
X50863Y26289
X57912Y26543
X57023Y24511
X56324Y25209
X50114Y38245
X50812Y34562
X50844Y29164
X57226Y30243
X57353Y32148
X58623Y39197
X57531Y4445
X51181Y4445
X49276Y4445
X55308Y3175
X51117Y13081
X55638Y29227
X51828Y29227
X54368Y31767
X51828Y31767
X53086Y37148
X49542Y39134
X55753Y26479
X56578Y36005
X51820Y1460
X51816Y39180
X49414Y23495
X52325Y1460
X52324Y39180
X49720Y23082
X52830Y1460
X52829Y39180
X50011Y20860
X53335Y1460
X53340Y39180
X50505Y23717
X53839Y1460
X53845Y39180
X57831Y24416
X54344Y1460
X54350Y39180
X57372Y24131
X54261Y37168
X54849Y1460
X54831Y38947
X58102Y20511
X55354Y1460
X55312Y39180
X58510Y20923
X55859Y1460
X55816Y39180
X50849Y19433
X56363Y1460
X56321Y39180
X50309Y20447
X50875Y38672
X50875Y39180
X50820Y1397
X57340Y1397
X57340Y39180
X57344Y38672
X55785Y18479
X54102Y18161
X50290Y22098
X50849Y18928
X51707Y18572
X55245Y35751
X55245Y35243
X50863Y27114
X50863Y27686
X56324Y25908
X56324Y26416
X50820Y1968
X57340Y1968
X57848Y38683
X57848Y39180
X58483Y572
X58928Y572
X57467Y3238
X57467Y2731
X55245Y9779
X56578Y10414
X50355Y39180
X49720Y572
X54737Y38259
X56959Y34544
X57354Y20094
X58510Y21844
X58510Y22352
X56943Y19287
X56177Y18800
X56290Y18296
X51945Y25146
X51371Y26734
X51435Y14065
X53308Y15875
X52191Y18865
X50849Y18423
X53848Y7609
X54800Y7620
X55689Y10247
X56515Y11049
X56293Y15684
X55245Y26225
X54864Y16447
X55245Y5461
X51308Y9906
X57912Y27559
X52653Y9843
X57354Y19590
X56578Y14160
X56578Y12700
X57952Y32142
X67568Y1651
X73128Y1651
X73025Y2159
X73089Y38926
X73089Y38481
X67601Y38936
X67608Y38435
X67684Y2159
X70803Y8128
X67818Y11239
X75248Y7556
X65468Y7620
X70358Y12700
X70358Y22098
X72549Y16415
X72327Y14986
X71311Y16955
X68199Y33909
X72835Y35497
X72549Y17526
X69882Y9557
X67628Y15113
X69660Y17717
X67120Y26289
X74168Y26543
X73279Y24511
X72581Y25209
X66370Y38245
X67068Y34562
X67100Y29164
X73482Y30243
X73609Y32148
X74879Y39197
X73787Y4445
X67437Y4445
X65532Y4445
X71565Y3175
X67374Y13081
X71894Y29227
X68084Y29227
X70624Y31767
X68084Y31767
X69342Y37148
X65798Y39134
X72009Y26479
X72835Y36005
X68076Y1460
X68072Y39180
X65670Y23495
X68581Y1460
X68580Y39180
X65977Y23082
X69086Y1460
X69085Y39180
X66267Y20860
X69591Y1460
X69596Y39180
X66761Y23717
X70096Y1460
X70101Y39180
X74087Y24416
X70600Y1460
X70606Y39180
X73628Y24131
X70517Y37168
X71105Y1460
X71087Y38947
X74359Y20511
X71610Y1460
X71568Y39180
X74767Y20923
X72115Y1460
X72073Y39180
X67105Y19433
X72620Y1460
X72577Y39180
X66565Y20447
X67131Y38672
X67131Y39180
X67076Y1397
X73597Y1397
X73597Y39180
X73600Y38672
X72041Y18479
X70358Y18161
X66546Y22098
X67105Y18928
X67963Y18572
X71501Y35751
X71501Y35243
X67120Y27114
X67120Y27686
X72581Y25908
X72581Y26416
X67076Y1968
X73597Y1968
X74105Y38683
X74105Y39180
X74740Y572
X75184Y572
X73724Y3238
X73724Y2731
X71501Y9779
X72835Y10414
X66612Y39180
X65977Y572
X70993Y38259
X73216Y34544
X73610Y20094
X74767Y21844
X74767Y22352
X73199Y19287
X72433Y18800
X72546Y18296
X68201Y25146
X67627Y26734
X67691Y14065
X69564Y15875
X68447Y18865
X67105Y18423
X70104Y7609
X71057Y7620
X71946Y10247
X72771Y11049
X72549Y15684
X71501Y26225
X71120Y16447
X71501Y5461
X67564Y9906
X74168Y27559
X68909Y9843
X73610Y19590
X72835Y14160
X72835Y12700
X74208Y32142
X83824Y1651
X89384Y1651
X89281Y2159
X89344Y38926
X89344Y38481
X83857Y38936
X83864Y38435
X83940Y2159
X87059Y8128
X84074Y11239
X91503Y7556
X81725Y7620
X86614Y12700
X86614Y22098
X88805Y16415
X88582Y14986
X87566Y16955
X84455Y33909
X89090Y35497
X88805Y17526
X86138Y9557
X83884Y15113
X85916Y17717
X83376Y26289
X90424Y26543
X89535Y24511
X88836Y25209
X82626Y38245
X83324Y34562
X83356Y29164
X89738Y30243
X89865Y32148
X91135Y39197
X90043Y4445
X83693Y4445
X81788Y4445
X87820Y3175
X83630Y13081
X88150Y29227
X84340Y29227
X86880Y31767
X84340Y31767
X85598Y37148
X82054Y39134
X88265Y26479
X89090Y36005
X84332Y1460
X84328Y39180
X81926Y23495
X84837Y1460
X84836Y39180
X82233Y23082
X85342Y1460
X85341Y39180
X82523Y20860
X85847Y1460
X85852Y39180
X83017Y23717
X86352Y1460
X86357Y39180
X90343Y24416
X86856Y1460
X86862Y39180
X89884Y24131
X86773Y37168
X87361Y1460
X87343Y38947
X90614Y20511
X87866Y1460
X87824Y39180
X91022Y20923
X88371Y1460
X88328Y39180
X83361Y19433
X88875Y1460
X88833Y39180
X82821Y20447
X83387Y38672
X83387Y39180
X83332Y1397
X89852Y1397
X89852Y39180
X89856Y38672
X88297Y18479
X86614Y18161
X82802Y22098
X83361Y18928
X84219Y18572
X87757Y35751
X87757Y35243
X83376Y27114
X83376Y27686
X88836Y25908
X88836Y26416
X83332Y1968
X89852Y1968
X90360Y38683
X90360Y39180
X90995Y572
X91440Y572
X89979Y3238
X89979Y2731
X87757Y9779
X89090Y10414
X82868Y39180
X82233Y572
X87249Y38259
X89471Y34544
X89866Y20094
X91022Y21844
X91022Y22352
X89455Y19287
X88689Y18800
X88802Y18296
X84457Y25146
X83883Y26734
X83947Y14065
X85820Y15875
X84703Y18865
X83361Y18423
X86360Y7609
X87313Y7620
X88201Y10247
X89027Y11049
X88805Y15684
X87757Y26225
X87376Y16447
X87757Y5461
X83820Y9906
X90424Y27559
X85165Y9843
X89866Y19590
X89090Y14160
X89090Y12700
X90464Y32142
X100080Y1651
X105640Y1651
X105537Y2159
X105600Y38926
X105600Y38481
X100113Y38936
X100120Y38435
X100196Y2159
X103314Y8128
X100330Y11239
X107759Y7556
X97980Y7620
X102870Y12700
X102870Y22098
X105061Y16415
X104838Y14986
X103822Y16955
X100711Y33909
X105346Y35497
X105061Y17526
X102394Y9557
X100139Y15113
X102171Y17717
X99631Y26289
X106680Y26543
X105791Y24511
X105092Y25209
X98882Y38245
X99580Y34562
X99612Y29164
X105994Y30243
X106121Y32148
X107391Y39197
X106299Y4445
X99949Y4445
X98044Y4445
X104076Y3175
X99885Y13081
X104406Y29227
X100596Y29227
X103136Y31767
X100596Y31767
X101854Y37148
X98310Y39134
X104521Y26479
X105346Y36005
X100588Y1460
X100584Y39180
X98182Y23495
X101093Y1460
X101092Y39180
X98488Y23082
X101598Y1460
X101597Y39180
X98779Y20860
X102103Y1460
X102108Y39180
X99273Y23717
X102607Y1460
X102613Y39180
X106599Y24416
X103112Y1460
X103118Y39180
X106140Y24131
X103029Y37168
X103617Y1460
X103599Y38947
X106870Y20511
X104122Y1460
X104080Y39180
X107278Y20923
X104627Y1460
X104584Y39180
X99617Y19433
X105131Y1460
X105089Y39180
X99077Y20447
X99643Y38672
X99643Y39180
X99588Y1397
X106108Y1397
X106108Y39180
X106112Y38672
X104553Y18479
X102870Y18161
X99058Y22098
X99617Y18928
X100475Y18572
X104013Y35751
X104013Y35243
X99631Y27114
X99631Y27686
X105092Y25908
X105092Y26416
X99588Y1968
X106108Y1968
X106616Y38683
X106616Y39180
X107251Y572
X107696Y572
X106235Y3238
X106235Y2731
X104013Y9779
X105346Y10414
X99123Y39180
X98488Y572
X103505Y38259
X105727Y34544
X106122Y20094
X107278Y21844
X107278Y22352
X105711Y19287
X104945Y18800
X105058Y18296
X100713Y25146
X100139Y26734
X100203Y14065
X102076Y15875
X100959Y18865
X99617Y18423
X102616Y7609
X103568Y7620
X104457Y10247
X105283Y11049
X105061Y15684
X104013Y26225
X103632Y16447
X104013Y5461
X100076Y9906
X106680Y27559
X101421Y9843
X106122Y19590
X105346Y14160
X105346Y12700
X106720Y32142
X116336Y1651
X121896Y1651
X121793Y2159
X121856Y38926
X121856Y38481
X116369Y38936
X116376Y38435
X116452Y2159
X119570Y8128
X116586Y11239
X124015Y7556
X114236Y7620
X119126Y12700
X119126Y22098
X121317Y16415
X121094Y14986
X120078Y16955
X116967Y33909
X121602Y35497
X121317Y17526
X118650Y9557
X116395Y15113
X118427Y17717
X115887Y26289
X122936Y26543
X122047Y24511
X121348Y25209
X115138Y38245
X115836Y34562
X115868Y29164
X122250Y30243
X122377Y32148
X123647Y39197
X122555Y4445
X116205Y4445
X114300Y4445
X120332Y3175
X116141Y13081
X120662Y29227
X116852Y29227
X119392Y31767
X116852Y31767
X118110Y37148
X114566Y39134
X120777Y26479
X121602Y36005
X116844Y1460
X116840Y39180
X114438Y23495
X117349Y1460
X117348Y39180
X114744Y23082
X117854Y1460
X117853Y39180
X115035Y20860
X118359Y1460
X118364Y39180
X115529Y23717
X118863Y1460
X118869Y39180
X122855Y24416
X119368Y1460
X119374Y39180
X122396Y24131
X119285Y37168
X119873Y1460
X119855Y38947
X123126Y20511
X120378Y1460
X120336Y39180
X123534Y20923
X120883Y1460
X120840Y39180
X115873Y19433
X121387Y1460
X121345Y39180
X115333Y20447
X115899Y38672
X115899Y39180
X115844Y1397
X122364Y1397
X122364Y39180
X122368Y38672
X120809Y18479
X119126Y18161
X115314Y22098
X115873Y18928
X116731Y18572
X120269Y35751
X120269Y35243
X115887Y27114
X115887Y27686
X121348Y25908
X121348Y26416
X115844Y1968
X122364Y1968
X122872Y38683
X122872Y39180
X123507Y572
X123952Y572
X122491Y3238
X122491Y2731
X120269Y9779
X121602Y10414
X115379Y39180
X114744Y572
X119761Y38259
X121983Y34544
X122378Y20094
X123534Y21844
X123534Y22352
X121967Y19287
X121201Y18800
X121314Y18296
X116969Y25146
X116395Y26734
X116459Y14065
X118332Y15875
X117215Y18865
X115873Y18423
X118872Y7609
X119824Y7620
X120713Y10247
X121539Y11049
X121317Y15684
X120269Y26225
X119888Y16447
X120269Y5461
X116332Y9906
X122936Y27559
X117677Y9843
X122378Y19590
X121602Y14160
X121602Y12700
X122976Y32142
X132592Y1651
X138152Y1651
X138049Y2159
X138113Y38926
X138113Y38481
X132625Y38936
X132632Y38435
X132708Y2159
X135827Y8128
X132842Y11239
X140272Y7556
X130492Y7620
X135382Y12700
X135382Y22098
X137573Y16415
X137351Y14986
X136335Y16955
X133223Y33909
X137859Y35497
X137573Y17526
X134906Y9557
X132652Y15113
X134684Y17717
X132144Y26289
X139192Y26543
X138303Y24511
X137605Y25209
X131394Y38245
X132092Y34562
X132124Y29164
X138506Y30243
X138633Y32148
X139903Y39197
X138811Y4445
X132461Y4445
X130556Y4445
X136589Y3175
X132398Y13081
X136918Y29227
X133108Y29227
X135648Y31767
X133108Y31767
X134366Y37148
X130822Y39134
X137033Y26479
X137859Y36005
X133100Y1460
X133096Y39180
X130694Y23495
X133605Y1460
X133604Y39180
X131000Y23082
X134110Y1460
X134109Y39180
X131291Y20860
X134615Y1460
X134620Y39180
X131785Y23717
X135120Y1460
X135125Y39180
X139111Y24416
X135624Y1460
X135630Y39180
X138652Y24131
X135541Y37168
X136129Y1460
X136111Y38947
X139383Y20511
X136634Y1460
X136592Y39180
X139791Y20923
X137139Y1460
X137097Y39180
X132129Y19433
X137644Y1460
X137601Y39180
X131589Y20447
X132155Y38672
X132155Y39180
X132100Y1397
X138621Y1397
X138621Y39180
X138624Y38672
X137065Y18479
X135382Y18161
X131570Y22098
X132129Y18928
X132987Y18572
X136525Y35751
X136525Y35243
X132144Y27114
X132144Y27686
X137605Y25908
X137605Y26416
X132100Y1968
X138621Y1968
X139129Y38683
X139129Y39180
X139764Y572
X140208Y572
X138748Y3238
X138748Y2731
X136525Y9779
X137859Y10414
X131636Y39180
X131000Y572
X136017Y38259
X138240Y34544
X138634Y20094
X139791Y21844
X139791Y22352
X138223Y19287
X137457Y18800
X137570Y18296
X133225Y25146
X132651Y26734
X132715Y14065
X134588Y15875
X133471Y18865
X132129Y18423
X135128Y7609
X136081Y7620
X136970Y10247
X137795Y11049
X137573Y15684
X136525Y26225
X136144Y16447
X136525Y5461
X132588Y9906
X139192Y27559
X133933Y9843
X138634Y19590
X137859Y14160
X137859Y12700
X139232Y32142
X148848Y1651
X154408Y1651
X154305Y2159
X154369Y38926
X154369Y38481
X148881Y38936
X148888Y38435
X148964Y2159
X152083Y8128
X149098Y11239
X156528Y7556
X146749Y7620
X151638Y12700
X151638Y22098
X153829Y16415
X153607Y14986
X152591Y16955
X149479Y33909
X154115Y35497
X153829Y17526
X151162Y9557
X148908Y15113
X150940Y17717
X148400Y26289
X155448Y26543
X154559Y24511
X153861Y25209
X147650Y38245
X148348Y34562
X148380Y29164
X154762Y30243
X154889Y32148
X156159Y39197
X155067Y4445
X148717Y4445
X146812Y4445
X152845Y3175
X148654Y13081
X153174Y29227
X149364Y29227
X151904Y31767
X149364Y31767
X150622Y37148
X147078Y39134
X153289Y26479
X154115Y36005
X149356Y1460
X149352Y39180
X146950Y23495
X149861Y1460
X149860Y39180
X147257Y23082
X150366Y1460
X150365Y39180
X147547Y20860
X150871Y1460
X150876Y39180
X148041Y23717
X151376Y1460
X151381Y39180
X155367Y24416
X151880Y1460
X151886Y39180
X154908Y24131
X151797Y37168
X152385Y1460
X152367Y38947
X155639Y20511
X152890Y1460
X152848Y39180
X156047Y20923
X153395Y1460
X153353Y39180
X148385Y19433
X153900Y1460
X153857Y39180
X147845Y20447
X148411Y38672
X148411Y39180
X148356Y1397
X154877Y1397
X154877Y39180
X154880Y38672
X153321Y18479
X151638Y18161
X147826Y22098
X148385Y18928
X149243Y18572
X152781Y35751
X152781Y35243
X148400Y27114
X148400Y27686
X153861Y25908
X153861Y26416
X148356Y1968
X154877Y1968
X155385Y38683
X155385Y39180
X156020Y572
X156464Y572
X155004Y3238
X155004Y2731
X152781Y9779
X154115Y10414
X147892Y39180
X147257Y572
X152273Y38259
X154496Y34544
X154890Y20094
X156047Y21844
X156047Y22352
X154479Y19287
X153713Y18800
X153826Y18296
X149481Y25146
X148907Y26734
X148971Y14065
X150844Y15875
X149727Y18865
X148385Y18423
X151384Y7609
X152337Y7620
X153226Y10247
X154051Y11049
X153829Y15684
X152781Y26225
X152400Y16447
X152781Y5461
X148844Y9906
X155448Y27559
X150189Y9843
X154890Y19590
X154115Y14160
X154115Y12700
X155488Y32142
X8124Y80137
X2564Y80137
X2667Y79629
X2604Y42863
X2604Y43307
X8091Y42852
X8084Y43353
X8008Y79629
X4890Y73660
X7874Y70549
X444Y74232
X10224Y74168
X5334Y69088
X5334Y59690
X3143Y65373
X3365Y66802
X4382Y64833
X7493Y47879
X2857Y46291
X3143Y64262
X5810Y72231
X8064Y66675
X6032Y64071
X8573Y55499
X1524Y55245
X2413Y57277
X3111Y56578
X9322Y43544
X8624Y47226
X8592Y52624
X2210Y51544
X2083Y49639
X813Y42591
X1905Y77343
X8255Y77343
X10160Y77343
X4128Y78613
X8319Y68707
X3798Y52560
X7608Y52560
X5068Y50020
X7608Y50020
X6350Y44640
X9894Y42655
X3683Y55308
X2857Y45783
X7616Y80328
X7620Y42609
X10022Y58293
X7111Y80328
X7112Y42609
X9716Y58706
X6606Y80328
X6607Y42609
X9425Y60928
X6101Y80328
X6096Y42609
X8931Y58071
X5596Y80328
X5591Y42609
X1605Y57372
X5092Y80328
X5086Y42609
X2064Y57657
X5175Y44620
X4587Y80328
X4605Y42841
X1334Y61277
X4082Y80328
X4124Y42609
X925Y60865
X3577Y80328
X3619Y42609
X8587Y62355
X3072Y80328
X3115Y42609
X9127Y61341
X8561Y43117
X8561Y42609
X8616Y80391
X2096Y80391
X2096Y42609
X2092Y43117
X3651Y63309
X5334Y63627
X9146Y59690
X8587Y62860
X7729Y63216
X4191Y46037
X4191Y46545
X8573Y54673
X8573Y54102
X3111Y55880
X3111Y55372
X8616Y79820
X2096Y79820
X1587Y43105
X1587Y42609
X952Y81217
X508Y81217
X1968Y78550
X1968Y79058
X4191Y72009
X2857Y71374
X9081Y42609
X9716Y81217
X4699Y43529
X2477Y47244
X2082Y61694
X925Y59944
X925Y59436
X2493Y62501
X3259Y62988
X3146Y63492
X7491Y56642
X8065Y55054
X8001Y67723
X6128Y65913
X7245Y62923
X8587Y63365
X5588Y74179
X4636Y74168
X3746Y71541
X2921Y70739
X3143Y66104
X4191Y55562
X4572Y65341
X4191Y76327
X8128Y71882
X1524Y54229
X6783Y71946
X2082Y62198
X2857Y67628
X2857Y69088
X1484Y49646
X24380Y80137
X18820Y80137
X18923Y79629
X18860Y42863
X18860Y43307
X24347Y42852
X24340Y43353
X24264Y79629
X21146Y73660
X24130Y70549
X16701Y74232
X26479Y74168
X21590Y69088
X21590Y59690
X19399Y65373
X19622Y66802
X20638Y64833
X23749Y47879
X19114Y46291
X19399Y64262
X22066Y72231
X24320Y66675
X22288Y64071
X24828Y55499
X17780Y55245
X18669Y57277
X19368Y56578
X25578Y43544
X24880Y47226
X24848Y52624
X18466Y51544
X18339Y49639
X17069Y42591
X18161Y77343
X24511Y77343
X26416Y77343
X20384Y78613
X24574Y68707
X20054Y52560
X23864Y52560
X21324Y50020
X23864Y50020
X22606Y44640
X26150Y42655
X19939Y55308
X19114Y45783
X23872Y80328
X23876Y42609
X26278Y58293
X23367Y80328
X23368Y42609
X25971Y58706
X22862Y80328
X22863Y42609
X25681Y60928
X22357Y80328
X22352Y42609
X25187Y58071
X21852Y80328
X21847Y42609
X17861Y57372
X21348Y80328
X21342Y42609
X18320Y57657
X21431Y44620
X20843Y80328
X20861Y42841
X17590Y61277
X20338Y80328
X20380Y42609
X17182Y60865
X19833Y80328
X19876Y42609
X24843Y62355
X19329Y80328
X19371Y42609
X25383Y61341
X24817Y43117
X24817Y42609
X24872Y80391
X18352Y80391
X18352Y42609
X18348Y43117
X19907Y63309
X21590Y63627
X25402Y59690
X24843Y62860
X23985Y63216
X20447Y46037
X20447Y46545
X24828Y54673
X24828Y54102
X19368Y55880
X19368Y55372
X24872Y79820
X18352Y79820
X17844Y43105
X17844Y42609
X17209Y81217
X16764Y81217
X18225Y78550
X18225Y79058
X20447Y72009
X19114Y71374
X25336Y42609
X25971Y81217
X20955Y43529
X18733Y47244
X18338Y61694
X17182Y59944
X17182Y59436
X18749Y62501
X19515Y62988
X19402Y63492
X23747Y56642
X24321Y55054
X24257Y67723
X22384Y65913
X23501Y62923
X24843Y63365
X21844Y74179
X20892Y74168
X20003Y71541
X19177Y70739
X19399Y66104
X20447Y55562
X20828Y65341
X20447Y76327
X24384Y71882
X17780Y54229
X23039Y71946
X18338Y62198
X19114Y67628
X19114Y69088
X17740Y49646
X40636Y80137
X35076Y80137
X35179Y79629
X35116Y42863
X35116Y43307
X40603Y42852
X40596Y43353
X40520Y79629
X37402Y73660
X40386Y70549
X32957Y74232
X42736Y74168
X37846Y69088
X37846Y59690
X35655Y65373
X35878Y66802
X36894Y64833
X40005Y47879
X35370Y46291
X35655Y64262
X38322Y72231
X40577Y66675
X38545Y64071
X41085Y55499
X34036Y55245
X34925Y57277
X35624Y56578
X41834Y43544
X41136Y47226
X41104Y52624
X34722Y51544
X34595Y49639
X33325Y42591
X34417Y77343
X40767Y77343
X42672Y77343
X36640Y78613
X40831Y68707
X36310Y52560
X40120Y52560
X37580Y50020
X40120Y50020
X38862Y44640
X42406Y42655
X36195Y55308
X35370Y45783
X40128Y80328
X40132Y42609
X42534Y58293
X39623Y80328
X39624Y42609
X42228Y58706
X39118Y80328
X39119Y42609
X41937Y60928
X38613Y80328
X38608Y42609
X41443Y58071
X38109Y80328
X38103Y42609
X34117Y57372
X37604Y80328
X37598Y42609
X34576Y57657
X37687Y44620
X37099Y80328
X37117Y42841
X33846Y61277
X36594Y80328
X36636Y42609
X33438Y60865
X36089Y80328
X36132Y42609
X41099Y62355
X35585Y80328
X35627Y42609
X41639Y61341
X41073Y43117
X41073Y42609
X41128Y80391
X34608Y80391
X34608Y42609
X34604Y43117
X36163Y63309
X37846Y63627
X41658Y59690
X41099Y62860
X40241Y63216
X36703Y46037
X36703Y46545
X41085Y54673
X41085Y54102
X35624Y55880
X35624Y55372
X41128Y79820
X34608Y79820
X34100Y43105
X34100Y42609
X33465Y81217
X33020Y81217
X34481Y78550
X34481Y79058
X36703Y72009
X35370Y71374
X41593Y42609
X42228Y81217
X37211Y43529
X34989Y47244
X34594Y61694
X33438Y59944
X33438Y59436
X35005Y62501
X35771Y62988
X35658Y63492
X40003Y56642
X40577Y55054
X40513Y67723
X38640Y65913
X39757Y62923
X41099Y63365
X38100Y74179
X37148Y74168
X36259Y71541
X35433Y70739
X35655Y66104
X36703Y55562
X37084Y65341
X36703Y76327
X40640Y71882
X34036Y54229
X39295Y71946
X34594Y62198
X35370Y67628
X35370Y69088
X33996Y49646
X56892Y80137
X51332Y80137
X51435Y79629
X51371Y42863
X51371Y43307
X56859Y42852
X56852Y43353
X56776Y79629
X53657Y73660
X56642Y70549
X49212Y74232
X58991Y74168
X54102Y69088
X54102Y59690
X51911Y65373
X52133Y66802
X53149Y64833
X56261Y47879
X51625Y46291
X51911Y64262
X54578Y72231
X56832Y66675
X54800Y64071
X57340Y55499
X50292Y55245
X51181Y57277
X51879Y56578
X58090Y43544
X57392Y47226
X57360Y52624
X50978Y51544
X50851Y49639
X49581Y42591
X50673Y77343
X57023Y77343
X58928Y77343
X52895Y78613
X57086Y68707
X52566Y52560
X56376Y52560
X53836Y50020
X56376Y50020
X55118Y44640
X58662Y42655
X52451Y55308
X51625Y45783
X56384Y80328
X56388Y42609
X58790Y58293
X55879Y80328
X55880Y42609
X58483Y58706
X55374Y80328
X55375Y42609
X58193Y60928
X54869Y80328
X54864Y42609
X57699Y58071
X54364Y80328
X54359Y42609
X50373Y57372
X53860Y80328
X53854Y42609
X50832Y57657
X53943Y44620
X53355Y80328
X53373Y42841
X50101Y61277
X52850Y80328
X52892Y42609
X49693Y60865
X52345Y80328
X52387Y42609
X57355Y62355
X51840Y80328
X51883Y42609
X57895Y61341
X57329Y43117
X57329Y42609
X57384Y80391
X50863Y80391
X50863Y42609
X50860Y43117
X52419Y63309
X54102Y63627
X57914Y59690
X57355Y62860
X56497Y63216
X52959Y46037
X52959Y46545
X57340Y54673
X57340Y54102
X51879Y55880
X51879Y55372
X57384Y79820
X50863Y79820
X50355Y43105
X50355Y42609
X49720Y81217
X49276Y81217
X50736Y78550
X50736Y79058
X52959Y72009
X51625Y71374
X57848Y42609
X58483Y81217
X53467Y43529
X51244Y47244
X50850Y61694
X49693Y59944
X49693Y59436
X51261Y62501
X52027Y62988
X51914Y63492
X56259Y56642
X56833Y55054
X56769Y67723
X54896Y65913
X56013Y62923
X57355Y63365
X54356Y74179
X53403Y74168
X52514Y71541
X51689Y70739
X51911Y66104
X52959Y55562
X53340Y65341
X52959Y76327
X56896Y71882
X50292Y54229
X55551Y71946
X50850Y62198
X51625Y67628
X51625Y69088
X50252Y49646
X73148Y80137
X67588Y80137
X67691Y79629
X67628Y42863
X67628Y43307
X73115Y42852
X73108Y43353
X73032Y79629
X69914Y73660
X72898Y70549
X65468Y74232
X75248Y74168
X70358Y69088
X70358Y59690
X68167Y65373
X68390Y66802
X69406Y64833
X72517Y47879
X67882Y46291
X68167Y64262
X70834Y72231
X73089Y66675
X71057Y64071
X73597Y55499
X66548Y55245
X67437Y57277
X68136Y56578
X74346Y43544
X73648Y47226
X73616Y52624
X67234Y51544
X67107Y49639
X65837Y42591
X66929Y77343
X73279Y77343
X75184Y77343
X69152Y78613
X73343Y68707
X68822Y52560
X72632Y52560
X70092Y50020
X72632Y50020
X71374Y44640
X74918Y42655
X68707Y55308
X67882Y45783
X72640Y80328
X72644Y42609
X75046Y58293
X72135Y80328
X72136Y42609
X74740Y58706
X71630Y80328
X71631Y42609
X74449Y60928
X71125Y80328
X71120Y42609
X73955Y58071
X70621Y80328
X70615Y42609
X66629Y57372
X70116Y80328
X70110Y42609
X67088Y57657
X70199Y44620
X69611Y80328
X69629Y42841
X66358Y61277
X69106Y80328
X69148Y42609
X65950Y60865
X68601Y80328
X68644Y42609
X73611Y62355
X68097Y80328
X68139Y42609
X74151Y61341
X73585Y43117
X73585Y42609
X73640Y80391
X67120Y80391
X67120Y42609
X67116Y43117
X68675Y63309
X70358Y63627
X74170Y59690
X73611Y62860
X72753Y63216
X69215Y46037
X69215Y46545
X73597Y54673
X73597Y54102
X68136Y55880
X68136Y55372
X73640Y79820
X67120Y79820
X66612Y43105
X66612Y42609
X65977Y81217
X65532Y81217
X66993Y78550
X66993Y79058
X69215Y72009
X67882Y71374
X74105Y42609
X74740Y81217
X69723Y43529
X67501Y47244
X67106Y61694
X65950Y59944
X65950Y59436
X67517Y62501
X68283Y62988
X68170Y63492
X72515Y56642
X73089Y55054
X73025Y67723
X71152Y65913
X72269Y62923
X73611Y63365
X70612Y74179
X69660Y74168
X68771Y71541
X67945Y70739
X68167Y66104
X69215Y55562
X69596Y65341
X69215Y76327
X73152Y71882
X66548Y54229
X71807Y71946
X67106Y62198
X67882Y67628
X67882Y69088
X66508Y49646
X89404Y80137
X83844Y80137
X83947Y79629
X83884Y42863
X83884Y43307
X89371Y42852
X89364Y43353
X89288Y79629
X86170Y73660
X89154Y70549
X81725Y74232
X91503Y74168
X86614Y69088
X86614Y59690
X84423Y65373
X84646Y66802
X85662Y64833
X88773Y47879
X84138Y46291
X84423Y64262
X87090Y72231
X89344Y66675
X87313Y64071
X89852Y55499
X82804Y55245
X83693Y57277
X84392Y56578
X90602Y43544
X89904Y47226
X89872Y52624
X83490Y51544
X83363Y49639
X82093Y42591
X83185Y77343
X89535Y77343
X91440Y77343
X85408Y78613
X89598Y68707
X85078Y52560
X88888Y52560
X86348Y50020
X88888Y50020
X87630Y44640
X91174Y42655
X84963Y55308
X84138Y45783
X88896Y80328
X88900Y42609
X91302Y58293
X88391Y80328
X88392Y42609
X90995Y58706
X87886Y80328
X87887Y42609
X90705Y60928
X87381Y80328
X87376Y42609
X90211Y58071
X86877Y80328
X86871Y42609
X82885Y57372
X86372Y80328
X86366Y42609
X83344Y57657
X86455Y44620
X85867Y80328
X85885Y42841
X82614Y61277
X85362Y80328
X85404Y42609
X82206Y60865
X84857Y80328
X84900Y42609
X89867Y62355
X84353Y80328
X84395Y42609
X90407Y61341
X89841Y43117
X89841Y42609
X89896Y80391
X83376Y80391
X83376Y42609
X83372Y43117
X84931Y63309
X86614Y63627
X90426Y59690
X89867Y62860
X89009Y63216
X85471Y46037
X85471Y46545
X2544Y1651
X89852Y54102
X84392Y55880
X84392Y55372
X89896Y79820
X83376Y79820
X82868Y43105
X82868Y42609
X82233Y81217
X81788Y81217
X83249Y78550
X83249Y79058
X85471Y72009
X84138Y71374
X90360Y42609
X90995Y81217
X85979Y43529
X83757Y47244
X83362Y61694
X82206Y59944
X82206Y59436
X83773Y62501
X84539Y62988
X84426Y63492
X88771Y56642
X89345Y55054
X89281Y67723
X87408Y65913
X88525Y62923
X89867Y63365
X86868Y74179
X85916Y74168
X85027Y71541
X84201Y70739
X84423Y66104
X85471Y55562
X85852Y65341
X85471Y76327
X89408Y71882
X82804Y54229
X88063Y71946
X83362Y62198
X84138Y67628
X84138Y69088
X82764Y49646
X105660Y80137
X100100Y80137
X100203Y79629
X100139Y42863
X100139Y43307
X105627Y42852
X105620Y43353
X105544Y79629
X102425Y73660
X105410Y70549
X97980Y74232
X107759Y74168
X102870Y69088
X102870Y59690
X100679Y65373
X100901Y66802
X101917Y64833
X105029Y47879
X100393Y46291
X100679Y64262
X103346Y72231
X105600Y66675
X103568Y64071
X106108Y55499
X99060Y55245
X99949Y57277
X100647Y56578
X106858Y43544
X106160Y47226
X106128Y52624
X99746Y51544
X99619Y49639
X98349Y42591
X99441Y77343
X105791Y77343
X107696Y77343
X101663Y78613
X105854Y68707
X101334Y52560
X105144Y52560
X102604Y50020
X105144Y50020
X103886Y44640
X107430Y42655
X101219Y55308
X100393Y45783
X105152Y80328
X105156Y42609
X107558Y58293
X104647Y80328
X104648Y42609
X107251Y58706
X104142Y80328
X104143Y42609
X106961Y60928
X103637Y80328
X103632Y42609
X106467Y58071
X103132Y80328
X103127Y42609
X99141Y57372
X102628Y80328
X102622Y42609
X99600Y57657
X102711Y44620
X102123Y80328
X102141Y42841
X98869Y61277
X101618Y80328
X101660Y42609
X98461Y60865
X101113Y80328
X101155Y42609
X106123Y62355
X100608Y80328
X100651Y42609
X106663Y61341
X106097Y43117
X106097Y42609
X106152Y80391
X99631Y80391
X99631Y42609
X99628Y43117
X101187Y63309
X102870Y63627
X106682Y59690
X106123Y62860
X105265Y63216
X101727Y46037
X101727Y46545
X106108Y54673
X106108Y54102
X100647Y55880
X100647Y55372
X106152Y79820
X99631Y79820
X99123Y43105
X99123Y42609
X98488Y81217
X98044Y81217
X99504Y78550
X99504Y79058
X101727Y72009
X100393Y71374
X106616Y42609
X107251Y81217
X102235Y43529
X100012Y47244
X99618Y61694
X98461Y59944
X98461Y59436
X100029Y62501
X100795Y62988
X100682Y63492
X105027Y56642
X105601Y55054
X105537Y67723
X103664Y65913
X104781Y62923
X106123Y63365
X103124Y74179
X102171Y74168
X101282Y71541
X100457Y70739
X100679Y66104
X101727Y55562
X102108Y65341
X101727Y76327
X105664Y71882
X99060Y54229
X104319Y71946
X99618Y62198
X100393Y67628
X100393Y69088
X99020Y49646
X121916Y80137
X116356Y80137
X116459Y79629
X116395Y42863
X116395Y43307
X121883Y42852
X121876Y43353
X121800Y79629
X118681Y73660
X121666Y70549
X114236Y74232
X124015Y74168
X119126Y69088
X119126Y59690
X116935Y65373
X117157Y66802
X118173Y64833
X121285Y47879
X116649Y46291
X116935Y64262
X119602Y72231
X121856Y66675
X119824Y64071
X122364Y55499
X115316Y55245
X116205Y57277
X116903Y56578
X123114Y43544
X122416Y47226
X122384Y52624
X116002Y51544
X115875Y49639
X114605Y42591
X115697Y77343
X122047Y77343
X123952Y77343
X117919Y78613
X122110Y68707
X117590Y52560
X121400Y52560
X118860Y50020
X121400Y50020
X120142Y44640
X123686Y42655
X117475Y55308
X116649Y45783
X121408Y80328
X121412Y42609
X123814Y58293
X120903Y80328
X120904Y42609
X123507Y58706
X120398Y80328
X120399Y42609
X123217Y60928
X119893Y80328
X119888Y42609
X122723Y58071
X119388Y80328
X119383Y42609
X115397Y57372
X118884Y80328
X118878Y42609
X115856Y57657
X118967Y44620
X118379Y80328
X118397Y42841
X115125Y61277
X117874Y80328
X117916Y42609
X114717Y60865
X117369Y80328
X117411Y42609
X122379Y62355
X116864Y80328
X116907Y42609
X122919Y61341
X122353Y43117
X122353Y42609
X122408Y80391
X115887Y80391
X115887Y42609
X115884Y43117
X117443Y63309
X119126Y63627
X122938Y59690
X122379Y62860
X121521Y63216
X117983Y46037
X117983Y46545
X122364Y54673
X122364Y54102
X116903Y55880
X116903Y55372
X122408Y79820
X115887Y79820
X115379Y43105
X115379Y42609
X114744Y81217
X114300Y81217
X115760Y78550
X115760Y79058
X117983Y72009
X116649Y71374
X122872Y42609
X123507Y81217
X118491Y43529
X116268Y47244
X115874Y61694
X114717Y59944
X114717Y59436
X116285Y62501
X117051Y62988
X116938Y63492
X121283Y56642
X121857Y55054
X121793Y67723
X119920Y65913
X121037Y62923
X122379Y63365
X119380Y74179
X118427Y74168
X117538Y71541
X116713Y70739
X116935Y66104
X117983Y55562
X118364Y65341
X117983Y76327
X121920Y71882
X115316Y54229
X120575Y71946
X115874Y62198
X116649Y67628
X116649Y69088
X115276Y49646
X138172Y80137
X132612Y80137
X132715Y79629
X132652Y42863
X132652Y43307
X138139Y42852
X138132Y43353
X138056Y79629
X134938Y73660
X137922Y70549
X130492Y74232
X140272Y74168
X135382Y69088
X135382Y59690
X133191Y65373
X133414Y66802
X134430Y64833
X137541Y47879
X132906Y46291
X133191Y64262
X135858Y72231
X138113Y66675
X136081Y64071
X138621Y55499
X131572Y55245
X132461Y57277
X133160Y56578
X139370Y43544
X138672Y47226
X138640Y52624
X132258Y51544
X132131Y49639
X130861Y42591
X131953Y77343
X138303Y77343
X140208Y77343
X134176Y78613
X89852Y54673
X133846Y52560
X137656Y52560
X135116Y50020
X137656Y50020
X136398Y44640
X139942Y42655
X133731Y55308
X132906Y45783
X137664Y80328
X137668Y42609
X140070Y58293
X137159Y80328
X137160Y42609
X139764Y58706
X136654Y80328
X136655Y42609
X139473Y60928
X136149Y80328
X136144Y42609
X138979Y58071
X135645Y80328
X135639Y42609
X131653Y57372
X135140Y80328
X135134Y42609
X132112Y57657
X135223Y44620
X134635Y80328
X134653Y42841
X131382Y61277
X134130Y80328
X134172Y42609
X130973Y60865
X133625Y80328
X133668Y42609
X138635Y62355
X133121Y80328
X133163Y42609
X139175Y61341
X138609Y43117
X138609Y42609
X138664Y80391
X132144Y80391
X132144Y42609
X132140Y43117
X133699Y63309
X135382Y63627
X139194Y59690
X138635Y62860
X137777Y63216
X134239Y46037
X134239Y46545
X138621Y54673
X138621Y54102
X133160Y55880
X133160Y55372
X138664Y79820
X132144Y79820
X131636Y43105
X131636Y42609
X131000Y81217
X130556Y81217
X132017Y78550
X132017Y79058
X134239Y72009
X132906Y71374
X139129Y42609
X139764Y81217
X134747Y43529
X132525Y47244
X132130Y61694
X130973Y59944
X130973Y59436
X132541Y62501
X133307Y62988
X133194Y63492
X137539Y56642
X138113Y55054
X138049Y67723
X136176Y65913
X137293Y62923
X138635Y63365
X135636Y74179
X134684Y74168
X133795Y71541
X132969Y70739
X133191Y66104
X134239Y55562
X134620Y65341
X134239Y76327
X138176Y71882
X131572Y54229
X136831Y71946
X132130Y62198
X132906Y67628
X132906Y69088
X131532Y49646
X154428Y80137
X148868Y80137
X148971Y79629
X148908Y42863
X148908Y43307
X154395Y42852
X154388Y43353
X154312Y79629
X151194Y73660
X154178Y70549
X146749Y74232
X156528Y74168
X151638Y69088
X151638Y59690
X149447Y65373
X149670Y66802
X150686Y64833
X153797Y47879
X149162Y46291
X149447Y64262
X152114Y72231
X154369Y66675
X152337Y64071
X154877Y55499
X147828Y55245
X148717Y57277
X149416Y56578
X155626Y43544
X154928Y47226
X154896Y52624
X148514Y51544
X148387Y49639
X147117Y42591
X148209Y77343
X154559Y77343
X156464Y77343
X150432Y78613
X154623Y68707
X150102Y52560
X153912Y52560
X151372Y50020
X153912Y50020
X152654Y44640
X156198Y42655
X149987Y55308
X149162Y45783
X153920Y80328
X153924Y42609
X156326Y58293
X153415Y80328
X153416Y42609
X156020Y58706
X152910Y80328
X152911Y42609
X155729Y60928
X152405Y80328
X152400Y42609
X155235Y58071
X151901Y80328
X151895Y42609
X147909Y57372
X151396Y80328
X151390Y42609
X148368Y57657
X151479Y44620
X150891Y80328
X150909Y42841
X147638Y61277
X150386Y80328
X150428Y42609
X147230Y60865
X149881Y80328
X149924Y42609
X154891Y62355
X149377Y80328
X149419Y42609
X155431Y61341
X154865Y43117
X154865Y42609
X154920Y80391
X148400Y80391
X148400Y42609
X148396Y43117
X149955Y63309
X151638Y63627
X155450Y59690
X154891Y62860
X154033Y63216
X150495Y46037
X150495Y46545
X154877Y54673
X154877Y54102
X149416Y55880
X149416Y55372
X154920Y79820
X148400Y79820
X147892Y43105
X147892Y42609
X147257Y81217
X146812Y81217
X148273Y78550
X148273Y79058
X150495Y72009
X149162Y71374
X155385Y42609
X156020Y81217
X151003Y43529
X148781Y47244
X148386Y61694
X147230Y59944
X147230Y59436
X148797Y62501
X149563Y62988
X149450Y63492
X153795Y56642
X154369Y55054
X154305Y67723
X152432Y65913
X153549Y62923
X154891Y63365
X151892Y74179
X150940Y74168
X150051Y71541
X149225Y70739
X149447Y66104
X150495Y55562
X150876Y65341
X150495Y76327
X154432Y71882
X147828Y54229
X153087Y71946
X148386Y62198
X149162Y67628
X149162Y69088
X147788Y49646
X8104Y1651
X8001Y2159
X8064Y38926
X8064Y38481
X2577Y38936
X2584Y38435
X2660Y2159
X5778Y8128
X2794Y11239
X10224Y7556
X444Y7620
X5334Y12700
X5334Y22098
X7525Y16415
X7302Y14986
X6286Y16955
X3175Y33909
X7810Y35497
X7525Y17526
X4858Y9557
X2604Y15113
X4636Y17717
X2096Y26289
X9144Y26543
X8255Y24511
X7556Y25209
X1346Y38245
X2044Y34562
X2076Y29164
X8458Y30243
X8585Y32148
X9855Y39197
X8763Y4445
X2413Y4445
X508Y4445
X6540Y3175
X2350Y13081
X6870Y29227
X3060Y29227
X5600Y31767
X3060Y31767
X4318Y37148
X774Y39134
X6985Y26479
X7810Y36005
X3052Y1460
X3048Y39180
X646Y23495
X3557Y1460
X3556Y39180
X952Y23082
X4062Y1460
X4061Y39180
X1243Y20860
X4567Y1460
X4572Y39180
X1737Y23717
X5072Y1460
X5077Y39180
X9063Y24416
X5576Y1460
X5582Y39180
X8604Y24131
X5493Y37168
X6081Y1460
X6063Y38947
X9335Y20511
X6586Y1460
X6544Y39180
X9743Y20923
X7091Y1460
X7048Y39180
X2081Y19433
X7595Y1460
X7553Y39180
X1541Y20447
X2107Y38672
X2107Y39180
X2052Y1397
X8573Y1397
X8573Y39180
X8576Y38672
X7017Y18479
X5334Y18161
X1522Y22098
X2081Y18928
X2939Y18572
X6477Y35751
X6477Y35243
X2096Y27114
X2096Y27686
X7556Y25908
X7556Y26416
X2052Y1968
X8573Y1968
X9081Y38683
X9081Y39180
X9716Y572
X10160Y572
X8700Y3238
X8700Y2731
X6477Y9779
X7810Y10414
X1587Y39180
X952Y572
X5969Y38259
X8191Y34544
X8586Y20094
X9743Y21844
X9743Y22352
X8175Y19287
X7409Y18800
X7522Y18296
X3177Y25146
X2603Y26734
X2667Y14065
X4540Y15875
X3423Y18865
X2081Y18423
X138367Y68707
M30